{
	"asset":{
		"generator":"Khronos glTF Blender I/O v3.6.27",
		"version":"2.0"
	},
	"scene":0,
	"scenes":[
		{
			"name":"Scene",
			"nodes":[
				0,
				1,
				2
			]
		}
	],
	"nodes":[
		{
			"mesh":0,
			"name":"Cylinder.019",
			"scale":[
				0.8206151127815247,
				0.06651876866817474,
				0.8206151127815247
			]
		},
		{
			"mesh":1,
			"name":"Cylinder.020",
			"rotation":[
				0.0005431869649328291,
				0,
				0,
				1
			],
			"scale":[
				0.8206151127815247,
				0.06651876866817474,
				0.8206151127815247
			],
			"translation":[
				0,
				-0.003596225753426552,
				-0.002102513099089265
			]
		},
		{
			"mesh":2,
			"name":"Cylinder.001",
			"scale":[
				0.8206151127815247,
				0.06651876866817474,
				0.8206151127815247
			]
		}
	],
	"materials":[
		{
			"doubleSided":true,
			"name":"Material.005",
			"pbrMetallicRoughness":{
				"baseColorFactor":[
					0.6020767092704773,
					0.3987875282764435,
					0.040077704936265945,
					1
				],
				"roughnessFactor":0
			}
		},
		{
			"doubleSided":true,
			"name":"Material.010",
			"pbrMetallicRoughness":{
				"baseColorFactor":[
					0,
					0,
					0,
					1
				],
				"metallicFactor":0.7399103045463562,
				"roughnessFactor":0
			}
		},
		{
			"doubleSided":true,
			"name":"Material.012",
			"pbrMetallicRoughness":{}
		},
		{
			"alphaMode":"BLEND",
			"doubleSided":true,
			"name":"CREAM PUFF-01 - Copy",
			"pbrMetallicRoughness":{
				"baseColorTexture":{
					"index":0
				},
				"metallicFactor":0,
				"roughnessFactor":0.5
			}
		}
	],
	"meshes":[
		{
			"name":"Cylinder.025",
			"primitives":[
				{
					"attributes":{
						"POSITION":0,
						"NORMAL":1,
						"TEXCOORD_0":2
					},
					"indices":3,
					"material":0
				},
				{
					"attributes":{
						"POSITION":4,
						"NORMAL":5,
						"TEXCOORD_0":6
					},
					"indices":7,
					"material":0
				}
			]
		},
		{
			"name":"Cylinder.026",
			"primitives":[
				{
					"attributes":{
						"POSITION":8,
						"NORMAL":9,
						"TEXCOORD_0":10
					},
					"indices":11,
					"material":1
				},
				{
					"attributes":{
						"POSITION":12,
						"NORMAL":13,
						"TEXCOORD_0":14
					},
					"indices":15,
					"material":2
				},
				{
					"attributes":{
						"POSITION":16,
						"NORMAL":17,
						"TEXCOORD_0":18
					},
					"indices":19,
					"material":3
				}
			]
		},
		{
			"name":"Cylinder.009",
			"primitives":[
				{
					"attributes":{
						"POSITION":20,
						"NORMAL":21,
						"TEXCOORD_0":22
					},
					"indices":23,
					"material":1
				}
			]
		}
	],
	"textures":[
		{
			"sampler":0,
			"source":0
		}
	],
	"images":[
		{
			"mimeType":"image/png",
			"name":"CREAM PUFF-01 - Copy",
			"uri":"textures/CREAM%20PUFF-01%20-%20Copy.png"
		}
	],
	"accessors":[
		{
			"bufferView":0,
			"componentType":5126,
			"count":1108,
			"max":[
				0.9847127199172974,
				0.899290144443512,
				0.97455894947052
			],
			"min":[
				-0.9847127199172974,
				-0.5588972568511963,
				-0.9847127199172974
			],
			"type":"VEC3"
		},
		{
			"bufferView":1,
			"componentType":5126,
			"count":1108,
			"type":"VEC3"
		},
		{
			"bufferView":2,
			"componentType":5126,
			"count":1108,
			"type":"VEC2"
		},
		{
			"bufferView":3,
			"componentType":5123,
			"count":3285,
			"type":"SCALAR"
		},
		{
			"bufferView":4,
			"componentType":5126,
			"count":12,
			"max":[
				0.11856751888990402,
				0.8167234659194946,
				-0.927911639213562
			],
			"min":[
				-0.11856729537248611,
				0.8167234659194946,
				-0.9460245370864868
			],
			"type":"VEC3"
		},
		{
			"bufferView":5,
			"componentType":5126,
			"count":12,
			"type":"VEC3"
		},
		{
			"bufferView":6,
			"componentType":5126,
			"count":12,
			"type":"VEC2"
		},
		{
			"bufferView":7,
			"componentType":5123,
			"count":30,
			"type":"SCALAR"
		},
		{
			"bufferView":8,
			"componentType":5126,
			"count":919,
			"max":[
				1,
				1.6252082586288452,
				1
			],
			"min":[
				-1,
				-1.4517005681991577,
				-1
			],
			"type":"VEC3"
		},
		{
			"bufferView":9,
			"componentType":5126,
			"count":919,
			"type":"VEC3"
		},
		{
			"bufferView":10,
			"componentType":5126,
			"count":919,
			"type":"VEC2"
		},
		{
			"bufferView":11,
			"componentType":5123,
			"count":2946,
			"type":"SCALAR"
		},
		{
			"bufferView":12,
			"componentType":5126,
			"count":100,
			"max":[
				0.9352866411209106,
				0.8180010318756104,
				0.9352866411209106
			],
			"min":[
				-0.9352866411209106,
				0.8180010318756104,
				-0.9352866411209106
			],
			"type":"VEC3"
		},
		{
			"bufferView":13,
			"componentType":5126,
			"count":100,
			"type":"VEC3"
		},
		{
			"bufferView":14,
			"componentType":5126,
			"count":100,
			"type":"VEC2"
		},
		{
			"bufferView":15,
			"componentType":5123,
			"count":294,
			"type":"SCALAR"
		},
		{
			"bufferView":16,
			"componentType":5126,
			"count":4,
			"max":[
				0.41184040904045105,
				1.629262924194336,
				0.3377232849597931
			],
			"min":[
				-0.41184040904045105,
				1.629262924194336,
				-0.3348134458065033
			],
			"type":"VEC3"
		},
		{
			"bufferView":17,
			"componentType":5126,
			"count":4,
			"type":"VEC3"
		},
		{
			"bufferView":18,
			"componentType":5126,
			"count":4,
			"type":"VEC2"
		},
		{
			"bufferView":19,
			"componentType":5123,
			"count":6,
			"type":"SCALAR"
		},
		{
			"bufferView":20,
			"componentType":5126,
			"count":487,
			"max":[
				1,
				-0.5588972568511963,
				0.9900292158126831
			],
			"min":[
				-1,
				-1.5321720838546753,
				-1
			],
			"type":"VEC3"
		},
		{
			"bufferView":21,
			"componentType":5126,
			"count":487,
			"type":"VEC3"
		},
		{
			"bufferView":22,
			"componentType":5126,
			"count":487,
			"type":"VEC2"
		},
		{
			"bufferView":23,
			"componentType":5123,
			"count":1431,
			"type":"SCALAR"
		}
	],
	"bufferViews":[
		{
			"buffer":0,
			"byteLength":13296,
			"byteOffset":0,
			"target":34962
		},
		{
			"buffer":0,
			"byteLength":13296,
			"byteOffset":13296,
			"target":34962
		},
		{
			"buffer":0,
			"byteLength":8864,
			"byteOffset":26592,
			"target":34962
		},
		{
			"buffer":0,
			"byteLength":6570,
			"byteOffset":35456,
			"target":34963
		},
		{
			"buffer":0,
			"byteLength":144,
			"byteOffset":42028,
			"target":34962
		},
		{
			"buffer":0,
			"byteLength":144,
			"byteOffset":42172,
			"target":34962
		},
		{
			"buffer":0,
			"byteLength":96,
			"byteOffset":42316,
			"target":34962
		},
		{
			"buffer":0,
			"byteLength":60,
			"byteOffset":42412,
			"target":34963
		},
		{
			"buffer":0,
			"byteLength":11028,
			"byteOffset":42472,
			"target":34962
		},
		{
			"buffer":0,
			"byteLength":11028,
			"byteOffset":53500,
			"target":34962
		},
		{
			"buffer":0,
			"byteLength":7352,
			"byteOffset":64528,
			"target":34962
		},
		{
			"buffer":0,
			"byteLength":5892,
			"byteOffset":71880,
			"target":34963
		},
		{
			"buffer":0,
			"byteLength":1200,
			"byteOffset":77772,
			"target":34962
		},
		{
			"buffer":0,
			"byteLength":1200,
			"byteOffset":78972,
			"target":34962
		},
		{
			"buffer":0,
			"byteLength":800,
			"byteOffset":80172,
			"target":34962
		},
		{
			"buffer":0,
			"byteLength":588,
			"byteOffset":80972,
			"target":34963
		},
		{
			"buffer":0,
			"byteLength":48,
			"byteOffset":81560,
			"target":34962
		},
		{
			"buffer":0,
			"byteLength":48,
			"byteOffset":81608,
			"target":34962
		},
		{
			"buffer":0,
			"byteLength":32,
			"byteOffset":81656,
			"target":34962
		},
		{
			"buffer":0,
			"byteLength":12,
			"byteOffset":81688,
			"target":34963
		},
		{
			"buffer":0,
			"byteLength":5844,
			"byteOffset":81700,
			"target":34962
		},
		{
			"buffer":0,
			"byteLength":5844,
			"byteOffset":87544,
			"target":34962
		},
		{
			"buffer":0,
			"byteLength":3896,
			"byteOffset":93388,
			"target":34962
		},
		{
			"buffer":0,
			"byteLength":2862,
			"byteOffset":97284,
			"target":34963
		}
	],
	"samplers":[
		{
			"magFilter":9729,
			"minFilter":9987,
			"wrapS":33071,
			"wrapT":33071
		}
	],
	"buffers":[
		{
			"byteLength":100148,
			"uri":"Luxury%20compact%20powder2.bin"
		}
	]
}
