{
	"asset":{
		"generator":"Khronos glTF Blender I/O v3.6.27",
		"version":"2.0"
	},
	"scene":0,
	"scenes":[
		{
			"name":"Scene",
			"nodes":[
				0,
				1,
				2,
				3,
				4
			]
		}
	],
	"nodes":[
		{
			"mesh":0,
			"name":"1-01.002",
			"rotation":[
				0.7069961428642273,
				-0.012507347390055656,
				0.012507347390055656,
				0.7069962024688721
			],
			"scale":[
				0.44292762875556946,
				0.44292762875556946,
				0.44292762875556946
			],
			"translation":[
				0,
				0.9337350130081177,
				1.365529179573059
			]
		},
		{
			"mesh":1,
			"name":"1-02.001",
			"rotation":[
				0.7070794105529785,
				0.006231262814253569,
				-0.006231262814253569,
				0.7070793509483337
			],
			"scale":[
				1.0329899787902832,
				1.0329878330230713,
				1.0329878330230713
			],
			"translation":[
				0,
				0.014387000352144241,
				1.34909188747406
			]
		},
		{
			"mesh":2,
			"name":"Cylinder.003",
			"scale":[
				1.340884804725647,
				1.340884804725647,
				1.340884804725647
			]
		},
		{
			"mesh":3,
			"name":"Cylinder.005",
			"scale":[
				1.3088350296020508,
				1.308834433555603,
				1.3088343143463135
			],
			"translation":[
				0,
				3.707697868347168,
				0
			]
		},
		{
			"mesh":4,
			"name":"Cylinder.001",
			"scale":[
				1.340884804725647,
				1.340884804725647,
				1.340884804725647
			]
		}
	],
	"materials":[
		{
			"alphaMode":"BLEND",
			"doubleSided":true,
			"name":"1-01",
			"pbrMetallicRoughness":{
				"baseColorTexture":{
					"index":0
				},
				"metallicFactor":0,
				"roughnessFactor":0.5
			}
		},
		{
			"alphaMode":"BLEND",
			"doubleSided":true,
			"name":"1-02",
			"pbrMetallicRoughness":{
				"baseColorTexture":{
					"index":1
				},
				"metallicFactor":0,
				"roughnessFactor":0.5
			}
		},
		{
			"doubleSided":true,
			"name":"Material.001",
			"pbrMetallicRoughness":{
				"baseColorTexture":{
					"index":2
				},
				"metallicFactor":0,
				"roughnessFactor":0.16238367557525635
			}
		},
		{
			"doubleSided":true,
			"name":"Material.002",
			"pbrMetallicRoughness":{
				"baseColorTexture":{
					"index":3,
					"texCoord":1
				},
				"metallicFactor":0,
				"roughnessFactor":0.16238367557525635
			}
		},
		{
			"doubleSided":true,
			"name":"Material.003",
			"pbrMetallicRoughness":{
				"baseColorFactor":[
					0.8000000715255737,
					0.6838381290435791,
					0.14726977050304413,
					1
				],
				"roughnessFactor":0
			}
		}
	],
	"meshes":[
		{
			"name":"1-01.003",
			"primitives":[
				{
					"attributes":{
						"POSITION":0,
						"NORMAL":1,
						"TEXCOORD_0":2
					},
					"indices":3,
					"material":0
				}
			]
		},
		{
			"name":"1-02.002",
			"primitives":[
				{
					"attributes":{
						"POSITION":4,
						"NORMAL":5,
						"TEXCOORD_0":6
					},
					"indices":7,
					"material":1
				}
			]
		},
		{
			"name":"Cylinder.041",
			"primitives":[
				{
					"attributes":{
						"POSITION":8,
						"NORMAL":9,
						"TEXCOORD_0":10
					},
					"indices":11,
					"material":2
				}
			]
		},
		{
			"name":"Cylinder.043",
			"primitives":[
				{
					"attributes":{
						"POSITION":12,
						"NORMAL":13,
						"TEXCOORD_0":14,
						"TEXCOORD_1":15
					},
					"indices":16,
					"material":3
				}
			]
		},
		{
			"name":"Cylinder.002",
			"primitives":[
				{
					"attributes":{
						"POSITION":17,
						"NORMAL":18,
						"TEXCOORD_0":19
					},
					"indices":20,
					"material":4
				}
			]
		}
	],
	"textures":[
		{
			"sampler":0,
			"source":0
		},
		{
			"sampler":0,
			"source":1
		},
		{
			"sampler":1,
			"source":2
		},
		{
			"sampler":1,
			"source":3
		}
	],
	"images":[
		{
			"mimeType":"image/png",
			"name":"1-01",
			"uri":"textures/1-01.png"
		},
		{
			"mimeType":"image/png",
			"name":"1-02",
			"uri":"textures/1-02.png"
		},
		{
			"mimeType":"image/png",
			"name":"BLACK 1",
			"uri":"textures/BLACK%201.png"
		},
		{
			"mimeType":"image/png",
			"name":"BLACK 2",
			"uri":"textures/BLACK%202.png"
		}
	],
	"accessors":[
		{
			"bufferView":0,
			"componentType":5126,
			"count":4822,
			"max":[
				1.8008869886398315,
				-0.030609607696533203,
				0.5000054836273193
			],
			"min":[
				-1.9348883628845215,
				-0.7214443683624268,
				-0.5000009536743164
			],
			"type":"VEC3"
		},
		{
			"bufferView":1,
			"componentType":5126,
			"count":4822,
			"type":"VEC3"
		},
		{
			"bufferView":2,
			"componentType":5126,
			"count":4822,
			"type":"VEC2"
		},
		{
			"bufferView":3,
			"componentType":5123,
			"count":24576,
			"type":"SCALAR"
		},
		{
			"bufferView":4,
			"componentType":5126,
			"count":5161,
			"max":[
				0.8823633193969727,
				-0.0025026798248291016,
				0.5000022649765015
			],
			"min":[
				-0.8453357219696045,
				-0.33924317359924316,
				-0.5000038146972656
			],
			"type":"VEC3"
		},
		{
			"bufferView":5,
			"componentType":5126,
			"count":5161,
			"type":"VEC3"
		},
		{
			"bufferView":6,
			"componentType":5126,
			"count":5161,
			"type":"VEC2"
		},
		{
			"bufferView":7,
			"componentType":5123,
			"count":24576,
			"type":"SCALAR"
		},
		{
			"bufferView":8,
			"componentType":5126,
			"count":1504,
			"max":[
				1.0227131843566895,
				4.017093658447266,
				1.0227131843566895
			],
			"min":[
				-1.0227131843566895,
				-1.1121195554733276,
				-1.0227131843566895
			],
			"type":"VEC3"
		},
		{
			"bufferView":9,
			"componentType":5126,
			"count":1504,
			"type":"VEC3"
		},
		{
			"bufferView":10,
			"componentType":5126,
			"count":1504,
			"type":"VEC2"
		},
		{
			"bufferView":11,
			"componentType":5123,
			"count":7770,
			"type":"SCALAR"
		},
		{
			"bufferView":12,
			"componentType":5126,
			"count":554,
			"max":[
				1,
				1.617410659790039,
				1
			],
			"min":[
				-1,
				-1,
				-1
			],
			"type":"VEC3"
		},
		{
			"bufferView":13,
			"componentType":5126,
			"count":554,
			"type":"VEC3"
		},
		{
			"bufferView":14,
			"componentType":5126,
			"count":554,
			"type":"VEC2"
		},
		{
			"bufferView":15,
			"componentType":5126,
			"count":554,
			"type":"VEC2"
		},
		{
			"bufferView":16,
			"componentType":5123,
			"count":2010,
			"type":"SCALAR"
		},
		{
			"bufferView":17,
			"componentType":5126,
			"count":66,
			"max":[
				1,
				1.5113391876220703,
				1
			],
			"min":[
				-1,
				1.0997295379638672,
				-1
			],
			"type":"VEC3"
		},
		{
			"bufferView":18,
			"componentType":5126,
			"count":66,
			"type":"VEC3"
		},
		{
			"bufferView":19,
			"componentType":5126,
			"count":66,
			"type":"VEC2"
		},
		{
			"bufferView":20,
			"componentType":5123,
			"count":192,
			"type":"SCALAR"
		}
	],
	"bufferViews":[
		{
			"buffer":0,
			"byteLength":57864,
			"byteOffset":0,
			"target":34962
		},
		{
			"buffer":0,
			"byteLength":57864,
			"byteOffset":57864,
			"target":34962
		},
		{
			"buffer":0,
			"byteLength":38576,
			"byteOffset":115728,
			"target":34962
		},
		{
			"buffer":0,
			"byteLength":49152,
			"byteOffset":154304,
			"target":34963
		},
		{
			"buffer":0,
			"byteLength":61932,
			"byteOffset":203456,
			"target":34962
		},
		{
			"buffer":0,
			"byteLength":61932,
			"byteOffset":265388,
			"target":34962
		},
		{
			"buffer":0,
			"byteLength":41288,
			"byteOffset":327320,
			"target":34962
		},
		{
			"buffer":0,
			"byteLength":49152,
			"byteOffset":368608,
			"target":34963
		},
		{
			"buffer":0,
			"byteLength":18048,
			"byteOffset":417760,
			"target":34962
		},
		{
			"buffer":0,
			"byteLength":18048,
			"byteOffset":435808,
			"target":34962
		},
		{
			"buffer":0,
			"byteLength":12032,
			"byteOffset":453856,
			"target":34962
		},
		{
			"buffer":0,
			"byteLength":15540,
			"byteOffset":465888,
			"target":34963
		},
		{
			"buffer":0,
			"byteLength":6648,
			"byteOffset":481428,
			"target":34962
		},
		{
			"buffer":0,
			"byteLength":6648,
			"byteOffset":488076,
			"target":34962
		},
		{
			"buffer":0,
			"byteLength":4432,
			"byteOffset":494724,
			"target":34962
		},
		{
			"buffer":0,
			"byteLength":4432,
			"byteOffset":499156,
			"target":34962
		},
		{
			"buffer":0,
			"byteLength":4020,
			"byteOffset":503588,
			"target":34963
		},
		{
			"buffer":0,
			"byteLength":792,
			"byteOffset":507608,
			"target":34962
		},
		{
			"buffer":0,
			"byteLength":792,
			"byteOffset":508400,
			"target":34962
		},
		{
			"buffer":0,
			"byteLength":528,
			"byteOffset":509192,
			"target":34962
		},
		{
			"buffer":0,
			"byteLength":384,
			"byteOffset":509720,
			"target":34963
		}
	],
	"samplers":[
		{
			"magFilter":9729,
			"minFilter":9987,
			"wrapS":33071,
			"wrapT":33071
		},
		{
			"magFilter":9729,
			"minFilter":9987
		}
	],
	"buffers":[
		{
			"byteLength":510104,
			"uri":"paint%20stick.bin"
		}
	]
}
