{
	"asset":{
		"copyright":"textures",
		"generator":"Khronos glTF Blender I/O v3.6.27",
		"version":"2.0"
	},
	"scene":0,
	"scenes":[
		{
			"name":"Scene",
			"nodes":[
				0,
				1,
				2,
				3,
				4,
				5,
				6,
				7,
				8
			]
		}
	],
	"nodes":[
		{
			"mesh":0,
			"name":"Cylinder.009",
			"translation":[
				0,
				0.037735000252723694,
				0
			]
		},
		{
			"mesh":1,
			"name":"Cylinder.010",
			"translation":[
				0,
				0.03462599962949753,
				0
			]
		},
		{
			"mesh":2,
			"name":"Cylinder.011",
			"translation":[
				0,
				0.03462599962949753,
				0
			]
		},
		{
			"mesh":3,
			"name":"Cylinder.012",
			"translation":[
				0,
				0.03773504123091698,
				0
			]
		},
		{
			"mesh":4,
			"name":"pan cake-01-01.001",
			"scale":[
				0.5490139722824097,
				0.5490142703056335,
				0.7012654542922974
			],
			"translation":[
				0,
				0.42129117250442505,
				0.5480838418006897
			]
		},
		{
			"mesh":5,
			"name":"YOUR LOGO-01.001",
			"scale":[
				0.6030449867248535,
				0.603044867515564,
				0.603044867515564
			],
			"translation":[
				0,
				0.4212838113307953,
				-0.6286529898643494
			]
		},
		{
			"mesh":6,
			"name":"Aqua base BACK STICKER-02",
			"rotation":[
				0,
				0,
				1,
				1.6292068494294654e-07
			],
			"scale":[
				1.9592301845550537,
				1.9592301845550537,
				1.9592301845550537
			],
			"translation":[
				0,
				0.016641082242131233,
				0
			]
		},
		{
			"mesh":7,
			"name":"Text.003",
			"scale":[
				0.18590712547302246,
				0.18590712547302246,
				0.18590712547302246
			],
			"translation":[
				-0.24705085158348083,
				0.43501442670822144,
				0
			]
		},
		{
			"mesh":8,
			"name":"Text.002",
			"scale":[
				0.18590712547302246,
				0.18590712547302246,
				0.18590712547302246
			],
			"translation":[
				-0.24705085158348083,
				0.43501442670822144,
				0
			]
		}
	],
	"materials":[
		{
			"doubleSided":true,
			"name":"Material.001",
			"pbrMetallicRoughness":{
				"baseColorTexture":{
					"index":0
				},
				"metallicFactor":0,
				"roughnessFactor":0.16238367557525635
			}
		},
		{
			"doubleSided":true,
			"name":"Material.004",
			"pbrMetallicRoughness":{
				"baseColorTexture":{
					"index":1
				},
				"metallicFactor":0,
				"roughnessFactor":0.16238367557525635
			}
		},
		{
			"doubleSided":true,
			"name":"Procedural Simple Cloth",
			"pbrMetallicRoughness":{
				"baseColorTexture":{
					"index":2
				},
				"metallicFactor":0
			}
		},
		{
			"alphaMode":"BLEND",
			"name":"Glass.001",
			"occlusionTexture":{
				"index":3
			},
			"pbrMetallicRoughness":{
				"baseColorTexture":{
					"index":4
				},
				"metallicRoughnessTexture":{
					"index":3
				}
			}
		},
		{
			"alphaMode":"BLEND",
			"doubleSided":true,
			"name":"pan cake-01-01.001",
			"pbrMetallicRoughness":{
				"baseColorTexture":{
					"index":5
				},
				"metallicFactor":0,
				"roughnessFactor":0.5
			}
		},
		{
			"alphaMode":"BLEND",
			"doubleSided":true,
			"name":"YOUR LOGO-01.001",
			"pbrMetallicRoughness":{
				"baseColorTexture":{
					"index":6
				},
				"metallicFactor":0,
				"roughnessFactor":0.5
			}
		},
		{
			"alphaMode":"BLEND",
			"doubleSided":true,
			"name":"Aqua base BACK STICKER-02",
			"pbrMetallicRoughness":{
				"baseColorTexture":{
					"index":7
				},
				"metallicFactor":0,
				"roughnessFactor":0.20000000298023224
			}
		},
		{
			"doubleSided":true,
			"name":"Material.003",
			"pbrMetallicRoughness":{
				"baseColorTexture":{
					"index":8
				},
				"roughnessFactor":0.20000000298023224
			}
		}
	],
	"meshes":[
		{
			"name":"Cylinder.017",
			"primitives":[
				{
					"attributes":{
						"POSITION":0,
						"NORMAL":1,
						"TEXCOORD_0":2
					},
					"indices":3,
					"material":0
				}
			]
		},
		{
			"name":"Cylinder.018",
			"primitives":[
				{
					"attributes":{
						"POSITION":4,
						"NORMAL":5,
						"TEXCOORD_0":6
					},
					"indices":7,
					"material":1
				}
			]
		},
		{
			"name":"Cylinder.019",
			"primitives":[
				{
					"attributes":{
						"POSITION":8,
						"NORMAL":9,
						"TEXCOORD_0":10
					},
					"indices":11,
					"material":2
				}
			]
		},
		{
			"name":"Cylinder.020",
			"primitives":[
				{
					"attributes":{
						"POSITION":12,
						"NORMAL":13,
						"TEXCOORD_0":14
					},
					"indices":15,
					"material":3
				}
			]
		},
		{
			"name":"pan cake-01-01.001",
			"primitives":[
				{
					"attributes":{
						"POSITION":16,
						"NORMAL":17,
						"TEXCOORD_0":18
					},
					"indices":19,
					"material":4
				}
			]
		},
		{
			"name":"YOUR LOGO-01.001",
			"primitives":[
				{
					"attributes":{
						"POSITION":20,
						"NORMAL":21,
						"TEXCOORD_0":22
					},
					"indices":23,
					"material":5
				}
			]
		},
		{
			"name":"Aqua base BACK STICKER-02",
			"primitives":[
				{
					"attributes":{
						"POSITION":24,
						"NORMAL":25,
						"TEXCOORD_0":26
					},
					"indices":27,
					"material":6
				}
			]
		},
		{
			"name":"Text.003",
			"primitives":[
				{
					"attributes":{
						"POSITION":28,
						"NORMAL":29,
						"TEXCOORD_0":30
					},
					"indices":31,
					"material":7
				}
			]
		},
		{
			"name":"Text.002",
			"primitives":[
				{
					"attributes":{
						"POSITION":32,
						"NORMAL":33,
						"TEXCOORD_0":34
					},
					"indices":35,
					"material":3
				}
			]
		}
	],
	"textures":[
		{
			"sampler":0,
			"source":0
		},
		{
			"sampler":0,
			"source":1
		},
		{
			"sampler":0,
			"source":2
		},
		{
			"sampler":0,
			"source":3
		},
		{
			"sampler":0,
			"source":4
		},
		{
			"sampler":1,
			"source":5
		},
		{
			"sampler":1,
			"source":6
		},
		{
			"sampler":1,
			"source":7
		},
		{
			"sampler":0,
			"source":8
		}
	],
	"images":[
		{
			"mimeType":"image/png",
			"name":"bLACK 1",
			"uri":"textures/bLACK%201.png"
		},
		{
			"mimeType":"image/png",
			"name":"black 2",
			"uri":"textures/black%202.png"
		},
		{
			"mimeType":"image/png",
			"name":"powder",
			"uri":"textures/powder.png"
		},
		{
			"mimeType":"image/png",
			"name":"Image_1",
			"uri":"textures/Image_1.png"
		},
		{
			"mimeType":"image/png",
			"name":"Image_0",
			"uri":"textures/Image_0.png"
		},
		{
			"mimeType":"image/png",
			"name":"Aqua base white-01",
			"uri":"textures/Aqua%20base%20white-01.png"
		},
		{
			"mimeType":"image/png",
			"name":"your logo white-01",
			"uri":"textures/your%20logo%20white-01.png"
		},
		{
			"mimeType":"image/png",
			"name":"Aqua base BACK STICKER-02",
			"uri":"textures/Aqua%20base%20BACK%20STICKER-02.png"
		},
		{
			"mimeType":"image/png",
			"name":"silver-02",
			"uri":"textures/silver-02.png"
		}
	],
	"accessors":[
		{
			"bufferView":0,
			"componentType":5126,
			"count":2100,
			"max":[
				0.9997806549072266,
				0.3818058669567108,
				1
			],
			"min":[
				-0.9997806549072266,
				0.004001125693321228,
				-1
			],
			"type":"VEC3"
		},
		{
			"bufferView":1,
			"componentType":5126,
			"count":2100,
			"type":"VEC3"
		},
		{
			"bufferView":2,
			"componentType":5126,
			"count":2100,
			"type":"VEC2"
		},
		{
			"bufferView":3,
			"componentType":5123,
			"count":9900,
			"type":"SCALAR"
		},
		{
			"bufferView":4,
			"componentType":5126,
			"count":6450,
			"max":[
				0.9997806549072266,
				0.32205986976623535,
				1
			],
			"min":[
				-0.9997806549072266,
				-0.02999931573867798,
				-1
			],
			"type":"VEC3"
		},
		{
			"bufferView":5,
			"componentType":5126,
			"count":6450,
			"type":"VEC3"
		},
		{
			"bufferView":6,
			"componentType":5126,
			"count":6450,
			"type":"VEC2"
		},
		{
			"bufferView":7,
			"componentType":5123,
			"count":36444,
			"type":"SCALAR"
		},
		{
			"bufferView":8,
			"componentType":5126,
			"count":150,
			"max":[
				0.905515730381012,
				0.2984253764152527,
				0.9057144522666931
			],
			"min":[
				-0.905515730381012,
				0.2984253764152527,
				-0.9057144522666931
			],
			"type":"VEC3"
		},
		{
			"bufferView":9,
			"componentType":5126,
			"count":150,
			"type":"VEC3"
		},
		{
			"bufferView":10,
			"componentType":5126,
			"count":150,
			"type":"VEC2"
		},
		{
			"bufferView":11,
			"componentType":5123,
			"count":444,
			"type":"SCALAR"
		},
		{
			"bufferView":12,
			"componentType":5126,
			"count":949,
			"max":[
				0.4855511486530304,
				0.39046287536621094,
				0.4856576919555664
			],
			"min":[
				-0.48555120825767517,
				0.3818058669567108,
				-0.4856576919555664
			],
			"type":"VEC3"
		},
		{
			"bufferView":13,
			"componentType":5126,
			"count":949,
			"type":"VEC3"
		},
		{
			"bufferView":14,
			"componentType":5126,
			"count":949,
			"type":"VEC2"
		},
		{
			"bufferView":15,
			"componentType":5123,
			"count":4488,
			"type":"SCALAR"
		},
		{
			"bufferView":16,
			"componentType":5126,
			"count":5510,
			"max":[
				1.4183512926101685,
				-0.0026998519897460938,
				0.5000005960464478
			],
			"min":[
				-1.4183512926101685,
				-0.036087870597839355,
				-0.5000004172325134
			],
			"type":"VEC3"
		},
		{
			"bufferView":17,
			"componentType":5126,
			"count":5510,
			"type":"VEC3"
		},
		{
			"bufferView":18,
			"componentType":5126,
			"count":5510,
			"type":"VEC2"
		},
		{
			"bufferView":19,
			"componentType":5123,
			"count":24576,
			"type":"SCALAR"
		},
		{
			"bufferView":20,
			"componentType":5126,
			"count":6868,
			"max":[
				1.4183509349822998,
				-0.0004898309707641602,
				0.5000008344650269
			],
			"min":[
				-1.4183509349822998,
				-0.030886411666870117,
				-0.5000001192092896
			],
			"type":"VEC3"
		},
		{
			"bufferView":21,
			"componentType":5126,
			"count":6868,
			"type":"VEC3"
		},
		{
			"bufferView":22,
			"componentType":5126,
			"count":6868,
			"type":"VEC2"
		},
		{
			"bufferView":23,
			"componentType":5123,
			"count":24576,
			"type":"SCALAR"
		},
		{
			"bufferView":24,
			"componentType":5126,
			"count":4,
			"max":[
				0.5,
				0,
				0.5
			],
			"min":[
				-0.5,
				0,
				-0.5
			],
			"type":"VEC3"
		},
		{
			"bufferView":25,
			"componentType":5126,
			"count":4,
			"type":"VEC3"
		},
		{
			"bufferView":26,
			"componentType":5126,
			"count":4,
			"type":"VEC2"
		},
		{
			"bufferView":27,
			"componentType":5123,
			"count":6,
			"type":"SCALAR"
		},
		{
			"bufferView":28,
			"componentType":5126,
			"count":577,
			"max":[
				2.8310000896453857,
				0.04999999701976776,
				1.0089999437332153
			],
			"min":[
				0,
				0.04999999701976776,
				-0.6910000443458557
			],
			"type":"VEC3"
		},
		{
			"bufferView":29,
			"componentType":5126,
			"count":577,
			"type":"VEC3"
		},
		{
			"bufferView":30,
			"componentType":5126,
			"count":577,
			"type":"VEC2"
		},
		{
			"bufferView":31,
			"componentType":5123,
			"count":1707,
			"type":"SCALAR"
		},
		{
			"bufferView":32,
			"componentType":5126,
			"count":1755,
			"max":[
				2.8310000896453857,
				0.04999999701976776,
				1.0089999437332153
			],
			"min":[
				0,
				-0.04999999701976776,
				-0.6910000443458557
			],
			"type":"VEC3"
		},
		{
			"bufferView":33,
			"componentType":5126,
			"count":1755,
			"type":"VEC3"
		},
		{
			"bufferView":34,
			"componentType":5126,
			"count":1755,
			"type":"VEC2"
		},
		{
			"bufferView":35,
			"componentType":5123,
			"count":5169,
			"type":"SCALAR"
		}
	],
	"bufferViews":[
		{
			"buffer":0,
			"byteLength":25200,
			"byteOffset":0,
			"target":34962
		},
		{
			"buffer":0,
			"byteLength":25200,
			"byteOffset":25200,
			"target":34962
		},
		{
			"buffer":0,
			"byteLength":16800,
			"byteOffset":50400,
			"target":34962
		},
		{
			"buffer":0,
			"byteLength":19800,
			"byteOffset":67200,
			"target":34963
		},
		{
			"buffer":0,
			"byteLength":77400,
			"byteOffset":87000,
			"target":34962
		},
		{
			"buffer":0,
			"byteLength":77400,
			"byteOffset":164400,
			"target":34962
		},
		{
			"buffer":0,
			"byteLength":51600,
			"byteOffset":241800,
			"target":34962
		},
		{
			"buffer":0,
			"byteLength":72888,
			"byteOffset":293400,
			"target":34963
		},
		{
			"buffer":0,
			"byteLength":1800,
			"byteOffset":366288,
			"target":34962
		},
		{
			"buffer":0,
			"byteLength":1800,
			"byteOffset":368088,
			"target":34962
		},
		{
			"buffer":0,
			"byteLength":1200,
			"byteOffset":369888,
			"target":34962
		},
		{
			"buffer":0,
			"byteLength":888,
			"byteOffset":371088,
			"target":34963
		},
		{
			"buffer":0,
			"byteLength":11388,
			"byteOffset":371976,
			"target":34962
		},
		{
			"buffer":0,
			"byteLength":11388,
			"byteOffset":383364,
			"target":34962
		},
		{
			"buffer":0,
			"byteLength":7592,
			"byteOffset":394752,
			"target":34962
		},
		{
			"buffer":0,
			"byteLength":8976,
			"byteOffset":402344,
			"target":34963
		},
		{
			"buffer":0,
			"byteLength":66120,
			"byteOffset":411320,
			"target":34962
		},
		{
			"buffer":0,
			"byteLength":66120,
			"byteOffset":477440,
			"target":34962
		},
		{
			"buffer":0,
			"byteLength":44080,
			"byteOffset":543560,
			"target":34962
		},
		{
			"buffer":0,
			"byteLength":49152,
			"byteOffset":587640,
			"target":34963
		},
		{
			"buffer":0,
			"byteLength":82416,
			"byteOffset":636792,
			"target":34962
		},
		{
			"buffer":0,
			"byteLength":82416,
			"byteOffset":719208,
			"target":34962
		},
		{
			"buffer":0,
			"byteLength":54944,
			"byteOffset":801624,
			"target":34962
		},
		{
			"buffer":0,
			"byteLength":49152,
			"byteOffset":856568,
			"target":34963
		},
		{
			"buffer":0,
			"byteLength":48,
			"byteOffset":905720,
			"target":34962
		},
		{
			"buffer":0,
			"byteLength":48,
			"byteOffset":905768,
			"target":34962
		},
		{
			"buffer":0,
			"byteLength":32,
			"byteOffset":905816,
			"target":34962
		},
		{
			"buffer":0,
			"byteLength":12,
			"byteOffset":905848,
			"target":34963
		},
		{
			"buffer":0,
			"byteLength":6924,
			"byteOffset":905860,
			"target":34962
		},
		{
			"buffer":0,
			"byteLength":6924,
			"byteOffset":912784,
			"target":34962
		},
		{
			"buffer":0,
			"byteLength":4616,
			"byteOffset":919708,
			"target":34962
		},
		{
			"buffer":0,
			"byteLength":3414,
			"byteOffset":924324,
			"target":34963
		},
		{
			"buffer":0,
			"byteLength":21060,
			"byteOffset":927740,
			"target":34962
		},
		{
			"buffer":0,
			"byteLength":21060,
			"byteOffset":948800,
			"target":34962
		},
		{
			"buffer":0,
			"byteLength":14040,
			"byteOffset":969860,
			"target":34962
		},
		{
			"buffer":0,
			"byteLength":10338,
			"byteOffset":983900,
			"target":34963
		}
	],
	"samplers":[
		{
			"magFilter":9729,
			"minFilter":9987
		},
		{
			"magFilter":9729,
			"minFilter":9987,
			"wrapS":33071,
			"wrapT":33071
		}
	],
	"buffers":[
		{
			"byteLength":994240,
			"uri":"Aqua%20Base.bin"
		}
	]
}
