{
	"asset":{
		"generator":"Khronos glTF Blender I/O v3.6.27",
		"version":"2.0"
	},
	"extensionsUsed":[
		"KHR_materials_transmission",
		"KHR_materials_ior"
	],
	"scene":0,
	"scenes":[
		{
			"name":"Scene",
			"nodes":[
				0,
				1,
				2,
				3,
				4,
				5
			]
		}
	],
	"nodes":[
		{
			"mesh":0,
			"name":"waterproof-01 - Copy",
			"scale":[
				0.21698012948036194,
				0.21698012948036194,
				0.21698011457920074
			],
			"translation":[
				0,
				0.6674331426620483,
				0.5389150381088257
			]
		},
		{
			"mesh":1,
			"name":"mousse-01 - Copy",
			"scale":[
				0.209422767162323,
				0.209422767162323,
				0.209422767162323
			],
			"translation":[
				0,
				0.6581066250801086,
				0.3221229910850525
			]
		},
		{
			"mesh":2,
			"name":"Cylinder.006",
			"scale":[
				1,
				0.1262284517288208,
				1
			],
			"translation":[
				0,
				0.05684295669198036,
				0
			]
		},
		{
			"mesh":3,
			"name":"Cylinder.005",
			"rotation":[
				4.084246938873548e-06,
				5.399224755819887e-05,
				4.019326297566295e-05,
				1
			],
			"scale":[
				0.9884252548217773,
				0.0938265472650528,
				0.9884252548217773
			],
			"translation":[
				-2.1437861505546607e-05,
				0.09640979766845703,
				0.002524202922359109
			]
		},
		{
			"mesh":4,
			"name":"Cylinder.004",
			"rotation":[
				4.084246938873548e-06,
				5.3992251196177676e-05,
				4.019326297566295e-05,
				1
			],
			"scale":[
				1,
				0.09492528438568115,
				1
			],
			"translation":[
				-2.1437861505546607e-05,
				0.09640979766845703,
				0.002524202922359109
			]
		},
		{
			"mesh":5,
			"name":"CREAM PUFF-01 - Copy",
			"scale":[
				0.6860029101371765,
				0.6860029101371765,
				0.6860029101371765
			],
			"translation":[
				0,
				0.6647409796714783,
				-0.19982098042964935
			]
		}
	],
	"materials":[
		{
			"alphaMode":"BLEND",
			"doubleSided":true,
			"name":"waterproof-01 - Copy",
			"pbrMetallicRoughness":{
				"baseColorTexture":{
					"index":0
				},
				"metallicFactor":0,
				"roughnessFactor":0.5
			}
		},
		{
			"alphaMode":"BLEND",
			"doubleSided":true,
			"name":"mousse-01 - Copy",
			"pbrMetallicRoughness":{
				"baseColorTexture":{
					"index":1
				},
				"metallicFactor":0,
				"roughnessFactor":0.5
			}
		},
		{
			"doubleSided":true,
			"name":"Material.002",
			"pbrMetallicRoughness":{
				"baseColorTexture":{
					"index":2
				},
				"metallicFactor":0,
				"roughnessFactor":0
			}
		},
		{
			"doubleSided":true,
			"name":"Procedural Simple Cloth.004",
			"pbrMetallicRoughness":{
				"baseColorTexture":{
					"index":3
				},
				"metallicFactor":0
			}
		},
		{
			"doubleSided":true,
			"extensions":{
				"KHR_materials_transmission":{
					"transmissionFactor":0.800000011920929
				},
				"KHR_materials_ior":{
					"ior":1.4500000476837158
				}
			},
			"name":"Material.006",
			"pbrMetallicRoughness":{
				"baseColorFactor":[
					0.800000011920929,
					0.800000011920929,
					0.800000011920929,
					1
				],
				"metallicFactor":0,
				"roughnessFactor":0.05000000074505806
			}
		},
		{
			"alphaMode":"BLEND",
			"doubleSided":true,
			"name":"CREAM PUFF-01 - Copy",
			"pbrMetallicRoughness":{
				"baseColorTexture":{
					"index":4
				},
				"metallicFactor":0,
				"roughnessFactor":0.5
			}
		}
	],
	"meshes":[
		{
			"name":"waterproof-01 - Copy",
			"primitives":[
				{
					"attributes":{
						"POSITION":0,
						"NORMAL":1,
						"TEXCOORD_0":2
					},
					"indices":3,
					"material":0
				}
			]
		},
		{
			"name":"mousse-01 - Copy",
			"primitives":[
				{
					"attributes":{
						"POSITION":4,
						"NORMAL":5,
						"TEXCOORD_0":6
					},
					"indices":3,
					"material":1
				}
			]
		},
		{
			"name":"Cylinder.006",
			"primitives":[
				{
					"attributes":{
						"POSITION":7,
						"NORMAL":8,
						"TEXCOORD_0":9
					},
					"indices":10,
					"material":2
				}
			]
		},
		{
			"name":"Cylinder.005",
			"primitives":[
				{
					"attributes":{
						"POSITION":11,
						"NORMAL":12,
						"TEXCOORD_0":13
					},
					"indices":14,
					"material":3
				}
			]
		},
		{
			"name":"Cylinder.004",
			"primitives":[
				{
					"attributes":{
						"POSITION":15,
						"NORMAL":16,
						"TEXCOORD_0":17
					},
					"indices":18,
					"material":4
				}
			]
		},
		{
			"name":"CREAM PUFF-01 - Copy",
			"primitives":[
				{
					"attributes":{
						"POSITION":19,
						"NORMAL":20,
						"TEXCOORD_0":21
					},
					"indices":22,
					"material":5
				}
			]
		}
	],
	"textures":[
		{
			"sampler":0,
			"source":0
		},
		{
			"sampler":0,
			"source":1
		},
		{
			"sampler":1,
			"source":2
		},
		{
			"sampler":1,
			"source":3
		},
		{
			"sampler":0,
			"source":4
		}
	],
	"images":[
		{
			"mimeType":"image/png",
			"name":"waterproof-01 - Copy",
			"uri":"textures/waterproof-01%20-%20Copy.png"
		},
		{
			"mimeType":"image/png",
			"name":"mousse-01 - Copy",
			"uri":"textures/mousse-01%20-%20Copy.png"
		},
		{
			"mimeType":"image/png",
			"name":"Black",
			"uri":"textures/Black.png"
		},
		{
			"mimeType":"image/png",
			"name":"powder",
			"uri":"textures/powder.png"
		},
		{
			"mimeType":"image/png",
			"name":"CREAM PUFF-01 - Copy",
			"uri":"textures/CREAM%20PUFF-01%20-%20Copy.png"
		}
	],
	"accessors":[
		{
			"bufferView":0,
			"componentType":5126,
			"count":16,
			"max":[
				2.2126283645629883,
				-0.48043954372406006,
				0.5990503430366516
			],
			"min":[
				-2.2775468826293945,
				-0.6545791625976562,
				-0.5
			],
			"type":"VEC3"
		},
		{
			"bufferView":1,
			"componentType":5126,
			"count":16,
			"type":"VEC3"
		},
		{
			"bufferView":2,
			"componentType":5126,
			"count":16,
			"type":"VEC2"
		},
		{
			"bufferView":3,
			"componentType":5123,
			"count":24,
			"type":"SCALAR"
		},
		{
			"bufferView":4,
			"componentType":5126,
			"count":16,
			"max":[
				1.9759331941604614,
				-0.5007540583610535,
				0.5
			],
			"min":[
				-1.9740124940872192,
				-0.6394514441490173,
				-0.5504259467124939
			],
			"type":"VEC3"
		},
		{
			"bufferView":5,
			"componentType":5126,
			"count":16,
			"type":"VEC3"
		},
		{
			"bufferView":6,
			"componentType":5126,
			"count":16,
			"type":"VEC2"
		},
		{
			"bufferView":7,
			"componentType":5126,
			"count":520,
			"max":[
				1,
				4.251738548278809,
				1
			],
			"min":[
				-1,
				1,
				-1
			],
			"type":"VEC3"
		},
		{
			"bufferView":8,
			"componentType":5126,
			"count":520,
			"type":"VEC3"
		},
		{
			"bufferView":9,
			"componentType":5126,
			"count":520,
			"type":"VEC2"
		},
		{
			"bufferView":10,
			"componentType":5123,
			"count":1524,
			"type":"SCALAR"
		},
		{
			"bufferView":11,
			"componentType":5126,
			"count":1172,
			"max":[
				0.9998219609260559,
				3.001194953918457,
				0.9998217821121216
			],
			"min":[
				-0.9998216032981873,
				-2.1764180660247803,
				-0.9998217821121216
			],
			"type":"VEC3"
		},
		{
			"bufferView":12,
			"componentType":5126,
			"count":1172,
			"type":"VEC3"
		},
		{
			"bufferView":13,
			"componentType":5126,
			"count":1172,
			"type":"VEC2"
		},
		{
			"bufferView":14,
			"componentType":5123,
			"count":3828,
			"type":"SCALAR"
		},
		{
			"bufferView":15,
			"componentType":5126,
			"count":11301,
			"max":[
				1,
				3.205806016921997,
				1
			],
			"min":[
				-1,
				-2.2519612312316895,
				-1
			],
			"type":"VEC3"
		},
		{
			"bufferView":16,
			"componentType":5126,
			"count":11301,
			"type":"VEC3"
		},
		{
			"bufferView":17,
			"componentType":5126,
			"count":11301,
			"type":"VEC2"
		},
		{
			"bufferView":18,
			"componentType":5123,
			"count":50286,
			"type":"SCALAR"
		},
		{
			"bufferView":19,
			"componentType":5126,
			"count":16,
			"max":[
				0.612368643283844,
				-0.14669090509414673,
				0.5
			],
			"min":[
				-0.612368643283844,
				-0.21354100108146667,
				-0.5
			],
			"type":"VEC3"
		},
		{
			"bufferView":20,
			"componentType":5126,
			"count":16,
			"type":"VEC3"
		},
		{
			"bufferView":21,
			"componentType":5126,
			"count":16,
			"type":"VEC2"
		},
		{
			"bufferView":22,
			"componentType":5123,
			"count":24,
			"type":"SCALAR"
		}
	],
	"bufferViews":[
		{
			"buffer":0,
			"byteLength":192,
			"byteOffset":0,
			"target":34962
		},
		{
			"buffer":0,
			"byteLength":192,
			"byteOffset":192,
			"target":34962
		},
		{
			"buffer":0,
			"byteLength":128,
			"byteOffset":384,
			"target":34962
		},
		{
			"buffer":0,
			"byteLength":48,
			"byteOffset":512,
			"target":34963
		},
		{
			"buffer":0,
			"byteLength":192,
			"byteOffset":560,
			"target":34962
		},
		{
			"buffer":0,
			"byteLength":192,
			"byteOffset":752,
			"target":34962
		},
		{
			"buffer":0,
			"byteLength":128,
			"byteOffset":944,
			"target":34962
		},
		{
			"buffer":0,
			"byteLength":6240,
			"byteOffset":1072,
			"target":34962
		},
		{
			"buffer":0,
			"byteLength":6240,
			"byteOffset":7312,
			"target":34962
		},
		{
			"buffer":0,
			"byteLength":4160,
			"byteOffset":13552,
			"target":34962
		},
		{
			"buffer":0,
			"byteLength":3048,
			"byteOffset":17712,
			"target":34963
		},
		{
			"buffer":0,
			"byteLength":14064,
			"byteOffset":20760,
			"target":34962
		},
		{
			"buffer":0,
			"byteLength":14064,
			"byteOffset":34824,
			"target":34962
		},
		{
			"buffer":0,
			"byteLength":9376,
			"byteOffset":48888,
			"target":34962
		},
		{
			"buffer":0,
			"byteLength":7656,
			"byteOffset":58264,
			"target":34963
		},
		{
			"buffer":0,
			"byteLength":135612,
			"byteOffset":65920,
			"target":34962
		},
		{
			"buffer":0,
			"byteLength":135612,
			"byteOffset":201532,
			"target":34962
		},
		{
			"buffer":0,
			"byteLength":90408,
			"byteOffset":337144,
			"target":34962
		},
		{
			"buffer":0,
			"byteLength":100572,
			"byteOffset":427552,
			"target":34963
		},
		{
			"buffer":0,
			"byteLength":192,
			"byteOffset":528124,
			"target":34962
		},
		{
			"buffer":0,
			"byteLength":192,
			"byteOffset":528316,
			"target":34962
		},
		{
			"buffer":0,
			"byteLength":128,
			"byteOffset":528508,
			"target":34962
		},
		{
			"buffer":0,
			"byteLength":48,
			"byteOffset":528636,
			"target":34963
		}
	],
	"samplers":[
		{
			"magFilter":9729,
			"minFilter":9987,
			"wrapS":33071,
			"wrapT":33071
		},
		{
			"magFilter":9729,
			"minFilter":9987
		}
	],
	"buffers":[
		{
			"byteLength":528684,
			"uri":"Matt%20Mousse2.bin"
		}
	]
}
