{
	"asset":{
		"generator":"Khronos glTF Blender I/O v3.6.27",
		"version":"2.0"
	},
	"extensionsUsed":[
		"KHR_materials_clearcoat",
		"KHR_materials_transmission",
		"KHR_materials_specular",
		"KHR_materials_ior"
	],
	"scene":0,
	"scenes":[
		{
			"name":"Scene",
			"nodes":[
				0,
				1,
				2,
				3
			]
		}
	],
	"nodes":[
		{
			"mesh":0,
			"name":"CREAM PUFF-01-01.003",
			"scale":[
				0.321733295917511,
				0.3217337131500244,
				0.3217337131500244
			],
			"translation":[
				0,
				0.11084800213575363,
				0
			]
		},
		{
			"mesh":1,
			"name":"Cylinder.015",
			"scale":[
				0.4082605838775635,
				0.09102217853069305,
				0.4082605838775635
			]
		},
		{
			"mesh":2,
			"name":"Cylinder.016",
			"scale":[
				0.4082610011100769,
				0.09102217853069305,
				0.4082605838775635
			]
		},
		{
			"mesh":3,
			"name":"Cylinder.017",
			"scale":[
				0.4082605838775635,
				0.09102217853069305,
				0.4082605838775635
			]
		}
	],
	"materials":[
		{
			"alphaMode":"BLEND",
			"doubleSided":true,
			"name":"CREAM PUFF-01-01",
			"pbrMetallicRoughness":{
				"baseColorTexture":{
					"index":0
				},
				"metallicFactor":0,
				"roughnessFactor":0.5
			}
		},
		{
			"alphaMode":"BLEND",
			"extensions":{
				"KHR_materials_clearcoat":{
					"clearcoatFactor":1,
					"clearcoatRoughnessFactor":0.029999999329447746
				},
				"KHR_materials_transmission":{
					"transmissionFactor":1
				},
				"KHR_materials_specular":{
					"specularColorFactor":[
						1,
						1,
						1
					]
				},
				"KHR_materials_ior":{
					"ior":1000
				}
			},
			"name":"AR/VR Glass for GLTF extension",
			"pbrMetallicRoughness":{
				"baseColorFactor":[
					0.800000011920929,
					0.800000011920929,
					0.800000011920929,
					0.4000000059604645
				],
				"metallicFactor":0.23636363446712494,
				"roughnessFactor":0.10000000149011612
			}
		},
		{
			"doubleSided":true,
			"name":"Material.004",
			"pbrMetallicRoughness":{
				"baseColorFactor":[
					0,
					0,
					0,
					1
				],
				"metallicFactor":0,
				"roughnessFactor":0.5
			}
		}
	],
	"meshes":[
		{
			"name":"CREAM PUFF-01-01.003",
			"primitives":[
				{
					"attributes":{
						"POSITION":0,
						"NORMAL":1,
						"TEXCOORD_0":2
					},
					"indices":3,
					"material":0
				}
			]
		},
		{
			"name":"Cylinder.015",
			"primitives":[
				{
					"attributes":{
						"POSITION":4,
						"NORMAL":5,
						"TEXCOORD_0":6
					},
					"indices":7,
					"material":1
				}
			]
		},
		{
			"name":"Cylinder.016",
			"primitives":[
				{
					"attributes":{
						"POSITION":8,
						"NORMAL":9,
						"TEXCOORD_0":10
					},
					"indices":11,
					"material":1
				}
			]
		},
		{
			"name":"Cylinder.017",
			"primitives":[
				{
					"attributes":{
						"POSITION":12,
						"NORMAL":13,
						"TEXCOORD_0":14,
						"TEXCOORD_1":15
					},
					"indices":16,
					"material":2
				}
			]
		}
	],
	"textures":[
		{
			"sampler":0,
			"source":0
		}
	],
	"images":[
		{
			"mimeType":"image/png",
			"name":"CREAM PUFF-01",
			"uri":"textures/CREAM%20PUFF-01.png"
		}
	],
	"accessors":[
		{
			"bufferView":0,
			"componentType":5126,
			"count":4,
			"max":[
				0.612368643283844,
				0,
				0.5
			],
			"min":[
				-0.612368643283844,
				0,
				-0.5
			],
			"type":"VEC3"
		},
		{
			"bufferView":1,
			"componentType":5126,
			"count":4,
			"type":"VEC3"
		},
		{
			"bufferView":2,
			"componentType":5126,
			"count":4,
			"type":"VEC2"
		},
		{
			"bufferView":3,
			"componentType":5123,
			"count":6,
			"type":"SCALAR"
		},
		{
			"bufferView":4,
			"componentType":5126,
			"count":3265,
			"max":[
				1.0371419191360474,
				0.8880367279052734,
				1.0371419191360474
			],
			"min":[
				-1.0371419191360474,
				-1,
				-1.0371419191360474
			],
			"type":"VEC3"
		},
		{
			"bufferView":5,
			"componentType":5126,
			"count":3265,
			"type":"VEC3"
		},
		{
			"bufferView":6,
			"componentType":5126,
			"count":3265,
			"type":"VEC2"
		},
		{
			"bufferView":7,
			"componentType":5123,
			"count":14970,
			"type":"SCALAR"
		},
		{
			"bufferView":8,
			"componentType":5126,
			"count":1040,
			"max":[
				1.0371419191360474,
				1.2166430950164795,
				1.0371419191360474
			],
			"min":[
				-1.0371419191360474,
				-0.03913155198097229,
				-1.0371419191360474
			],
			"type":"VEC3"
		},
		{
			"bufferView":9,
			"componentType":5126,
			"count":1040,
			"type":"VEC3"
		},
		{
			"bufferView":10,
			"componentType":5126,
			"count":1040,
			"type":"VEC2"
		},
		{
			"bufferView":11,
			"componentType":5123,
			"count":3450,
			"type":"SCALAR"
		},
		{
			"bufferView":12,
			"componentType":5126,
			"count":1304,
			"max":[
				0.9857509136199951,
				0.8880367279052734,
				0.9857509136199951
			],
			"min":[
				-0.9857509136199951,
				-0.928711473941803,
				-0.9857509136199951
			],
			"type":"VEC3"
		},
		{
			"bufferView":13,
			"componentType":5126,
			"count":1304,
			"type":"VEC3"
		},
		{
			"bufferView":14,
			"componentType":5126,
			"count":1304,
			"type":"VEC2"
		},
		{
			"bufferView":15,
			"componentType":5126,
			"count":1304,
			"type":"VEC2"
		},
		{
			"bufferView":16,
			"componentType":5123,
			"count":3828,
			"type":"SCALAR"
		}
	],
	"bufferViews":[
		{
			"buffer":0,
			"byteLength":48,
			"byteOffset":0,
			"target":34962
		},
		{
			"buffer":0,
			"byteLength":48,
			"byteOffset":48,
			"target":34962
		},
		{
			"buffer":0,
			"byteLength":32,
			"byteOffset":96,
			"target":34962
		},
		{
			"buffer":0,
			"byteLength":12,
			"byteOffset":128,
			"target":34963
		},
		{
			"buffer":0,
			"byteLength":39180,
			"byteOffset":140,
			"target":34962
		},
		{
			"buffer":0,
			"byteLength":39180,
			"byteOffset":39320,
			"target":34962
		},
		{
			"buffer":0,
			"byteLength":26120,
			"byteOffset":78500,
			"target":34962
		},
		{
			"buffer":0,
			"byteLength":29940,
			"byteOffset":104620,
			"target":34963
		},
		{
			"buffer":0,
			"byteLength":12480,
			"byteOffset":134560,
			"target":34962
		},
		{
			"buffer":0,
			"byteLength":12480,
			"byteOffset":147040,
			"target":34962
		},
		{
			"buffer":0,
			"byteLength":8320,
			"byteOffset":159520,
			"target":34962
		},
		{
			"buffer":0,
			"byteLength":6900,
			"byteOffset":167840,
			"target":34963
		},
		{
			"buffer":0,
			"byteLength":15648,
			"byteOffset":174740,
			"target":34962
		},
		{
			"buffer":0,
			"byteLength":15648,
			"byteOffset":190388,
			"target":34962
		},
		{
			"buffer":0,
			"byteLength":10432,
			"byteOffset":206036,
			"target":34962
		},
		{
			"buffer":0,
			"byteLength":10432,
			"byteOffset":216468,
			"target":34962
		},
		{
			"buffer":0,
			"byteLength":7656,
			"byteOffset":226900,
			"target":34963
		}
	],
	"samplers":[
		{
			"magFilter":9729,
			"minFilter":9987,
			"wrapS":33071,
			"wrapT":33071
		}
	],
	"buffers":[
		{
			"byteLength":234556,
			"uri":"Cake%20eyeliner.bin"
		}
	]
}
