{
	"asset":{
		"generator":"Khronos glTF Blender I/O v3.6.27",
		"version":"2.0"
	},
	"extensionsUsed":[
		"KHR_materials_clearcoat",
		"KHR_materials_transmission",
		"KHR_materials_specular",
		"KHR_materials_ior"
	],
	"scene":0,
	"scenes":[
		{
			"name":"Scene",
			"nodes":[
				0,
				1,
				2,
				3,
				4,
				5
			]
		}
	],
	"nodes":[
		{
			"mesh":0,
			"name":"CREAM PUFF-01.004",
			"scale":[
				0.418626993894577,
				0.4186265766620636,
				0.4186265766620636
			],
			"translation":[
				0.01277969405055046,
				0.28882598876953125,
				-0.01007668673992157
			]
		},
		{
			"mesh":1,
			"name":"Cylinder.013",
			"translation":[
				5.1761790018645115e-06,
				0.13735437393188477,
				-3.2875220767891733e-06
			]
		},
		{
			"mesh":2,
			"name":"Cylinder.014",
			"translation":[
				0.002212176565080881,
				0.2883966565132141,
				-0.013211067765951157
			]
		},
		{
			"mesh":3,
			"name":"Cylinder.015",
			"translation":[
				0,
				0.25415462255477905,
				0
			]
		},
		{
			"mesh":4,
			"name":"Cylinder.001",
			"translation":[
				0.002212181920185685,
				0.16471683979034424,
				-0.013211069628596306
			]
		},
		{
			"mesh":5,
			"name":"two way cake BACK STICKER-12",
			"rotation":[
				0,
				0,
				1,
				1.6292068494294654e-07
			],
			"scale":[
				1.9534823894500732,
				1.9534823894500732,
				1.9534823894500732
			],
			"translation":[
				0,
				-0.011864198371767998,
				0
			]
		}
	],
	"materials":[
		{
			"alphaMode":"BLEND",
			"doubleSided":true,
			"name":"CREAM PUFF-01",
			"pbrMetallicRoughness":{
				"baseColorTexture":{
					"index":0
				},
				"metallicFactor":0,
				"roughnessFactor":0.5
			}
		},
		{
			"doubleSided":true,
			"name":"Material.003",
			"pbrMetallicRoughness":{
				"baseColorTexture":{
					"index":1
				},
				"metallicFactor":0,
				"roughnessFactor":0.16238367557525635
			}
		},
		{
			"alphaMode":"BLEND",
			"extensions":{
				"KHR_materials_clearcoat":{
					"clearcoatFactor":1,
					"clearcoatRoughnessFactor":0.029999999329447746
				},
				"KHR_materials_transmission":{
					"transmissionFactor":1
				},
				"KHR_materials_specular":{
					"specularColorFactor":[
						1,
						1,
						1
					]
				},
				"KHR_materials_ior":{
					"ior":1000
				}
			},
			"name":"AR/VR Glass for GLTF extension",
			"pbrMetallicRoughness":{
				"baseColorFactor":[
					0.800000011920929,
					0.800000011920929,
					0.800000011920929,
					0.4000000059604645
				],
				"metallicFactor":0.23636363446712494,
				"roughnessFactor":0.10000000149011612
			}
		},
		{
			"doubleSided":true,
			"name":"Procedural Simple Cloth.004",
			"pbrMetallicRoughness":{
				"baseColorTexture":{
					"index":2,
					"texCoord":1
				},
				"metallicFactor":0
			}
		},
		{
			"doubleSided":true,
			"name":"Material.005",
			"pbrMetallicRoughness":{
				"baseColorFactor":[
					0.6020767092704773,
					0.3987875282764435,
					0.040077704936265945,
					1
				],
				"roughnessFactor":0
			}
		},
		{
			"alphaMode":"BLEND",
			"doubleSided":true,
			"name":"two way cake BACK STICKER-12",
			"pbrMetallicRoughness":{
				"baseColorTexture":{
					"index":3
				},
				"metallicFactor":0,
				"roughnessFactor":0.5
			}
		}
	],
	"meshes":[
		{
			"name":"CREAM PUFF-01.004",
			"primitives":[
				{
					"attributes":{
						"POSITION":0,
						"NORMAL":1,
						"TEXCOORD_0":2
					},
					"indices":3,
					"material":0
				}
			]
		},
		{
			"name":"Cylinder.007",
			"primitives":[
				{
					"attributes":{
						"POSITION":4,
						"NORMAL":5,
						"TEXCOORD_0":6
					},
					"indices":7,
					"material":1
				}
			]
		},
		{
			"name":"Cylinder.008",
			"primitives":[
				{
					"attributes":{
						"POSITION":8,
						"NORMAL":9,
						"TEXCOORD_0":10,
						"TEXCOORD_1":11
					},
					"indices":12,
					"material":2
				}
			]
		},
		{
			"name":"Cylinder.009",
			"primitives":[
				{
					"attributes":{
						"POSITION":13,
						"NORMAL":14,
						"TEXCOORD_0":15,
						"TEXCOORD_1":16
					},
					"indices":17,
					"material":3
				}
			]
		},
		{
			"name":"Cylinder.010",
			"primitives":[
				{
					"attributes":{
						"POSITION":18,
						"NORMAL":19,
						"TEXCOORD_0":20,
						"TEXCOORD_1":21
					},
					"indices":22,
					"material":4
				}
			]
		},
		{
			"name":"two way cake BACK STICKER-12",
			"primitives":[
				{
					"attributes":{
						"POSITION":23,
						"NORMAL":24,
						"TEXCOORD_0":25
					},
					"indices":3,
					"material":5
				}
			]
		}
	],
	"textures":[
		{
			"sampler":0,
			"source":0
		},
		{
			"sampler":1,
			"source":1
		},
		{
			"sampler":1,
			"source":2
		},
		{
			"sampler":0,
			"source":3
		}
	],
	"images":[
		{
			"mimeType":"image/png",
			"name":"CREAM PUFF-01-01 - Copy",
			"uri":"textures/CREAM%20PUFF-01-01%20-%20Copy.png"
		},
		{
			"mimeType":"image/png",
			"name":"black",
			"uri":"textures/black.png"
		},
		{
			"mimeType":"image/png",
			"name":"powder",
			"uri":"textures/powder.png"
		},
		{
			"mimeType":"image/png",
			"name":"two way cake BACK STICKER-12",
			"uri":"textures/two%20way%20cake%20BACK%20STICKER-12.png"
		}
	],
	"accessors":[
		{
			"bufferView":0,
			"componentType":5126,
			"count":4,
			"max":[
				0.612368643283844,
				0,
				0.5
			],
			"min":[
				-0.612368643283844,
				0,
				-0.5
			],
			"type":"VEC3"
		},
		{
			"bufferView":1,
			"componentType":5126,
			"count":4,
			"type":"VEC3"
		},
		{
			"bufferView":2,
			"componentType":5126,
			"count":4,
			"type":"VEC2"
		},
		{
			"bufferView":3,
			"componentType":5123,
			"count":6,
			"type":"SCALAR"
		},
		{
			"bufferView":4,
			"componentType":5126,
			"count":3372,
			"max":[
				1.0289862155914307,
				0.13634884357452393,
				1.0289946794509888
			],
			"min":[
				-1.028996467590332,
				-0.15215438604354858,
				-1.028988003730774
			],
			"type":"VEC3"
		},
		{
			"bufferView":5,
			"componentType":5126,
			"count":3372,
			"type":"VEC3"
		},
		{
			"bufferView":6,
			"componentType":5126,
			"count":3372,
			"type":"VEC2"
		},
		{
			"bufferView":7,
			"componentType":5123,
			"count":13434,
			"type":"SCALAR"
		},
		{
			"bufferView":8,
			"componentType":5126,
			"count":128,
			"max":[
				1,
				7.748603820800781e-07,
				1
			],
			"min":[
				-1,
				7.748603820800781e-07,
				-1
			],
			"type":"VEC3"
		},
		{
			"bufferView":9,
			"componentType":5126,
			"count":128,
			"type":"VEC3"
		},
		{
			"bufferView":10,
			"componentType":5126,
			"count":128,
			"type":"VEC2"
		},
		{
			"bufferView":11,
			"componentType":5126,
			"count":128,
			"type":"VEC2"
		},
		{
			"bufferView":12,
			"componentType":5123,
			"count":378,
			"type":"SCALAR"
		},
		{
			"bufferView":13,
			"componentType":5126,
			"count":128,
			"max":[
				0.9340075850486755,
				5.960464477539062e-07,
				0.9340076446533203
			],
			"min":[
				-0.9340077042579651,
				5.960464477539062e-07,
				-0.9340076446533203
			],
			"type":"VEC3"
		},
		{
			"bufferView":14,
			"componentType":5126,
			"count":128,
			"type":"VEC3"
		},
		{
			"bufferView":15,
			"componentType":5126,
			"count":128,
			"type":"VEC2"
		},
		{
			"bufferView":16,
			"componentType":5126,
			"count":128,
			"type":"VEC2"
		},
		{
			"bufferView":17,
			"componentType":5123,
			"count":378,
			"type":"SCALAR"
		},
		{
			"bufferView":18,
			"componentType":5126,
			"count":364,
			"max":[
				1,
				0.12368059158325195,
				1
			],
			"min":[
				-1,
				-0.12367779016494751,
				-1
			],
			"type":"VEC3"
		},
		{
			"bufferView":19,
			"componentType":5126,
			"count":364,
			"type":"VEC3"
		},
		{
			"bufferView":20,
			"componentType":5126,
			"count":364,
			"type":"VEC2"
		},
		{
			"bufferView":21,
			"componentType":5126,
			"count":364,
			"type":"VEC2"
		},
		{
			"bufferView":22,
			"componentType":5123,
			"count":768,
			"type":"SCALAR"
		},
		{
			"bufferView":23,
			"componentType":5126,
			"count":4,
			"max":[
				0.49988144636154175,
				0,
				0.5
			],
			"min":[
				-0.49988144636154175,
				0,
				-0.5
			],
			"type":"VEC3"
		},
		{
			"bufferView":24,
			"componentType":5126,
			"count":4,
			"type":"VEC3"
		},
		{
			"bufferView":25,
			"componentType":5126,
			"count":4,
			"type":"VEC2"
		}
	],
	"bufferViews":[
		{
			"buffer":0,
			"byteLength":48,
			"byteOffset":0,
			"target":34962
		},
		{
			"buffer":0,
			"byteLength":48,
			"byteOffset":48,
			"target":34962
		},
		{
			"buffer":0,
			"byteLength":32,
			"byteOffset":96,
			"target":34962
		},
		{
			"buffer":0,
			"byteLength":12,
			"byteOffset":128,
			"target":34963
		},
		{
			"buffer":0,
			"byteLength":40464,
			"byteOffset":140,
			"target":34962
		},
		{
			"buffer":0,
			"byteLength":40464,
			"byteOffset":40604,
			"target":34962
		},
		{
			"buffer":0,
			"byteLength":26976,
			"byteOffset":81068,
			"target":34962
		},
		{
			"buffer":0,
			"byteLength":26868,
			"byteOffset":108044,
			"target":34963
		},
		{
			"buffer":0,
			"byteLength":1536,
			"byteOffset":134912,
			"target":34962
		},
		{
			"buffer":0,
			"byteLength":1536,
			"byteOffset":136448,
			"target":34962
		},
		{
			"buffer":0,
			"byteLength":1024,
			"byteOffset":137984,
			"target":34962
		},
		{
			"buffer":0,
			"byteLength":1024,
			"byteOffset":139008,
			"target":34962
		},
		{
			"buffer":0,
			"byteLength":756,
			"byteOffset":140032,
			"target":34963
		},
		{
			"buffer":0,
			"byteLength":1536,
			"byteOffset":140788,
			"target":34962
		},
		{
			"buffer":0,
			"byteLength":1536,
			"byteOffset":142324,
			"target":34962
		},
		{
			"buffer":0,
			"byteLength":1024,
			"byteOffset":143860,
			"target":34962
		},
		{
			"buffer":0,
			"byteLength":1024,
			"byteOffset":144884,
			"target":34962
		},
		{
			"buffer":0,
			"byteLength":756,
			"byteOffset":145908,
			"target":34963
		},
		{
			"buffer":0,
			"byteLength":4368,
			"byteOffset":146664,
			"target":34962
		},
		{
			"buffer":0,
			"byteLength":4368,
			"byteOffset":151032,
			"target":34962
		},
		{
			"buffer":0,
			"byteLength":2912,
			"byteOffset":155400,
			"target":34962
		},
		{
			"buffer":0,
			"byteLength":2912,
			"byteOffset":158312,
			"target":34962
		},
		{
			"buffer":0,
			"byteLength":1536,
			"byteOffset":161224,
			"target":34963
		},
		{
			"buffer":0,
			"byteLength":48,
			"byteOffset":162760,
			"target":34962
		},
		{
			"buffer":0,
			"byteLength":48,
			"byteOffset":162808,
			"target":34962
		},
		{
			"buffer":0,
			"byteLength":32,
			"byteOffset":162856,
			"target":34962
		}
	],
	"samplers":[
		{
			"magFilter":9729,
			"minFilter":9987,
			"wrapS":33071,
			"wrapT":33071
		},
		{
			"magFilter":9729,
			"minFilter":9987
		}
	],
	"buffers":[
		{
			"byteLength":162888,
			"uri":"Two%20way%20cake.bin"
		}
	]
}
