{
	"asset":{
		"generator":"Khronos glTF Blender I/O v3.6.27",
		"version":"2.0"
	},
	"extensionsUsed":[
		"KHR_materials_transmission",
		"KHR_materials_ior"
	],
	"scene":0,
	"scenes":[
		{
			"name":"Scene",
			"nodes":[
				0,
				1,
				2,
				3,
				4
			]
		}
	],
	"nodes":[
		{
			"mesh":0,
			"name":"Cylinder.013",
			"scale":[
				1,
				0.42933571338653564,
				1
			]
		},
		{
			"mesh":1,
			"name":"Cylinder.014",
			"scale":[
				1,
				0.30816468596458435,
				1
			],
			"translation":[
				0,
				-0.011219576001167297,
				0
			]
		},
		{
			"mesh":2,
			"name":"Cylinder.015",
			"scale":[
				1,
				0.42933571338653564,
				1
			]
		},
		{
			"mesh":3,
			"name":"Cylinder.016",
			"scale":[
				0.9830743074417114,
				0.42206886410713196,
				0.9830743074417114
			]
		},
		{
			"mesh":4,
			"name":"Cylinder.017",
			"rotation":[
				0.0015485192416235805,
				-1.0015643965743948e-05,
				-0.0022627159487456083,
				0.9999962449073792
			],
			"scale":[
				1,
				0.42933571338653564,
				1
			],
			"translation":[
				-0.0016977846389636397,
				-0.11341464519500732,
				-0.0050829024985432625
			]
		}
	],
	"materials":[
		{
			"doubleSided":true,
			"extensions":{
				"KHR_materials_transmission":{
					"transmissionFactor":0.800000011920929
				},
				"KHR_materials_ior":{
					"ior":1.4500000476837158
				}
			},
			"name":"Material.009",
			"pbrMetallicRoughness":{
				"baseColorFactor":[
					0.800000011920929,
					0.800000011920929,
					0.800000011920929,
					1
				],
				"metallicFactor":0,
				"roughnessFactor":0.05000000074505806
			}
		},
		{
			"doubleSided":true,
			"name":"Material.006",
			"pbrMetallicRoughness":{
				"baseColorFactor":[
					1,
					0.3662518858909607,
					0.9822503924369812,
					1
				],
				"metallicFactor":0,
				"roughnessFactor":0.09842520952224731
			}
		},
		{
			"doubleSided":true,
			"name":"Material.001",
			"pbrMetallicRoughness":{
				"baseColorFactor":[
					0.800000011920929,
					0.800000011920929,
					0.800000011920929,
					1
				],
				"metallicFactor":0,
				"roughnessFactor":0
			}
		},
		{
			"doubleSided":true,
			"name":"Procedural Simple Cloth.001",
			"pbrMetallicRoughness":{
				"baseColorTexture":{
					"index":0
				},
				"metallicFactor":0
			}
		},
		{
			"doubleSided":true,
			"name":"Material.005",
			"pbrMetallicRoughness":{
				"baseColorFactor":[
					1,
					0.3662518858909607,
					0.9822503924369812,
					1
				],
				"metallicFactor":0,
				"roughnessFactor":0.09842520952224731
			}
		},
		{
			"alphaMode":"BLEND",
			"doubleSided":true,
			"name":"CREAM PUFF-01 - Copy",
			"pbrMetallicRoughness":{
				"baseColorTexture":{
					"index":1
				},
				"metallicFactor":0,
				"roughnessFactor":0.5
			}
		},
		{
			"doubleSided":true,
			"name":"Material.003",
			"pbrMetallicRoughness":{}
		}
	],
	"meshes":[
		{
			"name":"Cylinder.015",
			"primitives":[
				{
					"attributes":{
						"POSITION":0,
						"NORMAL":1,
						"TEXCOORD_0":2,
						"TEXCOORD_1":3
					},
					"indices":4,
					"material":0
				}
			]
		},
		{
			"name":"Cylinder.016",
			"primitives":[
				{
					"attributes":{
						"POSITION":5,
						"NORMAL":6,
						"TEXCOORD_0":7
					},
					"indices":8,
					"material":1
				}
			]
		},
		{
			"name":"Cylinder.017",
			"primitives":[
				{
					"attributes":{
						"POSITION":9,
						"NORMAL":10,
						"TEXCOORD_0":11
					},
					"indices":12,
					"material":2
				}
			]
		},
		{
			"name":"Cylinder.018",
			"primitives":[
				{
					"attributes":{
						"POSITION":13,
						"NORMAL":14,
						"TEXCOORD_0":15
					},
					"indices":16,
					"material":3
				}
			]
		},
		{
			"name":"Cylinder.019",
			"primitives":[
				{
					"attributes":{
						"POSITION":17,
						"NORMAL":18,
						"TEXCOORD_0":19
					},
					"indices":20,
					"material":4
				},
				{
					"attributes":{
						"POSITION":21,
						"NORMAL":22,
						"TEXCOORD_0":23
					},
					"indices":24,
					"material":5
				},
				{
					"attributes":{
						"POSITION":25,
						"NORMAL":26,
						"TEXCOORD_0":27
					},
					"indices":28,
					"material":6
				}
			]
		}
	],
	"textures":[
		{
			"sampler":0,
			"source":0
		},
		{
			"sampler":1,
			"source":1
		}
	],
	"images":[
		{
			"mimeType":"image/png",
			"name":"powder",
			"uri":"textures/powder.png"
		},
		{
			"mimeType":"image/png",
			"name":"CREAM PUFF-01 - Copy",
			"uri":"textures/CREAM%20PUFF-01%20-%20Copy.png"
		}
	],
	"accessors":[
		{
			"bufferView":0,
			"componentType":5126,
			"count":20493,
			"max":[
				1.0569703578948975,
				0.5365087985992432,
				1.0569703578948975
			],
			"min":[
				-1.0569703578948975,
				-1.0821099281311035,
				-1.0569703578948975
			],
			"type":"VEC3"
		},
		{
			"bufferView":1,
			"componentType":5126,
			"count":20493,
			"type":"VEC3"
		},
		{
			"bufferView":2,
			"componentType":5126,
			"count":20493,
			"type":"VEC2"
		},
		{
			"bufferView":3,
			"componentType":5126,
			"count":20493,
			"type":"VEC2"
		},
		{
			"bufferView":4,
			"componentType":5123,
			"count":107322,
			"type":"SCALAR"
		},
		{
			"bufferView":5,
			"componentType":5126,
			"count":2466,
			"max":[
				1,
				1.055936574935913,
				1
			],
			"min":[
				-1,
				0,
				-1
			],
			"type":"VEC3"
		},
		{
			"bufferView":6,
			"componentType":5126,
			"count":2466,
			"type":"VEC3"
		},
		{
			"bufferView":7,
			"componentType":5126,
			"count":2466,
			"type":"VEC2"
		},
		{
			"bufferView":8,
			"componentType":5123,
			"count":11355,
			"type":"SCALAR"
		},
		{
			"bufferView":9,
			"componentType":5126,
			"count":1135,
			"max":[
				0.9042185544967651,
				0.5478538870811462,
				0.9042185544967651
			],
			"min":[
				-0.9042185544967651,
				0.06632523238658905,
				-0.9042185544967651
			],
			"type":"VEC3"
		},
		{
			"bufferView":10,
			"componentType":5126,
			"count":1135,
			"type":"VEC3"
		},
		{
			"bufferView":11,
			"componentType":5126,
			"count":1135,
			"type":"VEC2"
		},
		{
			"bufferView":12,
			"componentType":5123,
			"count":3057,
			"type":"SCALAR"
		},
		{
			"bufferView":13,
			"componentType":5126,
			"count":264,
			"max":[
				1,
				-0.063963383436203,
				1
			],
			"min":[
				-1,
				-0.9639022350311279,
				-1
			],
			"type":"VEC3"
		},
		{
			"bufferView":14,
			"componentType":5126,
			"count":264,
			"type":"VEC3"
		},
		{
			"bufferView":15,
			"componentType":5126,
			"count":264,
			"type":"VEC2"
		},
		{
			"bufferView":16,
			"componentType":5123,
			"count":756,
			"type":"SCALAR"
		},
		{
			"bufferView":17,
			"componentType":5126,
			"count":560,
			"max":[
				1,
				1.3158050775527954,
				1
			],
			"min":[
				-1,
				0.8877863883972168,
				-1
			],
			"type":"VEC3"
		},
		{
			"bufferView":18,
			"componentType":5126,
			"count":560,
			"type":"VEC3"
		},
		{
			"bufferView":19,
			"componentType":5126,
			"count":560,
			"type":"VEC2"
		},
		{
			"bufferView":20,
			"componentType":5123,
			"count":1665,
			"type":"SCALAR"
		},
		{
			"bufferView":21,
			"componentType":5126,
			"count":4,
			"max":[
				0.520526647567749,
				1.3161886930465698,
				0.42501091957092285
			],
			"min":[
				-0.520526647567749,
				1.3161886930465698,
				-0.42501091957092285
			],
			"type":"VEC3"
		},
		{
			"bufferView":22,
			"componentType":5126,
			"count":4,
			"type":"VEC3"
		},
		{
			"bufferView":23,
			"componentType":5126,
			"count":4,
			"type":"VEC2"
		},
		{
			"bufferView":24,
			"componentType":5123,
			"count":6,
			"type":"SCALAR"
		},
		{
			"bufferView":25,
			"componentType":5126,
			"count":64,
			"max":[
				0.9810317754745483,
				1.2170464992523193,
				0.9810317754745483
			],
			"min":[
				-0.9810317754745483,
				1.2170464992523193,
				-0.9810317754745483
			],
			"type":"VEC3"
		},
		{
			"bufferView":26,
			"componentType":5126,
			"count":64,
			"type":"VEC3"
		},
		{
			"bufferView":27,
			"componentType":5126,
			"count":64,
			"type":"VEC2"
		},
		{
			"bufferView":28,
			"componentType":5123,
			"count":186,
			"type":"SCALAR"
		}
	],
	"bufferViews":[
		{
			"buffer":0,
			"byteLength":245916,
			"byteOffset":0,
			"target":34962
		},
		{
			"buffer":0,
			"byteLength":245916,
			"byteOffset":245916,
			"target":34962
		},
		{
			"buffer":0,
			"byteLength":163944,
			"byteOffset":491832,
			"target":34962
		},
		{
			"buffer":0,
			"byteLength":163944,
			"byteOffset":655776,
			"target":34962
		},
		{
			"buffer":0,
			"byteLength":214644,
			"byteOffset":819720,
			"target":34963
		},
		{
			"buffer":0,
			"byteLength":29592,
			"byteOffset":1034364,
			"target":34962
		},
		{
			"buffer":0,
			"byteLength":29592,
			"byteOffset":1063956,
			"target":34962
		},
		{
			"buffer":0,
			"byteLength":19728,
			"byteOffset":1093548,
			"target":34962
		},
		{
			"buffer":0,
			"byteLength":22710,
			"byteOffset":1113276,
			"target":34963
		},
		{
			"buffer":0,
			"byteLength":13620,
			"byteOffset":1135988,
			"target":34962
		},
		{
			"buffer":0,
			"byteLength":13620,
			"byteOffset":1149608,
			"target":34962
		},
		{
			"buffer":0,
			"byteLength":9080,
			"byteOffset":1163228,
			"target":34962
		},
		{
			"buffer":0,
			"byteLength":6114,
			"byteOffset":1172308,
			"target":34963
		},
		{
			"buffer":0,
			"byteLength":3168,
			"byteOffset":1178424,
			"target":34962
		},
		{
			"buffer":0,
			"byteLength":3168,
			"byteOffset":1181592,
			"target":34962
		},
		{
			"buffer":0,
			"byteLength":2112,
			"byteOffset":1184760,
			"target":34962
		},
		{
			"buffer":0,
			"byteLength":1512,
			"byteOffset":1186872,
			"target":34963
		},
		{
			"buffer":0,
			"byteLength":6720,
			"byteOffset":1188384,
			"target":34962
		},
		{
			"buffer":0,
			"byteLength":6720,
			"byteOffset":1195104,
			"target":34962
		},
		{
			"buffer":0,
			"byteLength":4480,
			"byteOffset":1201824,
			"target":34962
		},
		{
			"buffer":0,
			"byteLength":3330,
			"byteOffset":1206304,
			"target":34963
		},
		{
			"buffer":0,
			"byteLength":48,
			"byteOffset":1209636,
			"target":34962
		},
		{
			"buffer":0,
			"byteLength":48,
			"byteOffset":1209684,
			"target":34962
		},
		{
			"buffer":0,
			"byteLength":32,
			"byteOffset":1209732,
			"target":34962
		},
		{
			"buffer":0,
			"byteLength":12,
			"byteOffset":1209764,
			"target":34963
		},
		{
			"buffer":0,
			"byteLength":768,
			"byteOffset":1209776,
			"target":34962
		},
		{
			"buffer":0,
			"byteLength":768,
			"byteOffset":1210544,
			"target":34962
		},
		{
			"buffer":0,
			"byteLength":512,
			"byteOffset":1211312,
			"target":34962
		},
		{
			"buffer":0,
			"byteLength":372,
			"byteOffset":1211824,
			"target":34963
		}
	],
	"samplers":[
		{
			"magFilter":9729,
			"minFilter":9987
		},
		{
			"magFilter":9729,
			"minFilter":9987,
			"wrapS":33071,
			"wrapT":33071
		}
	],
	"buffers":[
		{
			"byteLength":1212196,
			"uri":"Loose%20Powder.bin"
		}
	]
}
