{
	"asset":{
		"generator":"Khronos glTF Blender I/O v3.6.27",
		"version":"2.0"
	},
	"extensionsUsed":[
		"KHR_materials_transmission",
		"KHR_materials_ior"
	],
	"scene":0,
	"scenes":[
		{
			"name":"Scene",
			"nodes":[
				0,
				1,
				2,
				3
			]
		}
	],
	"nodes":[
		{
			"mesh":0,
			"name":"Cylinder.019",
			"scale":[
				1,
				0.42933571338653564,
				1
			]
		},
		{
			"mesh":1,
			"name":"Cylinder.020",
			"scale":[
				1,
				0.42933571338653564,
				1
			]
		},
		{
			"mesh":2,
			"name":"Cylinder.021",
			"scale":[
				1,
				0.42933571338653564,
				1
			]
		},
		{
			"mesh":3,
			"name":"Cylinder.022",
			"scale":[
				0.9830743074417114,
				0.42206886410713196,
				0.9830743074417114
			]
		}
	],
	"materials":[
		{
			"doubleSided":true,
			"extensions":{
				"KHR_materials_transmission":{
					"transmissionFactor":0.800000011920929
				},
				"KHR_materials_ior":{
					"ior":1.4500000476837158
				}
			},
			"name":"Material.009",
			"pbrMetallicRoughness":{
				"baseColorFactor":[
					0.800000011920929,
					0.800000011920929,
					0.800000011920929,
					1
				],
				"metallicFactor":0,
				"roughnessFactor":0.05000000074505806
			}
		},
		{
			"doubleSided":true,
			"name":"Material.007",
			"pbrMetallicRoughness":{
				"baseColorFactor":[
					0,
					0,
					0,
					1
				],
				"metallicFactor":0,
				"roughnessFactor":0.09842520952224731
			}
		},
		{
			"alphaMode":"BLEND",
			"doubleSided":true,
			"name":"CREAM PUFF-01 - Copy",
			"pbrMetallicRoughness":{
				"baseColorTexture":{
					"index":0
				},
				"metallicFactor":0,
				"roughnessFactor":0.5
			}
		},
		{
			"doubleSided":true,
			"name":"Material.001",
			"pbrMetallicRoughness":{
				"baseColorFactor":[
					0.800000011920929,
					0.800000011920929,
					0.800000011920929,
					1
				],
				"metallicFactor":0,
				"roughnessFactor":0
			}
		},
		{
			"doubleSided":true,
			"name":"Procedural Simple Cloth.001",
			"pbrMetallicRoughness":{
				"baseColorTexture":{
					"index":1
				},
				"metallicFactor":0
			}
		}
	],
	"meshes":[
		{
			"name":"Cylinder.022",
			"primitives":[
				{
					"attributes":{
						"POSITION":0,
						"NORMAL":1,
						"TEXCOORD_0":2,
						"TEXCOORD_1":3
					},
					"indices":4,
					"material":0
				}
			]
		},
		{
			"name":"Cylinder.023",
			"primitives":[
				{
					"attributes":{
						"POSITION":5,
						"NORMAL":6,
						"TEXCOORD_0":7
					},
					"indices":8,
					"material":1
				},
				{
					"attributes":{
						"POSITION":9,
						"NORMAL":10,
						"TEXCOORD_0":11
					},
					"indices":12,
					"material":2
				}
			]
		},
		{
			"name":"Cylinder.024",
			"primitives":[
				{
					"attributes":{
						"POSITION":13,
						"NORMAL":14,
						"TEXCOORD_0":15
					},
					"indices":16,
					"material":3
				}
			]
		},
		{
			"name":"Cylinder.025",
			"primitives":[
				{
					"attributes":{
						"POSITION":17,
						"NORMAL":18,
						"TEXCOORD_0":19
					},
					"indices":20,
					"material":4
				}
			]
		}
	],
	"textures":[
		{
			"sampler":0,
			"source":0
		},
		{
			"sampler":1,
			"source":1
		}
	],
	"images":[
		{
			"mimeType":"image/png",
			"name":"CREAM PUFF-01 - Copy",
			"uri":"textures/CREAM%20PUFF-01%20-%20Copy.png"
		},
		{
			"mimeType":"image/png",
			"name":"powder",
			"uri":"textures/powder.png"
		}
	],
	"accessors":[
		{
			"bufferView":0,
			"componentType":5126,
			"count":20493,
			"max":[
				1.0569703578948975,
				0.5365087985992432,
				1.0569703578948975
			],
			"min":[
				-1.0569703578948975,
				-1.0821099281311035,
				-1.0569703578948975
			],
			"type":"VEC3"
		},
		{
			"bufferView":1,
			"componentType":5126,
			"count":20493,
			"type":"VEC3"
		},
		{
			"bufferView":2,
			"componentType":5126,
			"count":20493,
			"type":"VEC2"
		},
		{
			"bufferView":3,
			"componentType":5126,
			"count":20493,
			"type":"VEC2"
		},
		{
			"bufferView":4,
			"componentType":5123,
			"count":107322,
			"type":"SCALAR"
		},
		{
			"bufferView":5,
			"componentType":5126,
			"count":1086,
			"max":[
				1,
				1,
				1
			],
			"min":[
				-1,
				0,
				-1
			],
			"type":"VEC3"
		},
		{
			"bufferView":6,
			"componentType":5126,
			"count":1086,
			"type":"VEC3"
		},
		{
			"bufferView":7,
			"componentType":5126,
			"count":1086,
			"type":"VEC2"
		},
		{
			"bufferView":8,
			"componentType":5123,
			"count":4410,
			"type":"SCALAR"
		},
		{
			"bufferView":9,
			"componentType":5126,
			"count":4,
			"max":[
				0.5205273032188416,
				1.001474380493164,
				0.4250050187110901
			],
			"min":[
				-0.5205257534980774,
				1.001474380493164,
				-0.42501646280288696
			],
			"type":"VEC3"
		},
		{
			"bufferView":10,
			"componentType":5126,
			"count":4,
			"type":"VEC3"
		},
		{
			"bufferView":11,
			"componentType":5126,
			"count":4,
			"type":"VEC2"
		},
		{
			"bufferView":12,
			"componentType":5123,
			"count":6,
			"type":"SCALAR"
		},
		{
			"bufferView":13,
			"componentType":5126,
			"count":1135,
			"max":[
				0.9042185544967651,
				0.5478538870811462,
				0.9042185544967651
			],
			"min":[
				-0.9042185544967651,
				0.06632523238658905,
				-0.9042185544967651
			],
			"type":"VEC3"
		},
		{
			"bufferView":14,
			"componentType":5126,
			"count":1135,
			"type":"VEC3"
		},
		{
			"bufferView":15,
			"componentType":5126,
			"count":1135,
			"type":"VEC2"
		},
		{
			"bufferView":16,
			"componentType":5123,
			"count":3057,
			"type":"SCALAR"
		},
		{
			"bufferView":17,
			"componentType":5126,
			"count":264,
			"max":[
				1,
				-0.063963383436203,
				1
			],
			"min":[
				-1,
				-0.9639022350311279,
				-1
			],
			"type":"VEC3"
		},
		{
			"bufferView":18,
			"componentType":5126,
			"count":264,
			"type":"VEC3"
		},
		{
			"bufferView":19,
			"componentType":5126,
			"count":264,
			"type":"VEC2"
		},
		{
			"bufferView":20,
			"componentType":5123,
			"count":756,
			"type":"SCALAR"
		}
	],
	"bufferViews":[
		{
			"buffer":0,
			"byteLength":245916,
			"byteOffset":0,
			"target":34962
		},
		{
			"buffer":0,
			"byteLength":245916,
			"byteOffset":245916,
			"target":34962
		},
		{
			"buffer":0,
			"byteLength":163944,
			"byteOffset":491832,
			"target":34962
		},
		{
			"buffer":0,
			"byteLength":163944,
			"byteOffset":655776,
			"target":34962
		},
		{
			"buffer":0,
			"byteLength":214644,
			"byteOffset":819720,
			"target":34963
		},
		{
			"buffer":0,
			"byteLength":13032,
			"byteOffset":1034364,
			"target":34962
		},
		{
			"buffer":0,
			"byteLength":13032,
			"byteOffset":1047396,
			"target":34962
		},
		{
			"buffer":0,
			"byteLength":8688,
			"byteOffset":1060428,
			"target":34962
		},
		{
			"buffer":0,
			"byteLength":8820,
			"byteOffset":1069116,
			"target":34963
		},
		{
			"buffer":0,
			"byteLength":48,
			"byteOffset":1077936,
			"target":34962
		},
		{
			"buffer":0,
			"byteLength":48,
			"byteOffset":1077984,
			"target":34962
		},
		{
			"buffer":0,
			"byteLength":32,
			"byteOffset":1078032,
			"target":34962
		},
		{
			"buffer":0,
			"byteLength":12,
			"byteOffset":1078064,
			"target":34963
		},
		{
			"buffer":0,
			"byteLength":13620,
			"byteOffset":1078076,
			"target":34962
		},
		{
			"buffer":0,
			"byteLength":13620,
			"byteOffset":1091696,
			"target":34962
		},
		{
			"buffer":0,
			"byteLength":9080,
			"byteOffset":1105316,
			"target":34962
		},
		{
			"buffer":0,
			"byteLength":6114,
			"byteOffset":1114396,
			"target":34963
		},
		{
			"buffer":0,
			"byteLength":3168,
			"byteOffset":1120512,
			"target":34962
		},
		{
			"buffer":0,
			"byteLength":3168,
			"byteOffset":1123680,
			"target":34962
		},
		{
			"buffer":0,
			"byteLength":2112,
			"byteOffset":1126848,
			"target":34962
		},
		{
			"buffer":0,
			"byteLength":1512,
			"byteOffset":1128960,
			"target":34963
		}
	],
	"samplers":[
		{
			"magFilter":9729,
			"minFilter":9987,
			"wrapS":33071,
			"wrapT":33071
		},
		{
			"magFilter":9729,
			"minFilter":9987
		}
	],
	"buffers":[
		{
			"byteLength":1130472,
			"uri":"loose%20powder2.bin"
		}
	]
}
