{
	"asset":{
		"generator":"Khronos glTF Blender I/O v3.6.27",
		"version":"2.0"
	},
	"extensionsUsed":[
		"KHR_materials_transmission",
		"KHR_materials_ior"
	],
	"scene":0,
	"scenes":[
		{
			"name":"Scene",
			"nodes":[
				0,
				1,
				2,
				3,
				4,
				5,
				6,
				7,
				8,
				9
			]
		}
	],
	"nodes":[
		{
			"mesh":0,
			"name":"Cylinder",
			"scale":[
				0.6705911159515381,
				0.8497207164764404,
				0.6705911159515381
			],
			"translation":[
				0,
				-0.14390946924686432,
				0
			]
		},
		{
			"mesh":1,
			"name":"Cylinder.001",
			"scale":[
				0.6600030660629272,
				0.8363043665885925,
				0.6600030660629272
			],
			"translation":[
				0,
				-0.14390946924686432,
				0
			]
		},
		{
			"mesh":2,
			"name":"Cylinder.002",
			"scale":[
				0.3584185242652893,
				0.3584185242652893,
				0.3584185242652893
			],
			"translation":[
				0.007071018218994141,
				1.0905436277389526,
				-0.008151529356837273
			]
		},
		{
			"mesh":3,
			"name":"Cylinder.003",
			"scale":[
				0.43335461616516113,
				0.43335461616516113,
				0.43335461616516113
			],
			"translation":[
				0,
				1.1659400463104248,
				0
			]
		},
		{
			"mesh":4,
			"name":"Cube.012",
			"rotation":[
				0,
				1,
				0,
				0
			],
			"scale":[
				-0.0668703243136406,
				-0.011782198213040829,
				-0.021762898191809654
			],
			"translation":[
				0.37671977281570435,
				0.6541414260864258,
				0
			]
		},
		{
			"mesh":5,
			"name":"Cylinder.013",
			"rotation":[
				0,
				-0.07431270182132721,
				0,
				0.9972350001335144
			],
			"scale":[
				0.3109668791294098,
				0.3109668791294098,
				0.3109668791294098
			],
			"translation":[
				-0.016859518364071846,
				1.2430788278579712,
				-0.008151529356837273
			]
		},
		{
			"mesh":6,
			"name":"Your Logo",
			"rotation":[
				0.7071068286895752,
				0,
				0,
				0.7071068286895752
			],
			"scale":[
				0.5262578725814819,
				0.5262578725814819,
				0.5262578725814819
			],
			"translation":[
				0,
				0.10795716941356659,
				0.6744499802589417
			]
		},
		{
			"mesh":7,
			"name":"FOUNDATION-01",
			"rotation":[
				0.7071068286895752,
				0,
				0,
				0.7071068286895752
			],
			"scale":[
				0.40269607305526733,
				0.40269607305526733,
				0.40269607305526733
			],
			"translation":[
				0,
				-0.442353218793869,
				0.6724869608879089
			]
		},
		{
			"mesh":8,
			"name":"3-01",
			"rotation":[
				0,
				-0.7071068286895752,
				0.7071068286895752,
				1.1520233300643667e-07
			],
			"scale":[
				0.6805478930473328,
				0.6805478930473328,
				0.6805478930473328
			],
			"translation":[
				0,
				-0.1701185554265976,
				-0.6711328625679016
			]
		},
		{
			"mesh":9,
			"name":"Your Logo.001",
			"rotation":[
				0,
				-0.7071068286895752,
				0.7071068286895752,
				1.1520233300643667e-07
			],
			"scale":[
				0.25626513361930847,
				0.25626513361930847,
				0.25626513361930847
			],
			"translation":[
				0,
				0.2932761311531067,
				-0.6705911755561829
			]
		}
	],
	"materials":[
		{
			"doubleSided":true,
			"extensions":{
				"KHR_materials_transmission":{
					"transmissionFactor":1
				},
				"KHR_materials_ior":{
					"ior":1.4500000476837158
				}
			},
			"name":"Material.008",
			"pbrMetallicRoughness":{
				"baseColorFactor":[
					0.800000011920929,
					0.800000011920929,
					0.800000011920929,
					1
				],
				"metallicFactor":0,
				"roughnessFactor":0.30000001192092896
			}
		},
		{
			"doubleSided":true,
			"name":"Material.007",
			"pbrMetallicRoughness":{
				"baseColorFactor":[
					1,
					0.5840779542922974,
					0.44520121812820435,
					1
				],
				"metallicFactor":0,
				"roughnessFactor":0.5
			}
		},
		{
			"doubleSided":true,
			"name":"Fine Gold",
			"pbrMetallicRoughness":{
				"roughnessFactor":0.040909089148044586
			}
		},
		{
			"doubleSided":true,
			"name":"Material.005",
			"pbrMetallicRoughness":{
				"baseColorFactor":[
					0.6020767092704773,
					0.3987875282764435,
					0.040077704936265945,
					1
				],
				"roughnessFactor":0
			}
		},
		{
			"alphaMode":"BLEND",
			"doubleSided":true,
			"name":"Your Logo",
			"pbrMetallicRoughness":{
				"baseColorTexture":{
					"index":0
				},
				"metallicFactor":0,
				"roughnessFactor":0.5
			}
		},
		{
			"alphaMode":"BLEND",
			"doubleSided":true,
			"name":"FOUNDATION-01",
			"pbrMetallicRoughness":{
				"baseColorTexture":{
					"index":1
				},
				"metallicFactor":0,
				"roughnessFactor":0.5
			}
		},
		{
			"alphaMode":"BLEND",
			"doubleSided":true,
			"name":"3-01",
			"pbrMetallicRoughness":{
				"baseColorTexture":{
					"index":2
				},
				"metallicFactor":0,
				"roughnessFactor":0.5
			}
		}
	],
	"meshes":[
		{
			"name":"Cylinder.019",
			"primitives":[
				{
					"attributes":{
						"POSITION":0,
						"NORMAL":1,
						"TEXCOORD_0":2
					},
					"indices":3,
					"material":0
				}
			]
		},
		{
			"name":"Cylinder.020",
			"primitives":[
				{
					"attributes":{
						"POSITION":4,
						"NORMAL":5,
						"TEXCOORD_0":6
					},
					"indices":7,
					"material":1
				}
			]
		},
		{
			"name":"Cylinder.021",
			"primitives":[
				{
					"attributes":{
						"POSITION":8,
						"NORMAL":9,
						"TEXCOORD_0":10,
						"TEXCOORD_1":11
					},
					"indices":12,
					"material":2
				}
			]
		},
		{
			"name":"Cylinder.022",
			"primitives":[
				{
					"attributes":{
						"POSITION":13,
						"NORMAL":14,
						"TEXCOORD_0":15
					},
					"indices":16,
					"material":3
				}
			]
		},
		{
			"name":"Cube.011",
			"primitives":[
				{
					"attributes":{
						"POSITION":17,
						"NORMAL":18,
						"TEXCOORD_0":19
					},
					"indices":20
				}
			]
		},
		{
			"name":"Cylinder.005",
			"primitives":[
				{
					"attributes":{
						"POSITION":21,
						"NORMAL":22,
						"TEXCOORD_0":23,
						"TEXCOORD_1":24
					},
					"indices":25,
					"material":2
				},
				{
					"attributes":{
						"POSITION":26,
						"NORMAL":27,
						"TEXCOORD_0":28,
						"TEXCOORD_1":29
					},
					"indices":30,
					"material":2
				}
			]
		},
		{
			"name":"Your Logo",
			"primitives":[
				{
					"attributes":{
						"POSITION":31,
						"NORMAL":32,
						"TEXCOORD_0":33
					},
					"indices":34,
					"material":4
				}
			]
		},
		{
			"name":"FOUNDATION-01",
			"primitives":[
				{
					"attributes":{
						"POSITION":35,
						"NORMAL":36,
						"TEXCOORD_0":37
					},
					"indices":34,
					"material":5
				}
			]
		},
		{
			"name":"3-01",
			"primitives":[
				{
					"attributes":{
						"POSITION":38,
						"NORMAL":39,
						"TEXCOORD_0":40
					},
					"indices":34,
					"material":6
				}
			]
		},
		{
			"name":"Your Logo.001",
			"primitives":[
				{
					"attributes":{
						"POSITION":41,
						"NORMAL":42,
						"TEXCOORD_0":43
					},
					"indices":44,
					"material":4
				}
			]
		}
	],
	"textures":[
		{
			"sampler":0,
			"source":0
		},
		{
			"sampler":0,
			"source":1
		},
		{
			"sampler":0,
			"source":2
		}
	],
	"images":[
		{
			"mimeType":"image/png",
			"name":"Your Logo",
			"uri":"textures/Your%20Logo.png"
		},
		{
			"mimeType":"image/png",
			"name":"FOUNDATION-01",
			"uri":"textures/FOUNDATION-01.png"
		},
		{
			"mimeType":"image/png",
			"name":"3-01",
			"uri":"textures/3-01.png"
		}
	],
	"accessors":[
		{
			"bufferView":0,
			"componentType":5126,
			"count":3712,
			"max":[
				1,
				1.1407238245010376,
				1
			],
			"min":[
				-1,
				-1,
				-1
			],
			"type":"VEC3"
		},
		{
			"bufferView":1,
			"componentType":5126,
			"count":3712,
			"type":"VEC3"
		},
		{
			"bufferView":2,
			"componentType":5126,
			"count":3712,
			"type":"VEC2"
		},
		{
			"bufferView":3,
			"componentType":5123,
			"count":11388,
			"type":"SCALAR"
		},
		{
			"bufferView":4,
			"componentType":5126,
			"count":500,
			"max":[
				0.9659174680709839,
				0.9443546533584595,
				0.9659174680709839
			],
			"min":[
				-0.965917706489563,
				-0.8754056096076965,
				-0.9659174680709839
			],
			"type":"VEC3"
		},
		{
			"bufferView":5,
			"componentType":5126,
			"count":500,
			"type":"VEC3"
		},
		{
			"bufferView":6,
			"componentType":5126,
			"count":500,
			"type":"VEC2"
		},
		{
			"bufferView":7,
			"componentType":5123,
			"count":1494,
			"type":"SCALAR"
		},
		{
			"bufferView":8,
			"componentType":5126,
			"count":2019,
			"max":[
				1,
				0.5572566986083984,
				1
			],
			"min":[
				-1,
				-1,
				-1
			],
			"type":"VEC3"
		},
		{
			"bufferView":9,
			"componentType":5126,
			"count":2019,
			"type":"VEC3"
		},
		{
			"bufferView":10,
			"componentType":5126,
			"count":2019,
			"type":"VEC2"
		},
		{
			"bufferView":11,
			"componentType":5126,
			"count":2019,
			"type":"VEC2"
		},
		{
			"bufferView":12,
			"componentType":5123,
			"count":5988,
			"type":"SCALAR"
		},
		{
			"bufferView":13,
			"componentType":5126,
			"count":1801,
			"max":[
				1,
				1.1959826946258545,
				1
			],
			"min":[
				-1,
				-1,
				-1
			],
			"type":"VEC3"
		},
		{
			"bufferView":14,
			"componentType":5126,
			"count":1801,
			"type":"VEC3"
		},
		{
			"bufferView":15,
			"componentType":5126,
			"count":1801,
			"type":"VEC2"
		},
		{
			"bufferView":16,
			"componentType":5123,
			"count":5988,
			"type":"SCALAR"
		},
		{
			"bufferView":17,
			"componentType":5126,
			"count":24,
			"max":[
				1,
				1,
				1
			],
			"min":[
				-1,
				-1,
				-1
			],
			"type":"VEC3"
		},
		{
			"bufferView":18,
			"componentType":5126,
			"count":24,
			"type":"VEC3"
		},
		{
			"bufferView":19,
			"componentType":5126,
			"count":24,
			"type":"VEC2"
		},
		{
			"bufferView":20,
			"componentType":5123,
			"count":36,
			"type":"SCALAR"
		},
		{
			"bufferView":21,
			"componentType":5126,
			"count":479434,
			"max":[
				1.3892289400100708,
				1.372693657875061,
				1.020946979522705
			],
			"min":[
				-1.0114902257919312,
				-1.0000009536743164,
				-1.020946979522705
			],
			"type":"VEC3"
		},
		{
			"bufferView":22,
			"componentType":5126,
			"count":479434,
			"type":"VEC3"
		},
		{
			"bufferView":23,
			"componentType":5126,
			"count":479434,
			"type":"VEC2"
		},
		{
			"bufferView":24,
			"componentType":5126,
			"count":479434,
			"type":"VEC2"
		},
		{
			"bufferView":25,
			"componentType":5125,
			"count":809316,
			"type":"SCALAR"
		},
		{
			"bufferView":26,
			"componentType":5126,
			"count":94,
			"max":[
				1.3892289400100708,
				1.1949126720428467,
				0.0859934538602829
			],
			"min":[
				1.0905070304870605,
				1.1018009185791016,
				-0.0859934538602829
			],
			"type":"VEC3"
		},
		{
			"bufferView":27,
			"componentType":5126,
			"count":94,
			"type":"VEC3"
		},
		{
			"bufferView":28,
			"componentType":5126,
			"count":94,
			"type":"VEC2"
		},
		{
			"bufferView":29,
			"componentType":5126,
			"count":94,
			"type":"VEC2"
		},
		{
			"bufferView":30,
			"componentType":5123,
			"count":252,
			"type":"SCALAR"
		},
		{
			"bufferView":31,
			"componentType":5126,
			"count":544,
			"max":[
				0.5517416000366211,
				0.0054100751876831055,
				0.5000152587890625
			],
			"min":[
				-0.5517424941062927,
				-0.11898791790008545,
				-0.5000020265579224
			],
			"type":"VEC3"
		},
		{
			"bufferView":32,
			"componentType":5126,
			"count":544,
			"type":"VEC3"
		},
		{
			"bufferView":33,
			"componentType":5126,
			"count":544,
			"type":"VEC2"
		},
		{
			"bufferView":34,
			"componentType":5123,
			"count":1536,
			"type":"SCALAR"
		},
		{
			"bufferView":35,
			"componentType":5126,
			"count":544,
			"max":[
				0.9091745018959045,
				0.011944770812988281,
				0.5000084042549133
			],
			"min":[
				-0.9091756939888,
				-0.2552841901779175,
				-0.5000087022781372
			],
			"type":"VEC3"
		},
		{
			"bufferView":36,
			"componentType":5126,
			"count":544,
			"type":"VEC3"
		},
		{
			"bufferView":37,
			"componentType":5126,
			"count":544,
			"type":"VEC2"
		},
		{
			"bufferView":38,
			"componentType":5126,
			"count":544,
			"max":[
				0.6548961997032166,
				0.009057700634002686,
				0.5000054836273193
			],
			"min":[
				-0.6548964381217957,
				-0.23741501569747925,
				-0.5000113248825073
			],
			"type":"VEC3"
		},
		{
			"bufferView":39,
			"componentType":5126,
			"count":544,
			"type":"VEC3"
		},
		{
			"bufferView":40,
			"componentType":5126,
			"count":544,
			"type":"VEC2"
		},
		{
			"bufferView":41,
			"componentType":5126,
			"count":574,
			"max":[
				0.6024032235145569,
				0.023752450942993164,
				0.5001083612442017
			],
			"min":[
				-0.6024043560028076,
				-0.044587135314941406,
				-0.5000060796737671
			],
			"type":"VEC3"
		},
		{
			"bufferView":42,
			"componentType":5126,
			"count":574,
			"type":"VEC3"
		},
		{
			"bufferView":43,
			"componentType":5126,
			"count":574,
			"type":"VEC2"
		},
		{
			"bufferView":44,
			"componentType":5123,
			"count":1536,
			"type":"SCALAR"
		}
	],
	"bufferViews":[
		{
			"buffer":0,
			"byteLength":44544,
			"byteOffset":0,
			"target":34962
		},
		{
			"buffer":0,
			"byteLength":44544,
			"byteOffset":44544,
			"target":34962
		},
		{
			"buffer":0,
			"byteLength":29696,
			"byteOffset":89088,
			"target":34962
		},
		{
			"buffer":0,
			"byteLength":22776,
			"byteOffset":118784,
			"target":34963
		},
		{
			"buffer":0,
			"byteLength":6000,
			"byteOffset":141560,
			"target":34962
		},
		{
			"buffer":0,
			"byteLength":6000,
			"byteOffset":147560,
			"target":34962
		},
		{
			"buffer":0,
			"byteLength":4000,
			"byteOffset":153560,
			"target":34962
		},
		{
			"buffer":0,
			"byteLength":2988,
			"byteOffset":157560,
			"target":34963
		},
		{
			"buffer":0,
			"byteLength":24228,
			"byteOffset":160548,
			"target":34962
		},
		{
			"buffer":0,
			"byteLength":24228,
			"byteOffset":184776,
			"target":34962
		},
		{
			"buffer":0,
			"byteLength":16152,
			"byteOffset":209004,
			"target":34962
		},
		{
			"buffer":0,
			"byteLength":16152,
			"byteOffset":225156,
			"target":34962
		},
		{
			"buffer":0,
			"byteLength":11976,
			"byteOffset":241308,
			"target":34963
		},
		{
			"buffer":0,
			"byteLength":21612,
			"byteOffset":253284,
			"target":34962
		},
		{
			"buffer":0,
			"byteLength":21612,
			"byteOffset":274896,
			"target":34962
		},
		{
			"buffer":0,
			"byteLength":14408,
			"byteOffset":296508,
			"target":34962
		},
		{
			"buffer":0,
			"byteLength":11976,
			"byteOffset":310916,
			"target":34963
		},
		{
			"buffer":0,
			"byteLength":288,
			"byteOffset":322892,
			"target":34962
		},
		{
			"buffer":0,
			"byteLength":288,
			"byteOffset":323180,
			"target":34962
		},
		{
			"buffer":0,
			"byteLength":192,
			"byteOffset":323468,
			"target":34962
		},
		{
			"buffer":0,
			"byteLength":72,
			"byteOffset":323660,
			"target":34963
		},
		{
			"buffer":0,
			"byteLength":5753208,
			"byteOffset":323732,
			"target":34962
		},
		{
			"buffer":0,
			"byteLength":5753208,
			"byteOffset":6076940,
			"target":34962
		},
		{
			"buffer":0,
			"byteLength":3835472,
			"byteOffset":11830148,
			"target":34962
		},
		{
			"buffer":0,
			"byteLength":3835472,
			"byteOffset":15665620,
			"target":34962
		},
		{
			"buffer":0,
			"byteLength":3237264,
			"byteOffset":19501092,
			"target":34963
		},
		{
			"buffer":0,
			"byteLength":1128,
			"byteOffset":22738356,
			"target":34962
		},
		{
			"buffer":0,
			"byteLength":1128,
			"byteOffset":22739484,
			"target":34962
		},
		{
			"buffer":0,
			"byteLength":752,
			"byteOffset":22740612,
			"target":34962
		},
		{
			"buffer":0,
			"byteLength":752,
			"byteOffset":22741364,
			"target":34962
		},
		{
			"buffer":0,
			"byteLength":504,
			"byteOffset":22742116,
			"target":34963
		},
		{
			"buffer":0,
			"byteLength":6528,
			"byteOffset":22742620,
			"target":34962
		},
		{
			"buffer":0,
			"byteLength":6528,
			"byteOffset":22749148,
			"target":34962
		},
		{
			"buffer":0,
			"byteLength":4352,
			"byteOffset":22755676,
			"target":34962
		},
		{
			"buffer":0,
			"byteLength":3072,
			"byteOffset":22760028,
			"target":34963
		},
		{
			"buffer":0,
			"byteLength":6528,
			"byteOffset":22763100,
			"target":34962
		},
		{
			"buffer":0,
			"byteLength":6528,
			"byteOffset":22769628,
			"target":34962
		},
		{
			"buffer":0,
			"byteLength":4352,
			"byteOffset":22776156,
			"target":34962
		},
		{
			"buffer":0,
			"byteLength":6528,
			"byteOffset":22780508,
			"target":34962
		},
		{
			"buffer":0,
			"byteLength":6528,
			"byteOffset":22787036,
			"target":34962
		},
		{
			"buffer":0,
			"byteLength":4352,
			"byteOffset":22793564,
			"target":34962
		},
		{
			"buffer":0,
			"byteLength":6888,
			"byteOffset":22797916,
			"target":34962
		},
		{
			"buffer":0,
			"byteLength":6888,
			"byteOffset":22804804,
			"target":34962
		},
		{
			"buffer":0,
			"byteLength":4592,
			"byteOffset":22811692,
			"target":34962
		},
		{
			"buffer":0,
			"byteLength":3072,
			"byteOffset":22816284,
			"target":34963
		}
	],
	"samplers":[
		{
			"magFilter":9729,
			"minFilter":9987,
			"wrapS":33071,
			"wrapT":33071
		}
	],
	"buffers":[
		{
			"byteLength":22819356,
			"uri":"Liquid%20Foundation3.bin"
		}
	]
}
