{
	"asset":{
		"generator":"Khronos glTF Blender I/O v3.6.27",
		"version":"2.0"
	},
	"extensionsUsed":[
		"KHR_materials_transmission",
		"KHR_materials_ior"
	],
	"scene":0,
	"scenes":[
		{
			"name":"Scene",
			"nodes":[
				0,
				1,
				2,
				3,
				4,
				5
			]
		}
	],
	"nodes":[
		{
			"mesh":0,
			"name":"Cylinder.015",
			"scale":[
				0.7284726500511169,
				1.0603572130203247,
				0.7284726500511169
			]
		},
		{
			"mesh":1,
			"name":"Cylinder.016",
			"scale":[
				0.69151771068573,
				1.006566047668457,
				0.69151771068573
			]
		},
		{
			"mesh":2,
			"name":"Cylinder.017",
			"scale":[
				0.45685476064682007,
				0.45685476064682007,
				0.45685476064682007
			],
			"translation":[
				0,
				1.4216103553771973,
				0
			]
		},
		{
			"mesh":3,
			"name":"CREAM PUFF-01-01 - Copy.004",
			"rotation":[
				0.7071068286895752,
				0,
				0,
				0.7071068286895752
			],
			"scale":[
				0.644887387752533,
				0.644887387752533,
				0.644887387752533
			],
			"translation":[
				0,
				0.3084842562675476,
				0.7330815196037292
			]
		},
		{
			"mesh":4,
			"name":"Foundation-01.004",
			"rotation":[
				0.7071068286895752,
				0,
				0,
				0.7071068286895752
			],
			"scale":[
				0.3721266984939575,
				0.3721266984939575,
				0.3721266984939575
			],
			"translation":[
				0,
				-0.5347060561180115,
				0.7311077117919922
			]
		},
		{
			"mesh":5,
			"name":"Cylinder.001",
			"scale":[
				0.45685476064682007,
				0.45685476064682007,
				0.45685476064682007
			],
			"translation":[
				0,
				1.4216103553771973,
				0
			]
		}
	],
	"materials":[
		{
			"doubleSided":true,
			"extensions":{
				"KHR_materials_transmission":{
					"transmissionFactor":1
				},
				"KHR_materials_ior":{
					"ior":1.4500000476837158
				}
			},
			"name":"Material.008",
			"pbrMetallicRoughness":{
				"baseColorFactor":[
					0.800000011920929,
					0.800000011920929,
					0.800000011920929,
					1
				],
				"metallicFactor":0,
				"roughnessFactor":0.30000001192092896
			}
		},
		{
			"doubleSided":true,
			"name":"Procedural Simple Cloth.001",
			"pbrMetallicRoughness":{
				"baseColorTexture":{
					"index":0
				},
				"metallicFactor":0
			}
		},
		{
			"doubleSided":true,
			"name":"Material.005",
			"pbrMetallicRoughness":{
				"baseColorFactor":[
					0.6020767092704773,
					0.3987875282764435,
					0.040077704936265945,
					1
				],
				"roughnessFactor":0
			}
		},
		{
			"alphaMode":"BLEND",
			"doubleSided":true,
			"name":"CREAM PUFF-01-01 - Copy",
			"pbrMetallicRoughness":{
				"baseColorTexture":{
					"index":1
				},
				"metallicFactor":0,
				"roughnessFactor":0.5
			}
		},
		{
			"alphaMode":"BLEND",
			"doubleSided":true,
			"name":"Foundation-01",
			"pbrMetallicRoughness":{
				"baseColorTexture":{
					"index":2
				},
				"metallicFactor":0,
				"roughnessFactor":0.5
			}
		},
		{
			"doubleSided":true,
			"name":"Material.006",
			"pbrMetallicRoughness":{
				"baseColorFactor":[
					0,
					0,
					0,
					1
				],
				"metallicFactor":0,
				"roughnessFactor":0.5
			}
		}
	],
	"meshes":[
		{
			"name":"Cylinder.006",
			"primitives":[
				{
					"attributes":{
						"POSITION":0,
						"NORMAL":1,
						"TEXCOORD_0":2,
						"TEXCOORD_1":3
					},
					"indices":4,
					"material":0
				}
			]
		},
		{
			"name":"Cylinder.007",
			"primitives":[
				{
					"attributes":{
						"POSITION":5,
						"NORMAL":6,
						"TEXCOORD_0":7
					},
					"indices":8,
					"material":1
				}
			]
		},
		{
			"name":"Cylinder.008",
			"primitives":[
				{
					"attributes":{
						"POSITION":9,
						"NORMAL":10,
						"TEXCOORD_0":11
					},
					"indices":12,
					"material":2
				}
			]
		},
		{
			"name":"CREAM PUFF-01-01 - Copy.002",
			"primitives":[
				{
					"attributes":{
						"POSITION":13,
						"NORMAL":14,
						"TEXCOORD_0":15
					},
					"indices":16,
					"material":3
				}
			]
		},
		{
			"name":"Foundation-01.004",
			"primitives":[
				{
					"attributes":{
						"POSITION":17,
						"NORMAL":18,
						"TEXCOORD_0":19
					},
					"indices":16,
					"material":4
				}
			]
		},
		{
			"name":"Cylinder.004",
			"primitives":[
				{
					"attributes":{
						"POSITION":20,
						"NORMAL":21,
						"TEXCOORD_0":22
					},
					"indices":23,
					"material":5
				}
			]
		}
	],
	"textures":[
		{
			"sampler":0,
			"source":0
		},
		{
			"sampler":1,
			"source":1
		},
		{
			"sampler":1,
			"source":2
		}
	],
	"images":[
		{
			"mimeType":"image/png",
			"name":"liquid",
			"uri":"textures/liquid.png"
		},
		{
			"mimeType":"image/png",
			"name":"CREAM PUFF-01-01 - Copy",
			"uri":"textures/CREAM%20PUFF-01-01%20-%20Copy.png"
		},
		{
			"mimeType":"image/png",
			"name":"Foundation-01",
			"uri":"textures/Foundation-01.png"
		}
	],
	"accessors":[
		{
			"bufferView":0,
			"componentType":5126,
			"count":2542,
			"max":[
				1,
				1.209465503692627,
				1
			],
			"min":[
				-1,
				-1,
				-1
			],
			"type":"VEC3"
		},
		{
			"bufferView":1,
			"componentType":5126,
			"count":2542,
			"type":"VEC3"
		},
		{
			"bufferView":2,
			"componentType":5126,
			"count":2542,
			"type":"VEC2"
		},
		{
			"bufferView":3,
			"componentType":5126,
			"count":2542,
			"type":"VEC2"
		},
		{
			"bufferView":4,
			"componentType":5123,
			"count":9006,
			"type":"SCALAR"
		},
		{
			"bufferView":5,
			"componentType":5126,
			"count":448,
			"max":[
				0.9258203506469727,
				1,
				0.9258201122283936
			],
			"min":[
				-0.9258201122283936,
				-0.8083854913711548,
				-0.9258201122283936
			],
			"type":"VEC3"
		},
		{
			"bufferView":6,
			"componentType":5126,
			"count":448,
			"type":"VEC3"
		},
		{
			"bufferView":7,
			"componentType":5126,
			"count":448,
			"type":"VEC2"
		},
		{
			"bufferView":8,
			"componentType":5123,
			"count":2490,
			"type":"SCALAR"
		},
		{
			"bufferView":9,
			"componentType":5126,
			"count":1232,
			"max":[
				1,
				0.2287927269935608,
				1
			],
			"min":[
				-1,
				-1,
				-1
			],
			"type":"VEC3"
		},
		{
			"bufferView":10,
			"componentType":5126,
			"count":1232,
			"type":"VEC3"
		},
		{
			"bufferView":11,
			"componentType":5126,
			"count":1232,
			"type":"VEC2"
		},
		{
			"bufferView":12,
			"componentType":5123,
			"count":3840,
			"type":"SCALAR"
		},
		{
			"bufferView":13,
			"componentType":5126,
			"count":544,
			"max":[
				0.5380773544311523,
				0.004149436950683594,
				0.5000038743019104
			],
			"min":[
				-0.5380773544311523,
				-0.13070929050445557,
				-0.5000008344650269
			],
			"type":"VEC3"
		},
		{
			"bufferView":14,
			"componentType":5126,
			"count":544,
			"type":"VEC3"
		},
		{
			"bufferView":15,
			"componentType":5126,
			"count":544,
			"type":"VEC2"
		},
		{
			"bufferView":16,
			"componentType":5123,
			"count":1536,
			"type":"SCALAR"
		},
		{
			"bufferView":17,
			"componentType":5126,
			"count":544,
			"max":[
				1.0845988988876343,
				0.012495040893554688,
				0.5000004768371582
			],
			"min":[
				-1.084598183631897,
				-0.3123849630355835,
				-0.50001060962677
			],
			"type":"VEC3"
		},
		{
			"bufferView":18,
			"componentType":5126,
			"count":544,
			"type":"VEC3"
		},
		{
			"bufferView":19,
			"componentType":5126,
			"count":544,
			"type":"VEC2"
		},
		{
			"bufferView":20,
			"componentType":5126,
			"count":786,
			"max":[
				0.64397132396698,
				2.0671963691711426,
				0.64397132396698
			],
			"min":[
				-0.64397132396698,
				0.2281804382801056,
				-0.64397132396698
			],
			"type":"VEC3"
		},
		{
			"bufferView":21,
			"componentType":5126,
			"count":786,
			"type":"VEC3"
		},
		{
			"bufferView":22,
			"componentType":5126,
			"count":786,
			"type":"VEC2"
		},
		{
			"bufferView":23,
			"componentType":5123,
			"count":4410,
			"type":"SCALAR"
		}
	],
	"bufferViews":[
		{
			"buffer":0,
			"byteLength":30504,
			"byteOffset":0,
			"target":34962
		},
		{
			"buffer":0,
			"byteLength":30504,
			"byteOffset":30504,
			"target":34962
		},
		{
			"buffer":0,
			"byteLength":20336,
			"byteOffset":61008,
			"target":34962
		},
		{
			"buffer":0,
			"byteLength":20336,
			"byteOffset":81344,
			"target":34962
		},
		{
			"buffer":0,
			"byteLength":18012,
			"byteOffset":101680,
			"target":34963
		},
		{
			"buffer":0,
			"byteLength":5376,
			"byteOffset":119692,
			"target":34962
		},
		{
			"buffer":0,
			"byteLength":5376,
			"byteOffset":125068,
			"target":34962
		},
		{
			"buffer":0,
			"byteLength":3584,
			"byteOffset":130444,
			"target":34962
		},
		{
			"buffer":0,
			"byteLength":4980,
			"byteOffset":134028,
			"target":34963
		},
		{
			"buffer":0,
			"byteLength":14784,
			"byteOffset":139008,
			"target":34962
		},
		{
			"buffer":0,
			"byteLength":14784,
			"byteOffset":153792,
			"target":34962
		},
		{
			"buffer":0,
			"byteLength":9856,
			"byteOffset":168576,
			"target":34962
		},
		{
			"buffer":0,
			"byteLength":7680,
			"byteOffset":178432,
			"target":34963
		},
		{
			"buffer":0,
			"byteLength":6528,
			"byteOffset":186112,
			"target":34962
		},
		{
			"buffer":0,
			"byteLength":6528,
			"byteOffset":192640,
			"target":34962
		},
		{
			"buffer":0,
			"byteLength":4352,
			"byteOffset":199168,
			"target":34962
		},
		{
			"buffer":0,
			"byteLength":3072,
			"byteOffset":203520,
			"target":34963
		},
		{
			"buffer":0,
			"byteLength":6528,
			"byteOffset":206592,
			"target":34962
		},
		{
			"buffer":0,
			"byteLength":6528,
			"byteOffset":213120,
			"target":34962
		},
		{
			"buffer":0,
			"byteLength":4352,
			"byteOffset":219648,
			"target":34962
		},
		{
			"buffer":0,
			"byteLength":9432,
			"byteOffset":224000,
			"target":34962
		},
		{
			"buffer":0,
			"byteLength":9432,
			"byteOffset":233432,
			"target":34962
		},
		{
			"buffer":0,
			"byteLength":6288,
			"byteOffset":242864,
			"target":34962
		},
		{
			"buffer":0,
			"byteLength":8820,
			"byteOffset":249152,
			"target":34963
		}
	],
	"samplers":[
		{
			"magFilter":9729,
			"minFilter":9987
		},
		{
			"magFilter":9729,
			"minFilter":9987,
			"wrapS":33071,
			"wrapT":33071
		}
	],
	"buffers":[
		{
			"byteLength":257972,
			"uri":"Serum%20Foundation.bin"
		}
	]
}
