{
	"asset":{
		"generator":"Khronos glTF Blender I/O v3.6.27",
		"version":"2.0"
	},
	"extensionsUsed":[
		"KHR_materials_specular",
		"KHR_materials_ior",
		"KHR_texture_transform"
	],
	"extensionsRequired":[
		"KHR_texture_transform"
	],
	"scene":0,
	"scenes":[
		{
			"name":"Scene",
			"nodes":[
				0,
				1,
				2,
				3,
				4,
				5,
				6,
				7,
				8,
				9,
				10,
				11
			]
		}
	],
	"nodes":[
		{
			"mesh":0,
			"name":"Cylinder.004",
			"scale":[
				0.68614661693573,
				0.68614661693573,
				0.68614661693573
			],
			"translation":[
				-0.003392934799194336,
				-1.5598111152648926,
				0
			]
		},
		{
			"mesh":1,
			"name":"BezierCircle.003",
			"rotation":[
				0,
				-0.7240498065948486,
				0.68974769115448,
				1.2219960865422763e-07
			],
			"scale":[
				0.013466743752360344,
				0.013466744683682919,
				0.013466744683682919
			],
			"translation":[
				-0.4338147044181824,
				1.4031991958618164,
				0.7983694672584534
			]
		},
		{
			"mesh":2,
			"name":"BezierCircle.005",
			"rotation":[
				0,
				-0.7240498065948486,
				0.68974769115448,
				1.2219960865422763e-07
			],
			"scale":[
				0.013466743752360344,
				0.013466744683682919,
				0.013466744683682919
			],
			"translation":[
				-0.4338147044181824,
				1.4031991958618164,
				0.7983694672584534
			]
		},
		{
			"mesh":3,
			"name":"Cylinder.005",
			"scale":[
				0.68614661693573,
				0.68614661693573,
				0.68614661693573
			],
			"translation":[
				-0.003392934799194336,
				-1.5598111152648926,
				0
			]
		},
		{
			"mesh":4,
			"name":"Text.001",
			"scale":[
				0.2709645926952362,
				0.2709645926952362,
				0.2709645926952362
			],
			"translation":[
				-0.37045595049858093,
				1.964276909828186,
				-0.0267940741032362
			]
		},
		{
			"mesh":5,
			"name":"CREAM PUFF-01.001",
			"scale":[
				0.3437064290046692,
				0.3437064290046692,
				0.3437064290046692
			],
			"translation":[
				0,
				1.8993635177612305,
				0
			]
		},
		{
			"mesh":6,
			"name":"Cylinder.002",
			"scale":[
				0.6227007508277893,
				0.6227007508277893,
				0.6227007508277893
			],
			"translation":[
				0,
				-1.354521632194519,
				0
			]
		},
		{
			"mesh":7,
			"name":"Cylinder.003",
			"scale":[
				0.6227007508277893,
				0.6227007508277893,
				0.6227007508277893
			],
			"translation":[
				0,
				-1.354521632194519,
				0
			]
		},
		{
			"mesh":8,
			"name":"Oil control-01.004",
			"rotation":[
				0.7071068286895752,
				0,
				0,
				0.7071067690849304
			],
			"scale":[
				0.16652214527130127,
				0.16652214527130127,
				0.16652214527130127
			],
			"translation":[
				0,
				-0.07595524191856384,
				0.7055472135543823
			]
		},
		{
			"mesh":9,
			"name":"Skin Lotion-01.004",
			"rotation":[
				0.7071068286895752,
				0,
				0,
				0.7071068286895752
			],
			"scale":[
				0.16308647394180298,
				0.16308647394180298,
				0.16308647394180298
			],
			"translation":[
				0,
				0.6856419444084167,
				0.705607533454895
			]
		},
		{
			"mesh":10,
			"name":"Spring-01-01.004",
			"rotation":[
				0.7071068286895752,
				0,
				0,
				0.7071068286895752
			],
			"scale":[
				0.4244774580001831,
				0.4244774580001831,
				0.4244774580001831
			],
			"translation":[
				0,
				0.3289364278316498,
				0.7170802354812622
			]
		},
		{
			"mesh":11,
			"name":"Cylinder.001",
			"scale":[
				0.6227007508277893,
				0.6227007508277893,
				0.6227007508277893
			],
			"translation":[
				0,
				-1.354521632194519,
				0
			]
		}
	],
	"materials":[
		{
			"doubleSided":true,
			"name":"Material.004",
			"pbrMetallicRoughness":{
				"baseColorTexture":{
					"index":0
				},
				"metallicFactor":0,
				"roughnessFactor":0.1623840034008026
			}
		},
		{
			"doubleSided":true,
			"extensions":{
				"KHR_materials_specular":{
					"specularColorFactor":[
						2.371357614441398,
						2.371357614441398,
						2.371357614441398
					]
				},
				"KHR_materials_ior":{
					"ior":1.4500000476837158
				}
			},
			"name":"Material.010",
			"pbrMetallicRoughness":{
				"roughnessFactor":0.09090909361839294
			}
		},
		{
			"doubleSided":true,
			"name":"Material.018",
			"pbrMetallicRoughness":{
				"baseColorTexture":{
					"extensions":{
						"KHR_texture_transform":{
							"offset":[
								1.7999999523162842,
								-0.5
							],
							"scale":[
								1.5,
								1.5
							]
						}
					},
					"index":1
				},
				"metallicFactor":0,
				"roughnessFactor":0.1623840034008026
			}
		},
		{
			"doubleSided":true,
			"name":"Material",
			"pbrMetallicRoughness":{
				"baseColorFactor":[
					0.8000000715255737,
					0.47521424293518066,
					0.123731330037117,
					1
				],
				"roughnessFactor":0.16818180680274963
			}
		},
		{
			"alphaMode":"BLEND",
			"doubleSided":true,
			"name":"CREAM PUFF-01",
			"pbrMetallicRoughness":{
				"baseColorTexture":{
					"index":2
				},
				"metallicFactor":0,
				"roughnessFactor":0.5
			}
		},
		{
			"doubleSided":true,
			"name":"Material.009",
			"pbrMetallicRoughness":{
				"baseColorTexture":{
					"index":3
				},
				"metallicFactor":0,
				"roughnessFactor":0.16238367557525635
			}
		},
		{
			"doubleSided":true,
			"name":"Material.001",
			"pbrMetallicRoughness":{
				"baseColorTexture":{
					"index":4
				},
				"metallicFactor":0,
				"roughnessFactor":0.16238367557525635
			}
		},
		{
			"alphaMode":"BLEND",
			"doubleSided":true,
			"name":"Oil control-01.001",
			"pbrMetallicRoughness":{
				"baseColorTexture":{
					"index":5
				},
				"metallicFactor":0,
				"roughnessFactor":0.5
			}
		},
		{
			"alphaMode":"BLEND",
			"doubleSided":true,
			"name":"Skin Lotion-01.001",
			"pbrMetallicRoughness":{
				"baseColorTexture":{
					"index":6
				},
				"metallicFactor":0,
				"roughnessFactor":0.5
			}
		},
		{
			"alphaMode":"BLEND",
			"doubleSided":true,
			"name":"Spring-01-01.001",
			"pbrMetallicRoughness":{
				"baseColorTexture":{
					"index":7
				},
				"metallicFactor":0,
				"roughnessFactor":0.5
			}
		}
	],
	"meshes":[
		{
			"name":"Cylinder.003",
			"primitives":[
				{
					"attributes":{
						"POSITION":0,
						"NORMAL":1,
						"TEXCOORD_0":2
					},
					"indices":3,
					"material":0
				}
			]
		},
		{
			"name":"BezierCircle.001",
			"primitives":[
				{
					"attributes":{
						"POSITION":4,
						"NORMAL":5,
						"TEXCOORD_0":6
					},
					"indices":7,
					"material":1
				}
			]
		},
		{
			"name":"BezierCircle.002",
			"primitives":[
				{
					"attributes":{
						"POSITION":8,
						"NORMAL":9,
						"TEXCOORD_0":10
					},
					"indices":11,
					"material":1
				}
			]
		},
		{
			"name":"Cylinder.004",
			"primitives":[
				{
					"attributes":{
						"POSITION":12,
						"NORMAL":13,
						"TEXCOORD_0":14
					},
					"indices":15,
					"material":2
				}
			]
		},
		{
			"name":"Text",
			"primitives":[
				{
					"attributes":{
						"POSITION":16,
						"NORMAL":17,
						"TEXCOORD_0":18
					},
					"indices":19,
					"material":3
				}
			]
		},
		{
			"name":"CREAM PUFF-01.001",
			"primitives":[
				{
					"attributes":{
						"POSITION":20,
						"NORMAL":21,
						"TEXCOORD_0":22
					},
					"indices":23,
					"material":4
				}
			]
		},
		{
			"name":"Cylinder.001",
			"primitives":[
				{
					"attributes":{
						"POSITION":24,
						"NORMAL":25,
						"TEXCOORD_0":26
					},
					"indices":27,
					"material":5
				}
			]
		},
		{
			"name":"Cylinder.002",
			"primitives":[
				{
					"attributes":{
						"POSITION":28,
						"NORMAL":29,
						"TEXCOORD_0":30
					},
					"indices":31,
					"material":6
				}
			]
		},
		{
			"name":"Oil control-01.004",
			"primitives":[
				{
					"attributes":{
						"POSITION":32,
						"NORMAL":33,
						"TEXCOORD_0":34
					},
					"indices":35,
					"material":7
				}
			]
		},
		{
			"name":"Skin Lotion-01.004",
			"primitives":[
				{
					"attributes":{
						"POSITION":36,
						"NORMAL":37,
						"TEXCOORD_0":38
					},
					"indices":39,
					"material":8
				}
			]
		},
		{
			"name":"Spring-01-01.004",
			"primitives":[
				{
					"attributes":{
						"POSITION":40,
						"NORMAL":41,
						"TEXCOORD_0":42
					},
					"indices":43,
					"material":9
				}
			]
		},
		{
			"name":"Cylinder.009",
			"primitives":[
				{
					"attributes":{
						"POSITION":44,
						"NORMAL":45,
						"TEXCOORD_0":46
					},
					"indices":47,
					"material":3
				}
			]
		}
	],
	"textures":[
		{
			"sampler":0,
			"source":0
		},
		{
			"sampler":0,
			"source":1
		},
		{
			"sampler":1,
			"source":2
		},
		{
			"sampler":0,
			"source":3
		},
		{
			"sampler":0,
			"source":3
		},
		{
			"sampler":1,
			"source":4
		},
		{
			"sampler":1,
			"source":5
		},
		{
			"sampler":1,
			"source":6
		}
	],
	"images":[
		{
			"mimeType":"image/png",
			"name":"pink3",
			"uri":"textures/pink3.png"
		},
		{
			"mimeType":"image/jpeg",
			"name":"2-01-01",
			"uri":"textures/2-01-01.jpg"
		},
		{
			"mimeType":"image/png",
			"name":"CREAM PUFF-01",
			"uri":"textures/CREAM%20PUFF-01.png"
		},
		{
			"mimeType":"image/png",
			"name":"pink2",
			"uri":"textures/pink2.png"
		},
		{
			"mimeType":"image/png",
			"name":"oil control-01",
			"uri":"textures/oil%20control-01.png"
		},
		{
			"mimeType":"image/png",
			"name":"sking-01",
			"uri":"textures/sking-01.png"
		},
		{
			"mimeType":"image/png",
			"name":"spring black-01",
			"uri":"textures/spring%20black-01.png"
		}
	],
	"accessors":[
		{
			"bufferView":0,
			"componentType":5126,
			"count":11648,
			"max":[
				1,
				5.061332702636719,
				1
			],
			"min":[
				-1,
				-1,
				-1
			],
			"type":"VEC3"
		},
		{
			"bufferView":1,
			"componentType":5126,
			"count":11648,
			"type":"VEC3"
		},
		{
			"bufferView":2,
			"componentType":5126,
			"count":11648,
			"type":"VEC2"
		},
		{
			"bufferView":3,
			"componentType":5123,
			"count":66420,
			"type":"SCALAR"
		},
		{
			"bufferView":4,
			"componentType":5126,
			"count":233240,
			"max":[
				7.503337860107422,
				96.05094909667969,
				135.0540771484375
			],
			"min":[
				-68.9746322631836,
				-2.328584671020508,
				-43.72047424316406
			],
			"type":"VEC3"
		},
		{
			"bufferView":5,
			"componentType":5126,
			"count":233240,
			"type":"VEC3"
		},
		{
			"bufferView":6,
			"componentType":5126,
			"count":233240,
			"type":"VEC2"
		},
		{
			"bufferView":7,
			"componentType":5125,
			"count":1290240,
			"type":"SCALAR"
		},
		{
			"bufferView":8,
			"componentType":5126,
			"count":233240,
			"max":[
				4.7049560546875,
				96.05516052246094,
				126.83496856689453
			],
			"min":[
				-65.44739532470703,
				-2.4236512184143066,
				-43.87050247192383
			],
			"type":"VEC3"
		},
		{
			"bufferView":9,
			"componentType":5126,
			"count":233240,
			"type":"VEC3"
		},
		{
			"bufferView":10,
			"componentType":5126,
			"count":233240,
			"type":"VEC2"
		},
		{
			"bufferView":11,
			"componentType":5125,
			"count":1290240,
			"type":"SCALAR"
		},
		{
			"bufferView":12,
			"componentType":5126,
			"count":131,
			"max":[
				1,
				3.615920066833496,
				1
			],
			"min":[
				-1,
				-0.8258095979690552,
				-1
			],
			"type":"VEC3"
		},
		{
			"bufferView":13,
			"componentType":5126,
			"count":131,
			"type":"VEC3"
		},
		{
			"bufferView":14,
			"componentType":5126,
			"count":131,
			"type":"VEC2"
		},
		{
			"bufferView":15,
			"componentType":5123,
			"count":384,
			"type":"SCALAR"
		},
		{
			"bufferView":16,
			"componentType":5126,
			"count":2332,
			"max":[
				2.8310000896453857,
				0.019999999552965164,
				1.0089999437332153
			],
			"min":[
				0,
				-0.019999999552965164,
				-0.6910000443458557
			],
			"type":"VEC3"
		},
		{
			"bufferView":17,
			"componentType":5126,
			"count":2332,
			"type":"VEC3"
		},
		{
			"bufferView":18,
			"componentType":5126,
			"count":2332,
			"type":"VEC2"
		},
		{
			"bufferView":19,
			"componentType":5123,
			"count":6876,
			"type":"SCALAR"
		},
		{
			"bufferView":20,
			"componentType":5126,
			"count":4,
			"max":[
				0.612368643283844,
				0,
				0.5
			],
			"min":[
				-0.612368643283844,
				0,
				-0.5
			],
			"type":"VEC3"
		},
		{
			"bufferView":21,
			"componentType":5126,
			"count":4,
			"type":"VEC3"
		},
		{
			"bufferView":22,
			"componentType":5126,
			"count":4,
			"type":"VEC2"
		},
		{
			"bufferView":23,
			"componentType":5123,
			"count":6,
			"type":"SCALAR"
		},
		{
			"bufferView":24,
			"componentType":5126,
			"count":4480,
			"max":[
				1,
				5.338264465332031,
				1
			],
			"min":[
				-1,
				3.9278011322021484,
				-1
			],
			"type":"VEC3"
		},
		{
			"bufferView":25,
			"componentType":5126,
			"count":4480,
			"type":"VEC3"
		},
		{
			"bufferView":26,
			"componentType":5126,
			"count":4480,
			"type":"VEC2"
		},
		{
			"bufferView":27,
			"componentType":5123,
			"count":11898,
			"type":"SCALAR"
		},
		{
			"bufferView":28,
			"componentType":5126,
			"count":256,
			"max":[
				1,
				3.924529552459717,
				1
			],
			"min":[
				-1,
				3.8399856090545654,
				-1
			],
			"type":"VEC3"
		},
		{
			"bufferView":29,
			"componentType":5126,
			"count":256,
			"type":"VEC3"
		},
		{
			"bufferView":30,
			"componentType":5126,
			"count":256,
			"type":"VEC2"
		},
		{
			"bufferView":31,
			"componentType":5123,
			"count":768,
			"type":"SCALAR"
		},
		{
			"bufferView":32,
			"componentType":5126,
			"count":6374,
			"max":[
				1.8622832298278809,
				-0.060401201248168945,
				0.5014475584030151
			],
			"min":[
				-1.862283706665039,
				-0.5583281517028809,
				-0.5018434524536133
			],
			"type":"VEC3"
		},
		{
			"bufferView":33,
			"componentType":5126,
			"count":6374,
			"type":"VEC3"
		},
		{
			"bufferView":34,
			"componentType":5126,
			"count":6374,
			"type":"VEC2"
		},
		{
			"bufferView":35,
			"componentType":5123,
			"count":24576,
			"type":"SCALAR"
		},
		{
			"bufferView":36,
			"componentType":5126,
			"count":6858,
			"max":[
				1.8667831420898438,
				-0.061673641204833984,
				0.5001945495605469
			],
			"min":[
				-1.8667762279510498,
				-0.5504143238067627,
				-0.500030517578125
			],
			"type":"VEC3"
		},
		{
			"bufferView":37,
			"componentType":5126,
			"count":6858,
			"type":"VEC3"
		},
		{
			"bufferView":38,
			"componentType":5126,
			"count":6858,
			"type":"VEC2"
		},
		{
			"bufferView":39,
			"componentType":5123,
			"count":24576,
			"type":"SCALAR"
		},
		{
			"bufferView":40,
			"componentType":5126,
			"count":6644,
			"max":[
				0.6503240466117859,
				-0.05104720592498779,
				0.5003609657287598
			],
			"min":[
				-0.6503242254257202,
				-0.20352518558502197,
				-0.5001981258392334
			],
			"type":"VEC3"
		},
		{
			"bufferView":41,
			"componentType":5126,
			"count":6644,
			"type":"VEC3"
		},
		{
			"bufferView":42,
			"componentType":5126,
			"count":6644,
			"type":"VEC2"
		},
		{
			"bufferView":43,
			"componentType":5123,
			"count":24576,
			"type":"SCALAR"
		},
		{
			"bufferView":44,
			"componentType":5126,
			"count":256,
			"max":[
				0.9626592397689819,
				5.338264465332031,
				0.9626592397689819
			],
			"min":[
				-0.9626592397689819,
				5.338264465332031,
				-0.9626592397689819
			],
			"type":"VEC3"
		},
		{
			"bufferView":45,
			"componentType":5126,
			"count":256,
			"type":"VEC3"
		},
		{
			"bufferView":46,
			"componentType":5126,
			"count":256,
			"type":"VEC2"
		},
		{
			"bufferView":47,
			"componentType":5123,
			"count":768,
			"type":"SCALAR"
		}
	],
	"bufferViews":[
		{
			"buffer":0,
			"byteLength":139776,
			"byteOffset":0,
			"target":34962
		},
		{
			"buffer":0,
			"byteLength":139776,
			"byteOffset":139776,
			"target":34962
		},
		{
			"buffer":0,
			"byteLength":93184,
			"byteOffset":279552,
			"target":34962
		},
		{
			"buffer":0,
			"byteLength":132840,
			"byteOffset":372736,
			"target":34963
		},
		{
			"buffer":0,
			"byteLength":2798880,
			"byteOffset":505576,
			"target":34962
		},
		{
			"buffer":0,
			"byteLength":2798880,
			"byteOffset":3304456,
			"target":34962
		},
		{
			"buffer":0,
			"byteLength":1865920,
			"byteOffset":6103336,
			"target":34962
		},
		{
			"buffer":0,
			"byteLength":5160960,
			"byteOffset":7969256,
			"target":34963
		},
		{
			"buffer":0,
			"byteLength":2798880,
			"byteOffset":13130216,
			"target":34962
		},
		{
			"buffer":0,
			"byteLength":2798880,
			"byteOffset":15929096,
			"target":34962
		},
		{
			"buffer":0,
			"byteLength":1865920,
			"byteOffset":18727976,
			"target":34962
		},
		{
			"buffer":0,
			"byteLength":5160960,
			"byteOffset":20593896,
			"target":34963
		},
		{
			"buffer":0,
			"byteLength":1572,
			"byteOffset":25754856,
			"target":34962
		},
		{
			"buffer":0,
			"byteLength":1572,
			"byteOffset":25756428,
			"target":34962
		},
		{
			"buffer":0,
			"byteLength":1048,
			"byteOffset":25758000,
			"target":34962
		},
		{
			"buffer":0,
			"byteLength":768,
			"byteOffset":25759048,
			"target":34963
		},
		{
			"buffer":0,
			"byteLength":27984,
			"byteOffset":25759816,
			"target":34962
		},
		{
			"buffer":0,
			"byteLength":27984,
			"byteOffset":25787800,
			"target":34962
		},
		{
			"buffer":0,
			"byteLength":18656,
			"byteOffset":25815784,
			"target":34962
		},
		{
			"buffer":0,
			"byteLength":13752,
			"byteOffset":25834440,
			"target":34963
		},
		{
			"buffer":0,
			"byteLength":48,
			"byteOffset":25848192,
			"target":34962
		},
		{
			"buffer":0,
			"byteLength":48,
			"byteOffset":25848240,
			"target":34962
		},
		{
			"buffer":0,
			"byteLength":32,
			"byteOffset":25848288,
			"target":34962
		},
		{
			"buffer":0,
			"byteLength":12,
			"byteOffset":25848320,
			"target":34963
		},
		{
			"buffer":0,
			"byteLength":53760,
			"byteOffset":25848332,
			"target":34962
		},
		{
			"buffer":0,
			"byteLength":53760,
			"byteOffset":25902092,
			"target":34962
		},
		{
			"buffer":0,
			"byteLength":35840,
			"byteOffset":25955852,
			"target":34962
		},
		{
			"buffer":0,
			"byteLength":23796,
			"byteOffset":25991692,
			"target":34963
		},
		{
			"buffer":0,
			"byteLength":3072,
			"byteOffset":26015488,
			"target":34962
		},
		{
			"buffer":0,
			"byteLength":3072,
			"byteOffset":26018560,
			"target":34962
		},
		{
			"buffer":0,
			"byteLength":2048,
			"byteOffset":26021632,
			"target":34962
		},
		{
			"buffer":0,
			"byteLength":1536,
			"byteOffset":26023680,
			"target":34963
		},
		{
			"buffer":0,
			"byteLength":76488,
			"byteOffset":26025216,
			"target":34962
		},
		{
			"buffer":0,
			"byteLength":76488,
			"byteOffset":26101704,
			"target":34962
		},
		{
			"buffer":0,
			"byteLength":50992,
			"byteOffset":26178192,
			"target":34962
		},
		{
			"buffer":0,
			"byteLength":49152,
			"byteOffset":26229184,
			"target":34963
		},
		{
			"buffer":0,
			"byteLength":82296,
			"byteOffset":26278336,
			"target":34962
		},
		{
			"buffer":0,
			"byteLength":82296,
			"byteOffset":26360632,
			"target":34962
		},
		{
			"buffer":0,
			"byteLength":54864,
			"byteOffset":26442928,
			"target":34962
		},
		{
			"buffer":0,
			"byteLength":49152,
			"byteOffset":26497792,
			"target":34963
		},
		{
			"buffer":0,
			"byteLength":79728,
			"byteOffset":26546944,
			"target":34962
		},
		{
			"buffer":0,
			"byteLength":79728,
			"byteOffset":26626672,
			"target":34962
		},
		{
			"buffer":0,
			"byteLength":53152,
			"byteOffset":26706400,
			"target":34962
		},
		{
			"buffer":0,
			"byteLength":49152,
			"byteOffset":26759552,
			"target":34963
		},
		{
			"buffer":0,
			"byteLength":3072,
			"byteOffset":26808704,
			"target":34962
		},
		{
			"buffer":0,
			"byteLength":3072,
			"byteOffset":26811776,
			"target":34962
		},
		{
			"buffer":0,
			"byteLength":2048,
			"byteOffset":26814848,
			"target":34962
		},
		{
			"buffer":0,
			"byteLength":1536,
			"byteOffset":26816896,
			"target":34963
		}
	],
	"samplers":[
		{
			"magFilter":9729,
			"minFilter":9987
		},
		{
			"magFilter":9729,
			"minFilter":9987,
			"wrapS":33071,
			"wrapT":33071
		}
	],
	"buffers":[
		{
			"byteLength":26818432,
			"uri":"Spring%20lotion.bin"
		}
	]
}
