{
	"asset":{
		"generator":"Khronos glTF Blender I/O v3.6.27",
		"version":"2.0"
	},
	"extensionsUsed":[
		"KHR_materials_specular",
		"KHR_materials_ior"
	],
	"scene":0,
	"scenes":[
		{
			"name":"Scene",
			"nodes":[
				0,
				1,
				2,
				3,
				4,
				5,
				6,
				7,
				8,
				9,
				10
			]
		}
	],
	"nodes":[
		{
			"mesh":0,
			"name":"Text",
			"rotation":[
				0.4258978068828583,
				0,
				-0.9047712683677673,
				0
			],
			"scale":[
				-0.23257918655872345,
				-0.23257921636104584,
				-0.23257918655872345
			],
			"translation":[
				0,
				-0.11417097598314285,
				0.10862741619348526
			]
		},
		{
			"mesh":1,
			"name":"Text.001",
			"rotation":[
				1,
				0,
				0,
				0
			],
			"scale":[
				-0.10139928758144379,
				-0.10139928758144379,
				-0.10139928758144379
			],
			"translation":[
				0,
				-0.11417097598314285,
				0.16624371707439423
			]
		},
		{
			"mesh":2,
			"name":"Text.002",
			"scale":[
				0.18590712547302246,
				0.18590712547302246,
				0.18590712547302246
			],
			"translation":[
				-0.2588104009628296,
				0.2295132726430893,
				0
			]
		},
		{
			"mesh":3,
			"name":"Text.003",
			"scale":[
				0.18590712547302246,
				0.18590712547302246,
				0.18590712547302246
			],
			"translation":[
				-0.2588104009628296,
				0.2295132726430893,
				0
			]
		},
		{
			"mesh":4,
			"name":"Cylinder.003"
		},
		{
			"mesh":5,
			"name":"Cylinder.004",
			"translation":[
				0,
				0.09231148660182953,
				0
			]
		},
		{
			"mesh":6,
			"name":"Cylinder.005",
			"translation":[
				0,
				0.16029389202594757,
				0
			]
		},
		{
			"mesh":7,
			"name":"Cylinder.006",
			"translation":[
				0,
				0.21920035779476166,
				0
			]
		},
		{
			"mesh":8,
			"name":"pan cake-01-01",
			"scale":[
				0.5490139722824097,
				0.5490142703056335,
				0.5490142703056335
			],
			"translation":[
				0,
				0.2114267647266388,
				0.5956000089645386
			]
		},
		{
			"mesh":9,
			"name":"YOUR LOGO-01",
			"scale":[
				0.6030449867248535,
				0.603044867515564,
				0.603044867515564
			],
			"translation":[
				0,
				0.20845933258533478,
				-0.6493016481399536
			]
		},
		{
			"mesh":10,
			"name":"Cylinder.001",
			"rotation":[
				1,
				0,
				0,
				0
			],
			"scale":[
				-1,
				-1,
				-1
			],
			"translation":[
				0,
				-0.0007362864562310278,
				0
			]
		}
	],
	"materials":[
		{
			"doubleSided":true,
			"name":"Material.001",
			"pbrMetallicRoughness":{
				"baseColorTexture":{
					"index":0
				},
				"metallicFactor":0,
				"roughnessFactor":0.10000000149011612
			}
		},
		{
			"alphaMode":"BLEND",
			"name":"Glass.001",
			"occlusionTexture":{
				"index":1
			},
			"pbrMetallicRoughness":{
				"baseColorTexture":{
					"index":2
				},
				"metallicRoughnessTexture":{
					"index":1
				}
			}
		},
		{
			"doubleSided":true,
			"name":"Material",
			"pbrMetallicRoughness":{
				"baseColorTexture":{
					"index":3
				},
				"roughnessFactor":0.20000000298023224
			}
		},
		{
			"doubleSided":true,
			"name":"Procedural Simple Cloth",
			"pbrMetallicRoughness":{
				"baseColorTexture":{
					"index":4,
					"texCoord":1
				},
				"metallicFactor":0
			}
		},
		{
			"alphaMode":"BLEND",
			"doubleSided":true,
			"name":"pan cake-01-01",
			"pbrMetallicRoughness":{
				"baseColorTexture":{
					"index":5
				},
				"metallicFactor":0,
				"roughnessFactor":0.5
			}
		},
		{
			"alphaMode":"BLEND",
			"doubleSided":true,
			"name":"YOUR LOGO-01",
			"pbrMetallicRoughness":{
				"baseColorTexture":{
					"index":6
				},
				"metallicFactor":0,
				"roughnessFactor":0.5
			}
		},
		{
			"doubleSided":true,
			"extensions":{
				"KHR_materials_specular":{
					"specularColorTexture":{
						"index":7,
						"texCoord":1
					}
				},
				"KHR_materials_ior":{
					"ior":1.4500000476837158
				}
			},
			"name":"Material.003",
			"pbrMetallicRoughness":{
				"baseColorTexture":{
					"index":8,
					"texCoord":1
				},
				"roughnessFactor":0.6086956262588501
			}
		}
	],
	"meshes":[
		{
			"name":"Text",
			"primitives":[
				{
					"attributes":{
						"POSITION":0,
						"NORMAL":1,
						"TEXCOORD_0":2
					},
					"indices":3,
					"material":0
				}
			]
		},
		{
			"name":"Text.001",
			"primitives":[
				{
					"attributes":{
						"POSITION":4,
						"NORMAL":5,
						"TEXCOORD_0":6
					},
					"indices":7,
					"material":0
				}
			]
		},
		{
			"name":"Text.002",
			"primitives":[
				{
					"attributes":{
						"POSITION":8,
						"NORMAL":9,
						"TEXCOORD_0":10
					},
					"indices":11,
					"material":1
				}
			]
		},
		{
			"name":"Text.003",
			"primitives":[
				{
					"attributes":{
						"POSITION":12,
						"NORMAL":13,
						"TEXCOORD_0":14
					},
					"indices":15,
					"material":2
				}
			]
		},
		{
			"name":"Cylinder.006",
			"primitives":[
				{
					"attributes":{
						"POSITION":16,
						"NORMAL":17,
						"TEXCOORD_0":18
					},
					"indices":19,
					"material":0
				}
			]
		},
		{
			"name":"Cylinder.007",
			"primitives":[
				{
					"attributes":{
						"POSITION":20,
						"NORMAL":21,
						"TEXCOORD_0":22
					},
					"indices":23,
					"material":0
				}
			]
		},
		{
			"name":"Cylinder.008",
			"primitives":[
				{
					"attributes":{
						"POSITION":24,
						"NORMAL":25,
						"TEXCOORD_0":26,
						"TEXCOORD_1":27
					},
					"indices":28,
					"material":3
				}
			]
		},
		{
			"name":"Cylinder.009",
			"primitives":[
				{
					"attributes":{
						"POSITION":29,
						"NORMAL":30,
						"TEXCOORD_0":31,
						"TEXCOORD_1":32
					},
					"indices":33,
					"material":1
				}
			]
		},
		{
			"name":"pan cake-01-01",
			"primitives":[
				{
					"attributes":{
						"POSITION":34,
						"NORMAL":35,
						"TEXCOORD_0":36
					},
					"indices":37,
					"material":4
				}
			]
		},
		{
			"name":"YOUR LOGO-01",
			"primitives":[
				{
					"attributes":{
						"POSITION":38,
						"NORMAL":39,
						"TEXCOORD_0":40
					},
					"indices":41,
					"material":5
				}
			]
		},
		{
			"name":"Cylinder.001",
			"primitives":[
				{
					"attributes":{
						"POSITION":42,
						"NORMAL":43,
						"TEXCOORD_0":44,
						"TEXCOORD_1":45
					},
					"indices":46,
					"material":6
				}
			]
		}
	],
	"textures":[
		{
			"sampler":0,
			"source":0
		},
		{
			"sampler":0,
			"source":1
		},
		{
			"sampler":0,
			"source":2
		},
		{
			"sampler":0,
			"source":3
		},
		{
			"sampler":0,
			"source":4
		},
		{
			"sampler":1,
			"source":5
		},
		{
			"sampler":1,
			"source":6
		},
		{
			"sampler":0,
			"source":7
		},
		{
			"sampler":0,
			"source":8
		}
	],
	"images":[
		{
			"mimeType":"image/png",
			"name":"black 2",
			"uri":"textures/black%202.png"
		},
		{
			"mimeType":"image/png",
			"name":"Image_1",
			"uri":"textures/Image_1.png"
		},
		{
			"mimeType":"image/png",
			"name":"Image_0",
			"uri":"textures/Image_0.png"
		},
		{
			"mimeType":"image/png",
			"name":"silver-02",
			"uri":"textures/silver-02.png"
		},
		{
			"mimeType":"image/png",
			"name":"powder",
			"uri":"textures/powder.png"
		},
		{
			"mimeType":"image/png",
			"name":"pan cake-01-01",
			"uri":"textures/pan%20cake-01-01.png"
		},
		{
			"mimeType":"image/png",
			"name":"your logo white-01",
			"uri":"textures/your%20logo%20white-01.png"
		},
		{
			"mimeType":"image/png",
			"name":"Image",
			"uri":"textures/Image.png"
		},
		{
			"mimeType":"image/png",
			"name":"BACK STICKER2-01",
			"uri":"textures/BACK%20STICKER2-01.png"
		}
	],
	"accessors":[
		{
			"bufferView":0,
			"componentType":5126,
			"count":2308,
			"max":[
				-0.06096532940864563,
				0.021811680868268013,
				3.99271821975708
			],
			"min":[
				-3.9603445529937744,
				-0.021822210401296616,
				-0.6733201146125793
			],
			"type":"VEC3"
		},
		{
			"bufferView":1,
			"componentType":5126,
			"count":2308,
			"type":"VEC3"
		},
		{
			"bufferView":2,
			"componentType":5126,
			"count":2308,
			"type":"VEC2"
		},
		{
			"bufferView":3,
			"componentType":5123,
			"count":6876,
			"type":"SCALAR"
		},
		{
			"bufferView":4,
			"componentType":5126,
			"count":6136,
			"max":[
				6.016305923461914,
				0.04604591801762581,
				5.683913707733154
			],
			"min":[
				-6.063291549682617,
				-0.04607008397579193,
				2.0714988708496094
			],
			"type":"VEC3"
		},
		{
			"bufferView":5,
			"componentType":5126,
			"count":6136,
			"type":"VEC3"
		},
		{
			"bufferView":6,
			"componentType":5126,
			"count":6136,
			"type":"VEC2"
		},
		{
			"bufferView":7,
			"componentType":5123,
			"count":18192,
			"type":"SCALAR"
		},
		{
			"bufferView":8,
			"componentType":5126,
			"count":1755,
			"max":[
				2.8310000896453857,
				0.04999999701976776,
				1.0089999437332153
			],
			"min":[
				0,
				-0.04999999701976776,
				-0.6910000443458557
			],
			"type":"VEC3"
		},
		{
			"bufferView":9,
			"componentType":5126,
			"count":1755,
			"type":"VEC3"
		},
		{
			"bufferView":10,
			"componentType":5126,
			"count":1755,
			"type":"VEC2"
		},
		{
			"bufferView":11,
			"componentType":5123,
			"count":5169,
			"type":"SCALAR"
		},
		{
			"bufferView":12,
			"componentType":5126,
			"count":577,
			"max":[
				2.8310000896453857,
				0.04999999701976776,
				1.0089999437332153
			],
			"min":[
				0,
				0.04999999701976776,
				-0.6910000443458557
			],
			"type":"VEC3"
		},
		{
			"bufferView":13,
			"componentType":5126,
			"count":577,
			"type":"VEC3"
		},
		{
			"bufferView":14,
			"componentType":5126,
			"count":577,
			"type":"VEC2"
		},
		{
			"bufferView":15,
			"componentType":5123,
			"count":1707,
			"type":"SCALAR"
		},
		{
			"bufferView":16,
			"componentType":5126,
			"count":5120,
			"max":[
				1.0265965461730957,
				0.17214912176132202,
				1.0264701843261719
			],
			"min":[
				-1.0265090465545654,
				-0.11929219961166382,
				-1.0266354084014893
			],
			"type":"VEC3"
		},
		{
			"bufferView":17,
			"componentType":5126,
			"count":5120,
			"type":"VEC3"
		},
		{
			"bufferView":18,
			"componentType":5126,
			"count":5120,
			"type":"VEC2"
		},
		{
			"bufferView":19,
			"componentType":5123,
			"count":26490,
			"type":"SCALAR"
		},
		{
			"bufferView":20,
			"componentType":5126,
			"count":4352,
			"max":[
				1.023619532585144,
				0.12063992023468018,
				1.023619532585144
			],
			"min":[
				-1.023619532585144,
				-0.16473311185836792,
				-1.023619532585144
			],
			"type":"VEC3"
		},
		{
			"bufferView":21,
			"componentType":5126,
			"count":4352,
			"type":"VEC3"
		},
		{
			"bufferView":22,
			"componentType":5126,
			"count":4352,
			"type":"VEC2"
		},
		{
			"bufferView":23,
			"componentType":5123,
			"count":23040,
			"type":"SCALAR"
		},
		{
			"bufferView":24,
			"componentType":5126,
			"count":128,
			"max":[
				0.9899221658706665,
				-8.940696716308594e-07,
				0.9899221658706665
			],
			"min":[
				-0.9899221658706665,
				-8.940696716308594e-07,
				-0.9899221658706665
			],
			"type":"VEC3"
		},
		{
			"bufferView":25,
			"componentType":5126,
			"count":128,
			"type":"VEC3"
		},
		{
			"bufferView":26,
			"componentType":5126,
			"count":128,
			"type":"VEC2"
		},
		{
			"bufferView":27,
			"componentType":5126,
			"count":128,
			"type":"VEC2"
		},
		{
			"bufferView":28,
			"componentType":5123,
			"count":378,
			"type":"SCALAR"
		},
		{
			"bufferView":29,
			"componentType":5126,
			"count":804,
			"max":[
				0.41378867626190186,
				0.0037797396071255207,
				0.41378864645957947
			],
			"min":[
				-0.4137886166572571,
				-0.004024088382720947,
				-0.4137885868549347
			],
			"type":"VEC3"
		},
		{
			"bufferView":30,
			"componentType":5126,
			"count":804,
			"type":"VEC3"
		},
		{
			"bufferView":31,
			"componentType":5126,
			"count":804,
			"type":"VEC2"
		},
		{
			"bufferView":32,
			"componentType":5126,
			"count":804,
			"type":"VEC2"
		},
		{
			"bufferView":33,
			"componentType":5123,
			"count":3828,
			"type":"SCALAR"
		},
		{
			"bufferView":34,
			"componentType":5126,
			"count":5633,
			"max":[
				1.4183478355407715,
				0.003311008680611849,
				0.502684473991394
			],
			"min":[
				-1.4183547496795654,
				-0.0300770103931427,
				-0.49731653928756714
			],
			"type":"VEC3"
		},
		{
			"bufferView":35,
			"componentType":5126,
			"count":5633,
			"type":"VEC3"
		},
		{
			"bufferView":36,
			"componentType":5126,
			"count":5633,
			"type":"VEC2"
		},
		{
			"bufferView":37,
			"componentType":5123,
			"count":24576,
			"type":"SCALAR"
		},
		{
			"bufferView":38,
			"componentType":5126,
			"count":6891,
			"max":[
				1.4183518886566162,
				0.007587176747620106,
				0.47566476464271545
			],
			"min":[
				-1.4183499813079834,
				-0.022809404879808426,
				-0.5243362188339233
			],
			"type":"VEC3"
		},
		{
			"bufferView":39,
			"componentType":5126,
			"count":6891,
			"type":"VEC3"
		},
		{
			"bufferView":40,
			"componentType":5126,
			"count":6891,
			"type":"VEC2"
		},
		{
			"bufferView":41,
			"componentType":5123,
			"count":24576,
			"type":"SCALAR"
		},
		{
			"bufferView":42,
			"componentType":5126,
			"count":128,
			"max":[
				0.31306666135787964,
				-0.10598389059305191,
				0.3129402995109558
			],
			"min":[
				-0.3129791021347046,
				-0.10598403960466385,
				-0.31310540437698364
			],
			"type":"VEC3"
		},
		{
			"bufferView":43,
			"componentType":5126,
			"count":128,
			"type":"VEC3"
		},
		{
			"bufferView":44,
			"componentType":5126,
			"count":128,
			"type":"VEC2"
		},
		{
			"bufferView":45,
			"componentType":5126,
			"count":128,
			"type":"VEC2"
		},
		{
			"bufferView":46,
			"componentType":5123,
			"count":378,
			"type":"SCALAR"
		}
	],
	"bufferViews":[
		{
			"buffer":0,
			"byteLength":27696,
			"byteOffset":0,
			"target":34962
		},
		{
			"buffer":0,
			"byteLength":27696,
			"byteOffset":27696,
			"target":34962
		},
		{
			"buffer":0,
			"byteLength":18464,
			"byteOffset":55392,
			"target":34962
		},
		{
			"buffer":0,
			"byteLength":13752,
			"byteOffset":73856,
			"target":34963
		},
		{
			"buffer":0,
			"byteLength":73632,
			"byteOffset":87608,
			"target":34962
		},
		{
			"buffer":0,
			"byteLength":73632,
			"byteOffset":161240,
			"target":34962
		},
		{
			"buffer":0,
			"byteLength":49088,
			"byteOffset":234872,
			"target":34962
		},
		{
			"buffer":0,
			"byteLength":36384,
			"byteOffset":283960,
			"target":34963
		},
		{
			"buffer":0,
			"byteLength":21060,
			"byteOffset":320344,
			"target":34962
		},
		{
			"buffer":0,
			"byteLength":21060,
			"byteOffset":341404,
			"target":34962
		},
		{
			"buffer":0,
			"byteLength":14040,
			"byteOffset":362464,
			"target":34962
		},
		{
			"buffer":0,
			"byteLength":10338,
			"byteOffset":376504,
			"target":34963
		},
		{
			"buffer":0,
			"byteLength":6924,
			"byteOffset":386844,
			"target":34962
		},
		{
			"buffer":0,
			"byteLength":6924,
			"byteOffset":393768,
			"target":34962
		},
		{
			"buffer":0,
			"byteLength":4616,
			"byteOffset":400692,
			"target":34962
		},
		{
			"buffer":0,
			"byteLength":3414,
			"byteOffset":405308,
			"target":34963
		},
		{
			"buffer":0,
			"byteLength":61440,
			"byteOffset":408724,
			"target":34962
		},
		{
			"buffer":0,
			"byteLength":61440,
			"byteOffset":470164,
			"target":34962
		},
		{
			"buffer":0,
			"byteLength":40960,
			"byteOffset":531604,
			"target":34962
		},
		{
			"buffer":0,
			"byteLength":52980,
			"byteOffset":572564,
			"target":34963
		},
		{
			"buffer":0,
			"byteLength":52224,
			"byteOffset":625544,
			"target":34962
		},
		{
			"buffer":0,
			"byteLength":52224,
			"byteOffset":677768,
			"target":34962
		},
		{
			"buffer":0,
			"byteLength":34816,
			"byteOffset":729992,
			"target":34962
		},
		{
			"buffer":0,
			"byteLength":46080,
			"byteOffset":764808,
			"target":34963
		},
		{
			"buffer":0,
			"byteLength":1536,
			"byteOffset":810888,
			"target":34962
		},
		{
			"buffer":0,
			"byteLength":1536,
			"byteOffset":812424,
			"target":34962
		},
		{
			"buffer":0,
			"byteLength":1024,
			"byteOffset":813960,
			"target":34962
		},
		{
			"buffer":0,
			"byteLength":1024,
			"byteOffset":814984,
			"target":34962
		},
		{
			"buffer":0,
			"byteLength":756,
			"byteOffset":816008,
			"target":34963
		},
		{
			"buffer":0,
			"byteLength":9648,
			"byteOffset":816764,
			"target":34962
		},
		{
			"buffer":0,
			"byteLength":9648,
			"byteOffset":826412,
			"target":34962
		},
		{
			"buffer":0,
			"byteLength":6432,
			"byteOffset":836060,
			"target":34962
		},
		{
			"buffer":0,
			"byteLength":6432,
			"byteOffset":842492,
			"target":34962
		},
		{
			"buffer":0,
			"byteLength":7656,
			"byteOffset":848924,
			"target":34963
		},
		{
			"buffer":0,
			"byteLength":67596,
			"byteOffset":856580,
			"target":34962
		},
		{
			"buffer":0,
			"byteLength":67596,
			"byteOffset":924176,
			"target":34962
		},
		{
			"buffer":0,
			"byteLength":45064,
			"byteOffset":991772,
			"target":34962
		},
		{
			"buffer":0,
			"byteLength":49152,
			"byteOffset":1036836,
			"target":34963
		},
		{
			"buffer":0,
			"byteLength":82692,
			"byteOffset":1085988,
			"target":34962
		},
		{
			"buffer":0,
			"byteLength":82692,
			"byteOffset":1168680,
			"target":34962
		},
		{
			"buffer":0,
			"byteLength":55128,
			"byteOffset":1251372,
			"target":34962
		},
		{
			"buffer":0,
			"byteLength":49152,
			"byteOffset":1306500,
			"target":34963
		},
		{
			"buffer":0,
			"byteLength":1536,
			"byteOffset":1355652,
			"target":34962
		},
		{
			"buffer":0,
			"byteLength":1536,
			"byteOffset":1357188,
			"target":34962
		},
		{
			"buffer":0,
			"byteLength":1024,
			"byteOffset":1358724,
			"target":34962
		},
		{
			"buffer":0,
			"byteLength":1024,
			"byteOffset":1359748,
			"target":34962
		},
		{
			"buffer":0,
			"byteLength":756,
			"byteOffset":1360772,
			"target":34963
		}
	],
	"samplers":[
		{
			"magFilter":9729,
			"minFilter":9987
		},
		{
			"magFilter":9729,
			"minFilter":9987,
			"wrapS":33071,
			"wrapT":33071
		}
	],
	"buffers":[
		{
			"byteLength":1361528,
			"uri":"PanCake.bin"
		}
	]
}
