{
	"asset":{
		"generator":"Khronos glTF Blender I/O v3.6.27",
		"version":"2.0"
	},
	"extensionsUsed":[
		"KHR_materials_transmission",
		"KHR_materials_ior"
	],
	"scene":0,
	"scenes":[
		{
			"name":"Scene",
			"nodes":[
				0,
				1,
				2,
				3,
				4,
				5,
				6,
				7,
				8
			]
		}
	],
	"nodes":[
		{
			"mesh":0,
			"name":"Cube.019",
			"scale":[
				0.7001960277557373,
				0.7001960277557373,
				0.7001960277557373
			],
			"translation":[
				0,
				-1.4426356554031372,
				0
			]
		},
		{
			"mesh":1,
			"name":"Cube.020",
			"scale":[
				0.7001960277557373,
				0.7001960277557373,
				0.7001960277557373
			],
			"translation":[
				0,
				-1.405297875404358,
				0
			]
		},
		{
			"mesh":2,
			"name":"Cube.021",
			"rotation":[
				-1,
				0,
				0,
				1.6292068494294654e-07
			],
			"scale":[
				0.7001960277557373,
				0.7001960277557373,
				0.7001960277557373
			],
			"translation":[
				0,
				2.2493855953216553,
				0.00018851645290851593
			]
		},
		{
			"mesh":3,
			"name":"Cube.022",
			"scale":[
				0.05519828200340271,
				0.029433609917759895,
				0.06226447969675064
			],
			"translation":[
				0.27366921305656433,
				1.5190403461456299,
				0.008518576622009277
			]
		},
		{
			"mesh":4,
			"name":"Your Logo.014",
			"rotation":[
				0,
				-0.7071068286895752,
				0.7071068286895752,
				3.090862321641907e-08
			],
			"scale":[
				0.6041954159736633,
				0.6041954159736633,
				0.6041954159736633
			],
			"translation":[
				0,
				-0.7845258712768555,
				-0.7031571269035339
			]
		},
		{
			"mesh":5,
			"name":"FOUNDATION-01.008",
			"rotation":[
				0,
				-0.7071068286895752,
				0.7071068286895752,
				3.090862321641907e-08
			],
			"scale":[
				0.3834729492664337,
				0.3834729492664337,
				0.3834729492664337
			],
			"translation":[
				0,
				-1.3269704580307007,
				-0.7012279033660889
			]
		},
		{
			"mesh":6,
			"name":"3-01.007",
			"rotation":[
				0.7071068286895752,
				0,
				0,
				0.7071068286895752
			],
			"scale":[
				0.634767472743988,
				0.634767472743988,
				0.634767472743988
			],
			"translation":[
				0,
				-1.2333581447601318,
				0.7061151266098022
			]
		},
		{
			"mesh":7,
			"name":"Your Logo.015",
			"rotation":[
				0.7071068286895752,
				0,
				0,
				0.7071068286895752
			],
			"scale":[
				0.2408972829580307,
				0.2408972829580307,
				0.2408972829580307
			],
			"translation":[
				0,
				-0.7369423508644104,
				0.7012174129486084
			]
		},
		{
			"mesh":8,
			"name":"Cube.023",
			"scale":[
				0.6962288618087769,
				0.6962288618087769,
				0.6962288618087769
			],
			"translation":[
				0,
				-1.4426356554031372,
				0
			]
		}
	],
	"materials":[
		{
			"doubleSided":true,
			"extensions":{
				"KHR_materials_transmission":{
					"transmissionFactor":1
				},
				"KHR_materials_ior":{
					"ior":1.4500000476837158
				}
			},
			"name":"Material.008",
			"pbrMetallicRoughness":{
				"baseColorFactor":[
					0.800000011920929,
					0.800000011920929,
					0.800000011920929,
					1
				],
				"metallicFactor":0,
				"roughnessFactor":0.30000001192092896
			}
		},
		{
			"doubleSided":true,
			"name":"Material.009",
			"pbrMetallicRoughness":{
				"baseColorFactor":[
					0.6020767092704773,
					0.3987875282764435,
					0.040077704936265945,
					1
				],
				"roughnessFactor":0
			}
		},
		{
			"doubleSided":true,
			"name":"Material.001",
			"pbrMetallicRoughness":{
				"baseColorFactor":[
					0.800000011920929,
					0.800000011920929,
					0.800000011920929,
					1
				],
				"metallicFactor":0,
				"roughnessFactor":0
			}
		},
		{
			"alphaMode":"BLEND",
			"doubleSided":true,
			"name":"Your Logo",
			"pbrMetallicRoughness":{
				"baseColorTexture":{
					"index":0
				},
				"metallicFactor":0,
				"roughnessFactor":0.5
			}
		},
		{
			"alphaMode":"BLEND",
			"doubleSided":true,
			"name":"FOUNDATION-01",
			"pbrMetallicRoughness":{
				"baseColorTexture":{
					"index":1
				},
				"metallicFactor":0,
				"roughnessFactor":0.5
			}
		},
		{
			"alphaMode":"BLEND",
			"doubleSided":true,
			"name":"3-01",
			"pbrMetallicRoughness":{
				"baseColorTexture":{
					"index":2
				},
				"metallicFactor":0,
				"roughnessFactor":0.5
			}
		},
		{
			"doubleSided":true,
			"name":"Material.007",
			"pbrMetallicRoughness":{
				"baseColorFactor":[
					1,
					0.5840779542922974,
					0.44520121812820435,
					1
				],
				"metallicFactor":0,
				"roughnessFactor":0.5
			}
		}
	],
	"meshes":[
		{
			"name":"Cube.016",
			"primitives":[
				{
					"attributes":{
						"POSITION":0,
						"NORMAL":1,
						"TEXCOORD_0":2,
						"TEXCOORD_1":3
					},
					"indices":4,
					"material":0
				}
			]
		},
		{
			"name":"Cube.022",
			"primitives":[
				{
					"attributes":{
						"POSITION":5,
						"NORMAL":6,
						"TEXCOORD_0":7,
						"TEXCOORD_1":8
					},
					"indices":9,
					"material":1
				}
			]
		},
		{
			"name":"Cube.023",
			"primitives":[
				{
					"attributes":{
						"POSITION":10,
						"NORMAL":11,
						"TEXCOORD_0":12,
						"TEXCOORD_1":13
					},
					"indices":14,
					"material":1
				}
			]
		},
		{
			"name":"Cube.024",
			"primitives":[
				{
					"attributes":{
						"POSITION":15,
						"NORMAL":16,
						"TEXCOORD_0":17
					},
					"indices":18,
					"material":2
				}
			]
		},
		{
			"name":"Your Logo.014",
			"primitives":[
				{
					"attributes":{
						"POSITION":19,
						"NORMAL":20,
						"TEXCOORD_0":21
					},
					"indices":22,
					"material":3
				}
			]
		},
		{
			"name":"FOUNDATION-01.008",
			"primitives":[
				{
					"attributes":{
						"POSITION":23,
						"NORMAL":24,
						"TEXCOORD_0":25
					},
					"indices":22,
					"material":4
				}
			]
		},
		{
			"name":"3-01.007",
			"primitives":[
				{
					"attributes":{
						"POSITION":26,
						"NORMAL":27,
						"TEXCOORD_0":28
					},
					"indices":22,
					"material":5
				}
			]
		},
		{
			"name":"Your Logo.015",
			"primitives":[
				{
					"attributes":{
						"POSITION":29,
						"NORMAL":30,
						"TEXCOORD_0":31
					},
					"indices":22,
					"material":3
				}
			]
		},
		{
			"name":"Cube.025",
			"primitives":[
				{
					"attributes":{
						"POSITION":32,
						"NORMAL":33,
						"TEXCOORD_0":34,
						"TEXCOORD_1":35
					},
					"indices":36,
					"material":6
				}
			]
		}
	],
	"textures":[
		{
			"sampler":0,
			"source":0
		},
		{
			"sampler":0,
			"source":1
		},
		{
			"sampler":0,
			"source":2
		}
	],
	"images":[
		{
			"mimeType":"image/png",
			"name":"Your Logo",
			"uri":"textures/Your%20Logo.png"
		},
		{
			"mimeType":"image/png",
			"name":"FOUNDATION-01",
			"uri":"textures/FOUNDATION-01.png"
		},
		{
			"mimeType":"image/png",
			"name":"3-01",
			"uri":"textures/3-01.png"
		}
	],
	"accessors":[
		{
			"bufferView":0,
			"componentType":5126,
			"count":4238,
			"max":[
				1,
				2.0770680904388428,
				1
			],
			"min":[
				-1,
				-1,
				-1
			],
			"type":"VEC3"
		},
		{
			"bufferView":1,
			"componentType":5126,
			"count":4238,
			"type":"VEC3"
		},
		{
			"bufferView":2,
			"componentType":5126,
			"count":4238,
			"type":"VEC2"
		},
		{
			"bufferView":3,
			"componentType":5126,
			"count":4238,
			"type":"VEC2"
		},
		{
			"bufferView":4,
			"componentType":5123,
			"count":18954,
			"type":"SCALAR"
		},
		{
			"bufferView":5,
			"componentType":5126,
			"count":9011,
			"max":[
				1,
				4.2911882400512695,
				1
			],
			"min":[
				-1,
				2.005746364593506,
				-1
			],
			"type":"VEC3"
		},
		{
			"bufferView":6,
			"componentType":5126,
			"count":9011,
			"type":"VEC3"
		},
		{
			"bufferView":7,
			"componentType":5126,
			"count":9011,
			"type":"VEC2"
		},
		{
			"bufferView":8,
			"componentType":5126,
			"count":9011,
			"type":"VEC2"
		},
		{
			"bufferView":9,
			"componentType":5123,
			"count":45474,
			"type":"SCALAR"
		},
		{
			"bufferView":10,
			"componentType":5126,
			"count":10100,
			"max":[
				1,
				2.6361167430877686,
				1.0000005960464478
			],
			"min":[
				-1,
				0.25464534759521484,
				-1
			],
			"type":"VEC3"
		},
		{
			"bufferView":11,
			"componentType":5126,
			"count":10100,
			"type":"VEC3"
		},
		{
			"bufferView":12,
			"componentType":5126,
			"count":10100,
			"type":"VEC2"
		},
		{
			"bufferView":13,
			"componentType":5126,
			"count":10100,
			"type":"VEC2"
		},
		{
			"bufferView":14,
			"componentType":5123,
			"count":52410,
			"type":"SCALAR"
		},
		{
			"bufferView":15,
			"componentType":5126,
			"count":340,
			"max":[
				1,
				1,
				1
			],
			"min":[
				-1,
				-1,
				-1
			],
			"type":"VEC3"
		},
		{
			"bufferView":16,
			"componentType":5126,
			"count":340,
			"type":"VEC3"
		},
		{
			"bufferView":17,
			"componentType":5126,
			"count":340,
			"type":"VEC2"
		},
		{
			"bufferView":18,
			"componentType":5123,
			"count":1002,
			"type":"SCALAR"
		},
		{
			"bufferView":19,
			"componentType":5126,
			"count":4,
			"max":[
				0.612368643283844,
				0,
				0.5
			],
			"min":[
				-0.612368643283844,
				0,
				-0.5
			],
			"type":"VEC3"
		},
		{
			"bufferView":20,
			"componentType":5126,
			"count":4,
			"type":"VEC3"
		},
		{
			"bufferView":21,
			"componentType":5126,
			"count":4,
			"type":"VEC2"
		},
		{
			"bufferView":22,
			"componentType":5123,
			"count":6,
			"type":"SCALAR"
		},
		{
			"bufferView":23,
			"componentType":5126,
			"count":4,
			"max":[
				1.082664966583252,
				0,
				0.5
			],
			"min":[
				-1.082664966583252,
				0,
				-0.5
			],
			"type":"VEC3"
		},
		{
			"bufferView":24,
			"componentType":5126,
			"count":4,
			"type":"VEC3"
		},
		{
			"bufferView":25,
			"componentType":5126,
			"count":4,
			"type":"VEC2"
		},
		{
			"bufferView":26,
			"componentType":5126,
			"count":4,
			"max":[
				0.8642037510871887,
				0,
				0.5
			],
			"min":[
				-0.8642037510871887,
				0,
				-0.5
			],
			"type":"VEC3"
		},
		{
			"bufferView":27,
			"componentType":5126,
			"count":4,
			"type":"VEC3"
		},
		{
			"bufferView":28,
			"componentType":5126,
			"count":4,
			"type":"VEC2"
		},
		{
			"bufferView":29,
			"componentType":5126,
			"count":4,
			"max":[
				0.612368643283844,
				0,
				0.5
			],
			"min":[
				-0.612368643283844,
				0,
				-0.5
			],
			"type":"VEC3"
		},
		{
			"bufferView":30,
			"componentType":5126,
			"count":4,
			"type":"VEC3"
		},
		{
			"bufferView":31,
			"componentType":5126,
			"count":4,
			"type":"VEC2"
		},
		{
			"bufferView":32,
			"componentType":5126,
			"count":2002,
			"max":[
				0.9395747184753418,
				2.019754409790039,
				0.9395747184753418
			],
			"min":[
				-0.9395747184753418,
				-0.6785053610801697,
				-0.9395747184753418
			],
			"type":"VEC3"
		},
		{
			"bufferView":33,
			"componentType":5126,
			"count":2002,
			"type":"VEC3"
		},
		{
			"bufferView":34,
			"componentType":5126,
			"count":2002,
			"type":"VEC2"
		},
		{
			"bufferView":35,
			"componentType":5126,
			"count":2002,
			"type":"VEC2"
		},
		{
			"bufferView":36,
			"componentType":5123,
			"count":10806,
			"type":"SCALAR"
		}
	],
	"bufferViews":[
		{
			"buffer":0,
			"byteLength":50856,
			"byteOffset":0,
			"target":34962
		},
		{
			"buffer":0,
			"byteLength":50856,
			"byteOffset":50856,
			"target":34962
		},
		{
			"buffer":0,
			"byteLength":33904,
			"byteOffset":101712,
			"target":34962
		},
		{
			"buffer":0,
			"byteLength":33904,
			"byteOffset":135616,
			"target":34962
		},
		{
			"buffer":0,
			"byteLength":37908,
			"byteOffset":169520,
			"target":34963
		},
		{
			"buffer":0,
			"byteLength":108132,
			"byteOffset":207428,
			"target":34962
		},
		{
			"buffer":0,
			"byteLength":108132,
			"byteOffset":315560,
			"target":34962
		},
		{
			"buffer":0,
			"byteLength":72088,
			"byteOffset":423692,
			"target":34962
		},
		{
			"buffer":0,
			"byteLength":72088,
			"byteOffset":495780,
			"target":34962
		},
		{
			"buffer":0,
			"byteLength":90948,
			"byteOffset":567868,
			"target":34963
		},
		{
			"buffer":0,
			"byteLength":121200,
			"byteOffset":658816,
			"target":34962
		},
		{
			"buffer":0,
			"byteLength":121200,
			"byteOffset":780016,
			"target":34962
		},
		{
			"buffer":0,
			"byteLength":80800,
			"byteOffset":901216,
			"target":34962
		},
		{
			"buffer":0,
			"byteLength":80800,
			"byteOffset":982016,
			"target":34962
		},
		{
			"buffer":0,
			"byteLength":104820,
			"byteOffset":1062816,
			"target":34963
		},
		{
			"buffer":0,
			"byteLength":4080,
			"byteOffset":1167636,
			"target":34962
		},
		{
			"buffer":0,
			"byteLength":4080,
			"byteOffset":1171716,
			"target":34962
		},
		{
			"buffer":0,
			"byteLength":2720,
			"byteOffset":1175796,
			"target":34962
		},
		{
			"buffer":0,
			"byteLength":2004,
			"byteOffset":1178516,
			"target":34963
		},
		{
			"buffer":0,
			"byteLength":48,
			"byteOffset":1180520,
			"target":34962
		},
		{
			"buffer":0,
			"byteLength":48,
			"byteOffset":1180568,
			"target":34962
		},
		{
			"buffer":0,
			"byteLength":32,
			"byteOffset":1180616,
			"target":34962
		},
		{
			"buffer":0,
			"byteLength":12,
			"byteOffset":1180648,
			"target":34963
		},
		{
			"buffer":0,
			"byteLength":48,
			"byteOffset":1180660,
			"target":34962
		},
		{
			"buffer":0,
			"byteLength":48,
			"byteOffset":1180708,
			"target":34962
		},
		{
			"buffer":0,
			"byteLength":32,
			"byteOffset":1180756,
			"target":34962
		},
		{
			"buffer":0,
			"byteLength":48,
			"byteOffset":1180788,
			"target":34962
		},
		{
			"buffer":0,
			"byteLength":48,
			"byteOffset":1180836,
			"target":34962
		},
		{
			"buffer":0,
			"byteLength":32,
			"byteOffset":1180884,
			"target":34962
		},
		{
			"buffer":0,
			"byteLength":48,
			"byteOffset":1180916,
			"target":34962
		},
		{
			"buffer":0,
			"byteLength":48,
			"byteOffset":1180964,
			"target":34962
		},
		{
			"buffer":0,
			"byteLength":32,
			"byteOffset":1181012,
			"target":34962
		},
		{
			"buffer":0,
			"byteLength":24024,
			"byteOffset":1181044,
			"target":34962
		},
		{
			"buffer":0,
			"byteLength":24024,
			"byteOffset":1205068,
			"target":34962
		},
		{
			"buffer":0,
			"byteLength":16016,
			"byteOffset":1229092,
			"target":34962
		},
		{
			"buffer":0,
			"byteLength":16016,
			"byteOffset":1245108,
			"target":34962
		},
		{
			"buffer":0,
			"byteLength":21612,
			"byteOffset":1261124,
			"target":34963
		}
	],
	"samplers":[
		{
			"magFilter":9729,
			"minFilter":9987,
			"wrapS":33071,
			"wrapT":33071
		}
	],
	"buffers":[
		{
			"byteLength":1282736,
			"uri":"Liquid%20Foundation.bin"
		}
	]
}
