{
	"asset":{
		"generator":"Khronos glTF Blender I/O v3.6.27",
		"version":"2.0"
	},
	"extensionsUsed":[
		"KHR_materials_clearcoat",
		"KHR_materials_transmission",
		"KHR_materials_specular",
		"KHR_materials_ior",
		"KHR_texture_transform"
	],
	"extensionsRequired":[
		"KHR_texture_transform"
	],
	"scene":0,
	"scenes":[
		{
			"name":"Scene",
			"nodes":[
				0,
				1,
				2,
				3,
				4
			]
		}
	],
	"nodes":[
		{
			"mesh":0,
			"name":"Cube.005",
			"scale":[
				0.6822714805603027,
				0.6822714805603027,
				0.3273567259311676
			],
			"translation":[
				0,
				-0.43922001123428345,
				0
			]
		},
		{
			"mesh":1,
			"name":"Cube.006",
			"scale":[
				0.6822714805603027,
				0.6822714805603027,
				0.3273567259311676
			],
			"translation":[
				0,
				-0.43922001123428345,
				0
			]
		},
		{
			"mesh":2,
			"name":"Cylinder.015",
			"scale":[
				0.2828217148780823,
				0.2828217148780823,
				0.2828217148780823
			],
			"translation":[
				0,
				0.534297525882721,
				0
			]
		},
		{
			"mesh":3,
			"name":"CREAM PUFF-01 - Copy",
			"rotation":[
				0.7071068286895752,
				0,
				0,
				0.7071068286895752
			],
			"scale":[
				0.4938141405582428,
				0.4938141405582428,
				0.4938141405582428
			],
			"translation":[
				0,
				-0.252616286277771,
				0.33192408084869385
			]
		},
		{
			"mesh":4,
			"name":"text-01",
			"rotation":[
				0.7071068286895752,
				0,
				0,
				0.7071068286895752
			],
			"scale":[
				0.09825058281421661,
				0.09825058281421661,
				0.09825058281421661
			],
			"translation":[
				0,
				-0.7190136313438416,
				0.32757726311683655
			]
		}
	],
	"materials":[
		{
			"alphaMode":"BLEND",
			"extensions":{
				"KHR_materials_clearcoat":{
					"clearcoatFactor":1,
					"clearcoatRoughnessFactor":0.029999999329447746
				},
				"KHR_materials_transmission":{
					"transmissionFactor":1
				},
				"KHR_materials_specular":{
					"specularColorFactor":[
						1,
						1,
						1
					]
				},
				"KHR_materials_ior":{
					"ior":200
				}
			},
			"name":"AR/VR Glass for GLTF extension",
			"pbrMetallicRoughness":{
				"baseColorFactor":[
					1,
					1,
					1,
					0.5
				],
				"baseColorTexture":{
					"extensions":{
						"KHR_texture_transform":{
							"offset":[
								-10.606601949612863,
								-9.606601485983557
							],
							"rotation":0.7853981852531433,
							"scale":[
								15,
								15
							]
						}
					},
					"index":0,
					"texCoord":1
				},
				"metallicFactor":0.23636363446712494,
				"roughnessFactor":0
			}
		},
		{
			"doubleSided":true,
			"extensions":{
				"KHR_materials_specular":{
					"specularColorFactor":[
						0,
						0,
						0
					]
				},
				"KHR_materials_ior":{
					"ior":500
				}
			},
			"name":"Material.014",
			"pbrMetallicRoughness":{
				"baseColorFactor":[
					0,
					0.3725827932357788,
					0.8000000715255737,
					1
				],
				"metallicFactor":0.36220473051071167,
				"roughnessFactor":0
			}
		},
		{
			"doubleSided":true,
			"name":"Material.007",
			"pbrMetallicRoughness":{
				"baseColorFactor":[
					1,
					0.7230546474456787,
					0.22322814166545868,
					1
				],
				"roughnessFactor":0
			}
		},
		{
			"alphaMode":"BLEND",
			"doubleSided":true,
			"name":"CREAM PUFF-01 - Copy",
			"pbrMetallicRoughness":{
				"baseColorTexture":{
					"index":1
				},
				"metallicFactor":0,
				"roughnessFactor":0.5
			}
		},
		{
			"alphaMode":"BLEND",
			"doubleSided":true,
			"name":"text-01",
			"pbrMetallicRoughness":{
				"baseColorTexture":{
					"index":2
				},
				"metallicFactor":0,
				"roughnessFactor":0.5
			}
		}
	],
	"meshes":[
		{
			"name":"Cube.008",
			"primitives":[
				{
					"attributes":{
						"POSITION":0,
						"NORMAL":1,
						"TEXCOORD_0":2,
						"TEXCOORD_1":3
					},
					"indices":4,
					"material":0
				}
			]
		},
		{
			"name":"Cube.010",
			"primitives":[
				{
					"attributes":{
						"POSITION":5,
						"NORMAL":6,
						"TEXCOORD_0":7
					},
					"indices":8,
					"material":1
				}
			]
		},
		{
			"name":"Cylinder.002",
			"primitives":[
				{
					"attributes":{
						"POSITION":9,
						"NORMAL":10,
						"TEXCOORD_0":11
					},
					"indices":12,
					"material":2
				}
			]
		},
		{
			"name":"CREAM PUFF-01 - Copy",
			"primitives":[
				{
					"attributes":{
						"POSITION":13,
						"NORMAL":14,
						"TEXCOORD_0":15
					},
					"indices":16,
					"material":3
				}
			]
		},
		{
			"name":"text-01",
			"primitives":[
				{
					"attributes":{
						"POSITION":17,
						"NORMAL":18,
						"TEXCOORD_0":19
					},
					"indices":16,
					"material":4
				}
			]
		}
	],
	"textures":[
		{
			"sampler":0,
			"source":0
		},
		{
			"sampler":1,
			"source":1
		},
		{
			"sampler":1,
			"source":2
		}
	],
	"images":[
		{
			"mimeType":"image/jpeg",
			"name":"r",
			"uri":"textures/r.jpg"
		},
		{
			"mimeType":"image/png",
			"name":"CREAM PUFF-01 - Copy",
			"uri":"textures/CREAM%20PUFF-01%20-%20Copy.png"
		},
		{
			"mimeType":"image/png",
			"name":"text-01",
			"uri":"textures/text-01.png"
		}
	],
	"accessors":[
		{
			"bufferView":0,
			"componentType":5126,
			"count":10317,
			"max":[
				1,
				1.1285216808319092,
				1
			],
			"min":[
				-1,
				-1,
				-1
			],
			"type":"VEC3"
		},
		{
			"bufferView":1,
			"componentType":5126,
			"count":10317,
			"type":"VEC3"
		},
		{
			"bufferView":2,
			"componentType":5126,
			"count":10317,
			"type":"VEC2"
		},
		{
			"bufferView":3,
			"componentType":5126,
			"count":10317,
			"type":"VEC2"
		},
		{
			"bufferView":4,
			"componentType":5123,
			"count":40896,
			"type":"SCALAR"
		},
		{
			"bufferView":5,
			"componentType":5126,
			"count":4883,
			"max":[
				0.8616130352020264,
				1.0692942142486572,
				0.864109218120575
			],
			"min":[
				-0.8616130352020264,
				-0.6801452040672302,
				-0.864109218120575
			],
			"type":"VEC3"
		},
		{
			"bufferView":6,
			"componentType":5126,
			"count":4883,
			"type":"VEC3"
		},
		{
			"bufferView":7,
			"componentType":5126,
			"count":4883,
			"type":"VEC2"
		},
		{
			"bufferView":8,
			"componentType":5123,
			"count":20076,
			"type":"SCALAR"
		},
		{
			"bufferView":9,
			"componentType":5126,
			"count":3647,
			"max":[
				1,
				4.1283416748046875,
				1
			],
			"min":[
				-1,
				-1,
				-1
			],
			"type":"VEC3"
		},
		{
			"bufferView":10,
			"componentType":5126,
			"count":3647,
			"type":"VEC3"
		},
		{
			"bufferView":11,
			"componentType":5126,
			"count":3647,
			"type":"VEC2"
		},
		{
			"bufferView":12,
			"componentType":5123,
			"count":13788,
			"type":"SCALAR"
		},
		{
			"bufferView":13,
			"componentType":5126,
			"count":4,
			"max":[
				0.612368643283844,
				0,
				0.5
			],
			"min":[
				-0.612368643283844,
				0,
				-0.5
			],
			"type":"VEC3"
		},
		{
			"bufferView":14,
			"componentType":5126,
			"count":4,
			"type":"VEC3"
		},
		{
			"bufferView":15,
			"componentType":5126,
			"count":4,
			"type":"VEC2"
		},
		{
			"bufferView":16,
			"componentType":5123,
			"count":6,
			"type":"SCALAR"
		},
		{
			"bufferView":17,
			"componentType":5126,
			"count":4,
			"max":[
				5.1796875,
				0,
				0.5
			],
			"min":[
				-5.1796875,
				0,
				-0.5
			],
			"type":"VEC3"
		},
		{
			"bufferView":18,
			"componentType":5126,
			"count":4,
			"type":"VEC3"
		},
		{
			"bufferView":19,
			"componentType":5126,
			"count":4,
			"type":"VEC2"
		}
	],
	"bufferViews":[
		{
			"buffer":0,
			"byteLength":123804,
			"byteOffset":0,
			"target":34962
		},
		{
			"buffer":0,
			"byteLength":123804,
			"byteOffset":123804,
			"target":34962
		},
		{
			"buffer":0,
			"byteLength":82536,
			"byteOffset":247608,
			"target":34962
		},
		{
			"buffer":0,
			"byteLength":82536,
			"byteOffset":330144,
			"target":34962
		},
		{
			"buffer":0,
			"byteLength":81792,
			"byteOffset":412680,
			"target":34963
		},
		{
			"buffer":0,
			"byteLength":58596,
			"byteOffset":494472,
			"target":34962
		},
		{
			"buffer":0,
			"byteLength":58596,
			"byteOffset":553068,
			"target":34962
		},
		{
			"buffer":0,
			"byteLength":39064,
			"byteOffset":611664,
			"target":34962
		},
		{
			"buffer":0,
			"byteLength":40152,
			"byteOffset":650728,
			"target":34963
		},
		{
			"buffer":0,
			"byteLength":43764,
			"byteOffset":690880,
			"target":34962
		},
		{
			"buffer":0,
			"byteLength":43764,
			"byteOffset":734644,
			"target":34962
		},
		{
			"buffer":0,
			"byteLength":29176,
			"byteOffset":778408,
			"target":34962
		},
		{
			"buffer":0,
			"byteLength":27576,
			"byteOffset":807584,
			"target":34963
		},
		{
			"buffer":0,
			"byteLength":48,
			"byteOffset":835160,
			"target":34962
		},
		{
			"buffer":0,
			"byteLength":48,
			"byteOffset":835208,
			"target":34962
		},
		{
			"buffer":0,
			"byteLength":32,
			"byteOffset":835256,
			"target":34962
		},
		{
			"buffer":0,
			"byteLength":12,
			"byteOffset":835288,
			"target":34963
		},
		{
			"buffer":0,
			"byteLength":48,
			"byteOffset":835300,
			"target":34962
		},
		{
			"buffer":0,
			"byteLength":48,
			"byteOffset":835348,
			"target":34962
		},
		{
			"buffer":0,
			"byteLength":32,
			"byteOffset":835396,
			"target":34962
		}
	],
	"samplers":[
		{
			"magFilter":9729,
			"minFilter":9987
		},
		{
			"magFilter":9729,
			"minFilter":9987,
			"wrapS":33071,
			"wrapT":33071
		}
	],
	"buffers":[
		{
			"byteLength":835428,
			"uri":"Nail%20paint.bin"
		}
	]
}
