{
	"asset":{
		"generator":"Khronos glTF Blender I/O v3.6.27",
		"version":"2.0"
	},
	"extensionsUsed":[
		"KHR_materials_transmission",
		"KHR_materials_ior"
	],
	"scene":0,
	"scenes":[
		{
			"name":"Scene",
			"nodes":[
				0,
				1,
				2,
				3,
				4,
				5,
				6,
				7,
				8
			]
		}
	],
	"nodes":[
		{
			"mesh":0,
			"name":"Cube.007",
			"scale":[
				0.6178766489028931,
				0.6178766489028931,
				0.6178766489028931
			],
			"translation":[
				-0.007488727569580078,
				0.425625205039978,
				0
			]
		},
		{
			"mesh":1,
			"name":"3-01.003",
			"rotation":[
				0.7071068286895752,
				0,
				0,
				0.7071068286895752
			],
			"scale":[
				0.6153741478919983,
				0.6153741478919983,
				0.6153741478919983
			],
			"translation":[
				-0.014943502843379974,
				-0.8727282881736755,
				0.6204119920730591
			]
		},
		{
			"mesh":2,
			"name":"Cube.006",
			"scale":[
				0.6057929992675781,
				0.6057929992675781,
				0.6057929992675781
			],
			"translation":[
				-0.010230894200503826,
				-1.1564306020736694,
				0
			]
		},
		{
			"mesh":3,
			"name":"FOUNDATION-01.003",
			"rotation":[
				0,
				-0.7071068286895752,
				0.7071068286895752,
				3.090862321641907e-08
			],
			"scale":[
				0.42147254943847656,
				0.42147254943847656,
				0.42147254943847656
			],
			"translation":[
				-0.022589100524783134,
				-0.9560503959655762,
				-0.6184313297271729
			]
		},
		{
			"mesh":4,
			"name":"Your Logo.004",
			"rotation":[
				0,
				-0.7071068286895752,
				0.7071068286895752,
				3.090862321641907e-08
			],
			"scale":[
				0.5114350914955139,
				0.5114350914955139,
				0.5114350914955139
			],
			"translation":[
				-0.019824134185910225,
				-0.3637067973613739,
				-0.6213718056678772
			]
		},
		{
			"mesh":5,
			"name":"Your Logo.005",
			"rotation":[
				0.7071068286895752,
				0,
				0,
				0.7071067690849304
			],
			"scale":[
				0.2907136380672455,
				0.2907136380672455,
				0.2907136380672455
			],
			"translation":[
				0.0073892101645469666,
				-0.3745042383670807,
				0.6220995187759399
			]
		},
		{
			"mesh":6,
			"name":"Cylinder.007",
			"rotation":[
				0,
				0.3203622102737427,
				0,
				0.9472951292991638
			],
			"scale":[
				0.2530762255191803,
				0.2530762255191803,
				0.2530762255191803
			],
			"translation":[
				0.01228785514831543,
				1.0496107339859009,
				0
			]
		},
		{
			"mesh":7,
			"name":"Cube.015",
			"scale":[
				0.6083981990814209,
				1.0744688510894775,
				0.6083981990814209
			],
			"translation":[
				-0.009502887725830078,
				-0.7162617444992065,
				0
			]
		},
		{
			"mesh":8,
			"name":"Cube.016",
			"scale":[
				0.5991219282150269,
				1.0580863952636719,
				0.5991219282150269
			],
			"translation":[
				-0.009502887725830078,
				-0.7162617444992065,
				0
			]
		}
	],
	"materials":[
		{
			"doubleSided":true,
			"name":"Material.008",
			"pbrMetallicRoughness":{
				"baseColorFactor":[
					0.6020767092704773,
					0.3987875282764435,
					0.040077704936265945,
					1
				],
				"roughnessFactor":0
			}
		},
		{
			"alphaMode":"BLEND",
			"doubleSided":true,
			"name":"3-01",
			"pbrMetallicRoughness":{
				"baseColorTexture":{
					"index":0
				},
				"metallicFactor":0,
				"roughnessFactor":0.5
			}
		},
		{
			"doubleSided":true,
			"name":"Material.002",
			"pbrMetallicRoughness":{
				"baseColorFactor":[
					1,
					0.5840779542922974,
					0.44520121812820435,
					1
				],
				"metallicFactor":0,
				"roughnessFactor":0
			}
		},
		{
			"alphaMode":"BLEND",
			"doubleSided":true,
			"name":"FOUNDATION-01",
			"pbrMetallicRoughness":{
				"baseColorTexture":{
					"index":1
				},
				"metallicFactor":0,
				"roughnessFactor":0.5
			}
		},
		{
			"alphaMode":"BLEND",
			"doubleSided":true,
			"name":"Your Logo",
			"pbrMetallicRoughness":{
				"baseColorTexture":{
					"index":2
				},
				"metallicFactor":0,
				"roughnessFactor":0.5
			}
		},
		{
			"doubleSided":true,
			"name":"Material",
			"pbrMetallicRoughness":{
				"baseColorFactor":[
					0.8000000715255737,
					0.36965295672416687,
					0.20945972204208374,
					1
				],
				"metallicFactor":0,
				"roughnessFactor":0.5
			}
		},
		{
			"doubleSided":true,
			"extensions":{
				"KHR_materials_transmission":{
					"transmissionFactor":1
				},
				"KHR_materials_ior":{
					"ior":1.4500000476837158
				}
			},
			"name":"Material.009",
			"pbrMetallicRoughness":{
				"baseColorFactor":[
					0.800000011920929,
					0.800000011920929,
					0.800000011920929,
					1
				],
				"metallicFactor":0,
				"roughnessFactor":0.30000001192092896
			}
		},
		{
			"doubleSided":true,
			"name":"Material.007",
			"pbrMetallicRoughness":{
				"baseColorFactor":[
					1,
					0.5840779542922974,
					0.44520121812820435,
					1
				],
				"metallicFactor":0,
				"roughnessFactor":0.5
			}
		}
	],
	"meshes":[
		{
			"name":"Cube.004",
			"primitives":[
				{
					"attributes":{
						"POSITION":0,
						"NORMAL":1,
						"TEXCOORD_0":2
					},
					"indices":3,
					"material":0
				}
			]
		},
		{
			"name":"3-01.003",
			"primitives":[
				{
					"attributes":{
						"POSITION":4,
						"NORMAL":5,
						"TEXCOORD_0":6
					},
					"indices":7,
					"material":1
				}
			]
		},
		{
			"name":"Cube.003",
			"primitives":[
				{
					"attributes":{
						"POSITION":8,
						"NORMAL":9,
						"TEXCOORD_0":10
					},
					"indices":11,
					"material":2
				}
			]
		},
		{
			"name":"FOUNDATION-01.003",
			"primitives":[
				{
					"attributes":{
						"POSITION":12,
						"NORMAL":13,
						"TEXCOORD_0":14
					},
					"indices":7,
					"material":3
				}
			]
		},
		{
			"name":"Your Logo.004",
			"primitives":[
				{
					"attributes":{
						"POSITION":15,
						"NORMAL":16,
						"TEXCOORD_0":17
					},
					"indices":7,
					"material":4
				}
			]
		},
		{
			"name":"Your Logo.005",
			"primitives":[
				{
					"attributes":{
						"POSITION":18,
						"NORMAL":19,
						"TEXCOORD_0":20
					},
					"indices":7,
					"material":4
				}
			]
		},
		{
			"name":"Cylinder.013",
			"primitives":[
				{
					"attributes":{
						"POSITION":21,
						"NORMAL":22,
						"TEXCOORD_0":23
					},
					"indices":24,
					"material":5
				},
				{
					"attributes":{
						"POSITION":25,
						"NORMAL":26,
						"TEXCOORD_0":27
					},
					"indices":28,
					"material":5
				}
			]
		},
		{
			"name":"Cube.005",
			"primitives":[
				{
					"attributes":{
						"POSITION":29,
						"NORMAL":30,
						"TEXCOORD_0":31
					},
					"indices":32,
					"material":6
				}
			]
		},
		{
			"name":"Cube.009",
			"primitives":[
				{
					"attributes":{
						"POSITION":33,
						"NORMAL":34,
						"TEXCOORD_0":35
					},
					"indices":36,
					"material":7
				}
			]
		}
	],
	"textures":[
		{
			"sampler":0,
			"source":0
		},
		{
			"sampler":0,
			"source":1
		},
		{
			"sampler":0,
			"source":2
		}
	],
	"images":[
		{
			"mimeType":"image/png",
			"name":"3-01",
			"uri":"textures/3-01.png"
		},
		{
			"mimeType":"image/png",
			"name":"FOUNDATION-01",
			"uri":"textures/FOUNDATION-01.png"
		},
		{
			"mimeType":"image/png",
			"name":"Your Logo",
			"uri":"textures/Your%20Logo.png"
		}
	],
	"accessors":[
		{
			"bufferView":0,
			"componentType":5126,
			"count":2638,
			"max":[
				0.960037112236023,
				1.083158016204834,
				0.960037112236023
			],
			"min":[
				-0.960037112236023,
				-0.11173605918884277,
				-0.960037112236023
			],
			"type":"VEC3"
		},
		{
			"bufferView":1,
			"componentType":5126,
			"count":2638,
			"type":"VEC3"
		},
		{
			"bufferView":2,
			"componentType":5126,
			"count":2638,
			"type":"VEC2"
		},
		{
			"bufferView":3,
			"componentType":5123,
			"count":8880,
			"type":"SCALAR"
		},
		{
			"bufferView":4,
			"componentType":5126,
			"count":4,
			"max":[
				0.8642037510871887,
				0,
				0.5
			],
			"min":[
				-0.8642037510871887,
				0,
				-0.5
			],
			"type":"VEC3"
		},
		{
			"bufferView":5,
			"componentType":5126,
			"count":4,
			"type":"VEC3"
		},
		{
			"bufferView":6,
			"componentType":5126,
			"count":4,
			"type":"VEC2"
		},
		{
			"bufferView":7,
			"componentType":5123,
			"count":6,
			"type":"SCALAR"
		},
		{
			"bufferView":8,
			"componentType":5126,
			"count":109,
			"max":[
				0.960037112236023,
				5.033183574676514,
				0.960037112236023
			],
			"min":[
				-0.960037112236023,
				2.760080575942993,
				-0.960037112236023
			],
			"type":"VEC3"
		},
		{
			"bufferView":9,
			"componentType":5126,
			"count":109,
			"type":"VEC3"
		},
		{
			"bufferView":10,
			"componentType":5126,
			"count":109,
			"type":"VEC2"
		},
		{
			"bufferView":11,
			"componentType":5123,
			"count":426,
			"type":"SCALAR"
		},
		{
			"bufferView":12,
			"componentType":5126,
			"count":4,
			"max":[
				1.082664966583252,
				0,
				0.5
			],
			"min":[
				-1.082664966583252,
				0,
				-0.5
			],
			"type":"VEC3"
		},
		{
			"bufferView":13,
			"componentType":5126,
			"count":4,
			"type":"VEC3"
		},
		{
			"bufferView":14,
			"componentType":5126,
			"count":4,
			"type":"VEC2"
		},
		{
			"bufferView":15,
			"componentType":5126,
			"count":4,
			"max":[
				0.612368643283844,
				0,
				0.5
			],
			"min":[
				-0.612368643283844,
				0,
				-0.5
			],
			"type":"VEC3"
		},
		{
			"bufferView":16,
			"componentType":5126,
			"count":4,
			"type":"VEC3"
		},
		{
			"bufferView":17,
			"componentType":5126,
			"count":4,
			"type":"VEC2"
		},
		{
			"bufferView":18,
			"componentType":5126,
			"count":4,
			"max":[
				0.612368643283844,
				0,
				0.5
			],
			"min":[
				-0.612368643283844,
				0,
				-0.5
			],
			"type":"VEC3"
		},
		{
			"bufferView":19,
			"componentType":5126,
			"count":4,
			"type":"VEC3"
		},
		{
			"bufferView":20,
			"componentType":5126,
			"count":4,
			"type":"VEC2"
		},
		{
			"bufferView":21,
			"componentType":5126,
			"count":479434,
			"max":[
				1.3892289400100708,
				1.372693657875061,
				1.020946979522705
			],
			"min":[
				-1.0114902257919312,
				-1.0000009536743164,
				-1.020946979522705
			],
			"type":"VEC3"
		},
		{
			"bufferView":22,
			"componentType":5126,
			"count":479434,
			"type":"VEC3"
		},
		{
			"bufferView":23,
			"componentType":5126,
			"count":479434,
			"type":"VEC2"
		},
		{
			"bufferView":24,
			"componentType":5125,
			"count":809316,
			"type":"SCALAR"
		},
		{
			"bufferView":25,
			"componentType":5126,
			"count":94,
			"max":[
				1.3892289400100708,
				1.1949126720428467,
				0.0859934538602829
			],
			"min":[
				1.0905070304870605,
				1.1018009185791016,
				-0.0859934538602829
			],
			"type":"VEC3"
		},
		{
			"bufferView":26,
			"componentType":5126,
			"count":94,
			"type":"VEC3"
		},
		{
			"bufferView":27,
			"componentType":5126,
			"count":94,
			"type":"VEC2"
		},
		{
			"bufferView":28,
			"componentType":5123,
			"count":252,
			"type":"SCALAR"
		},
		{
			"bufferView":29,
			"componentType":5126,
			"count":1296,
			"max":[
				1,
				1,
				1
			],
			"min":[
				-1,
				-1,
				-1
			],
			"type":"VEC3"
		},
		{
			"bufferView":30,
			"componentType":5126,
			"count":1296,
			"type":"VEC3"
		},
		{
			"bufferView":31,
			"componentType":5126,
			"count":1296,
			"type":"VEC2"
		},
		{
			"bufferView":32,
			"componentType":5123,
			"count":5970,
			"type":"SCALAR"
		},
		{
			"bufferView":33,
			"componentType":5126,
			"count":594,
			"max":[
				0.9218340516090393,
				1,
				0.9218340516090393
			],
			"min":[
				-0.9218340516090393,
				-0.6591310501098633,
				-0.9218340516090393
			],
			"type":"VEC3"
		},
		{
			"bufferView":34,
			"componentType":5126,
			"count":594,
			"type":"VEC3"
		},
		{
			"bufferView":35,
			"componentType":5126,
			"count":594,
			"type":"VEC2"
		},
		{
			"bufferView":36,
			"componentType":5123,
			"count":3186,
			"type":"SCALAR"
		}
	],
	"bufferViews":[
		{
			"buffer":0,
			"byteLength":31656,
			"byteOffset":0,
			"target":34962
		},
		{
			"buffer":0,
			"byteLength":31656,
			"byteOffset":31656,
			"target":34962
		},
		{
			"buffer":0,
			"byteLength":21104,
			"byteOffset":63312,
			"target":34962
		},
		{
			"buffer":0,
			"byteLength":17760,
			"byteOffset":84416,
			"target":34963
		},
		{
			"buffer":0,
			"byteLength":48,
			"byteOffset":102176,
			"target":34962
		},
		{
			"buffer":0,
			"byteLength":48,
			"byteOffset":102224,
			"target":34962
		},
		{
			"buffer":0,
			"byteLength":32,
			"byteOffset":102272,
			"target":34962
		},
		{
			"buffer":0,
			"byteLength":12,
			"byteOffset":102304,
			"target":34963
		},
		{
			"buffer":0,
			"byteLength":1308,
			"byteOffset":102316,
			"target":34962
		},
		{
			"buffer":0,
			"byteLength":1308,
			"byteOffset":103624,
			"target":34962
		},
		{
			"buffer":0,
			"byteLength":872,
			"byteOffset":104932,
			"target":34962
		},
		{
			"buffer":0,
			"byteLength":852,
			"byteOffset":105804,
			"target":34963
		},
		{
			"buffer":0,
			"byteLength":48,
			"byteOffset":106656,
			"target":34962
		},
		{
			"buffer":0,
			"byteLength":48,
			"byteOffset":106704,
			"target":34962
		},
		{
			"buffer":0,
			"byteLength":32,
			"byteOffset":106752,
			"target":34962
		},
		{
			"buffer":0,
			"byteLength":48,
			"byteOffset":106784,
			"target":34962
		},
		{
			"buffer":0,
			"byteLength":48,
			"byteOffset":106832,
			"target":34962
		},
		{
			"buffer":0,
			"byteLength":32,
			"byteOffset":106880,
			"target":34962
		},
		{
			"buffer":0,
			"byteLength":48,
			"byteOffset":106912,
			"target":34962
		},
		{
			"buffer":0,
			"byteLength":48,
			"byteOffset":106960,
			"target":34962
		},
		{
			"buffer":0,
			"byteLength":32,
			"byteOffset":107008,
			"target":34962
		},
		{
			"buffer":0,
			"byteLength":5753208,
			"byteOffset":107040,
			"target":34962
		},
		{
			"buffer":0,
			"byteLength":5753208,
			"byteOffset":5860248,
			"target":34962
		},
		{
			"buffer":0,
			"byteLength":3835472,
			"byteOffset":11613456,
			"target":34962
		},
		{
			"buffer":0,
			"byteLength":3237264,
			"byteOffset":15448928,
			"target":34963
		},
		{
			"buffer":0,
			"byteLength":1128,
			"byteOffset":18686192,
			"target":34962
		},
		{
			"buffer":0,
			"byteLength":1128,
			"byteOffset":18687320,
			"target":34962
		},
		{
			"buffer":0,
			"byteLength":752,
			"byteOffset":18688448,
			"target":34962
		},
		{
			"buffer":0,
			"byteLength":504,
			"byteOffset":18689200,
			"target":34963
		},
		{
			"buffer":0,
			"byteLength":15552,
			"byteOffset":18689704,
			"target":34962
		},
		{
			"buffer":0,
			"byteLength":15552,
			"byteOffset":18705256,
			"target":34962
		},
		{
			"buffer":0,
			"byteLength":10368,
			"byteOffset":18720808,
			"target":34962
		},
		{
			"buffer":0,
			"byteLength":11940,
			"byteOffset":18731176,
			"target":34963
		},
		{
			"buffer":0,
			"byteLength":7128,
			"byteOffset":18743116,
			"target":34962
		},
		{
			"buffer":0,
			"byteLength":7128,
			"byteOffset":18750244,
			"target":34962
		},
		{
			"buffer":0,
			"byteLength":4752,
			"byteOffset":18757372,
			"target":34962
		},
		{
			"buffer":0,
			"byteLength":6372,
			"byteOffset":18762124,
			"target":34963
		}
	],
	"samplers":[
		{
			"magFilter":9729,
			"minFilter":9987,
			"wrapS":33071,
			"wrapT":33071
		}
	],
	"buffers":[
		{
			"byteLength":18768496,
			"uri":"Liquid%20Foundation2.bin"
		}
	]
}
