{
	"asset":{
		"generator":"Khronos glTF Blender I/O v3.6.27",
		"version":"2.0"
	},
	"scene":0,
	"scenes":[
		{
			"name":"Scene",
			"nodes":[
				0,
				1,
				2,
				3,
				4,
				5,
				6,
				7
			]
		}
	],
	"nodes":[
		{
			"mesh":0,
			"name":"Cube.014",
			"rotation":[
				0,
				1,
				0,
				0
			],
			"scale":[
				-1,
				-0.19479334354400635,
				-1
			]
		},
		{
			"mesh":1,
			"name":"Cube.015",
			"rotation":[
				-0.0009746212745085359,
				0.999988317489624,
				-0.0032947701402008533,
				0.003425920382142067
			],
			"scale":[
				-0.9999999403953552,
				-0.19479332864284515,
				-1
			],
			"translation":[
				0.0052916924469172955,
				0.007829977199435234,
				-0.0020102467387914658
			]
		},
		{
			"mesh":2,
			"name":"Cube.016",
			"scale":[
				0.9497641921043396,
				0.06639879941940308,
				0.9497641921043396
			]
		},
		{
			"mesh":3,
			"name":"Cube.017",
			"rotation":[
				0.005984678398817778,
				-0.7070814967155457,
				0.005984687712043524,
				0.7070814967155457
			],
			"scale":[
				0.9497641921043396,
				0.06639879941940308,
				0.9497641921043396
			],
			"translation":[
				-0.02595442160964012,
				0.027017533779144287,
				-0.005131448619067669
			]
		},
		{
			"mesh":4,
			"name":"Cylinder.021",
			"rotation":[
				0.5,
				-0.5,
				-0.5,
				0.5000000596046448
			],
			"scale":[
				-0.02357102371752262,
				-0.13153009116649628,
				-0.02357102371752262
			],
			"translation":[
				0.8310805559158325,
				0.06311175227165222,
				-0.00479532778263092
			]
		},
		{
			"mesh":5,
			"name":"Cube.018",
			"rotation":[
				0.005304703023284674,
				-0.7070868611335754,
				0.005304692778736353,
				0.7070868611335754
			],
			"scale":[
				0.10529447346925735,
				0.014446948654949665,
				0.021745771169662476
			],
			"translation":[
				0.8042620420455933,
				0.09079176187515259,
				-0.006122522056102753
			]
		},
		{
			"mesh":6,
			"name":"Cube.001",
			"rotation":[
				-0.0009746212745085359,
				0.999988317489624,
				-0.0032947701402008533,
				0.003425920382142067
			],
			"scale":[
				-0.9999999403953552,
				-0.19479332864284515,
				-1
			],
			"translation":[
				0.0052916924469172955,
				0.007829977199435234,
				-0.0020102467387914658
			]
		},
		{
			"mesh":7,
			"name":"Cube.002",
			"rotation":[
				-0.0009746212745085359,
				0.999988317489624,
				-0.0032947701402008533,
				0.003425920382142067
			],
			"scale":[
				-0.9999999403953552,
				-0.19479332864284515,
				-1
			],
			"translation":[
				0.0052916924469172955,
				0.007829977199435234,
				-0.0020102467387914658
			]
		}
	],
	"materials":[
		{
			"doubleSided":true,
			"name":"Material.005",
			"pbrMetallicRoughness":{
				"baseColorFactor":[
					0.6020767092704773,
					0.3987875282764435,
					0.040077704936265945,
					1
				],
				"roughnessFactor":0
			}
		},
		{
			"doubleSided":true,
			"name":"Material",
			"pbrMetallicRoughness":{
				"baseColorFactor":[
					0.800000011920929,
					0.800000011920929,
					0.800000011920929,
					1
				],
				"metallicFactor":0,
				"roughnessFactor":0.06502240896224976
			}
		},
		{
			"doubleSided":true,
			"name":"Procedural Simple Cloth",
			"pbrMetallicRoughness":{
				"metallicFactor":0
			}
		},
		{
			"doubleSided":true,
			"name":"Material.010",
			"pbrMetallicRoughness":{
				"baseColorFactor":[
					0,
					0,
					0,
					1
				],
				"metallicFactor":0.7399103045463562,
				"roughnessFactor":0
			}
		},
		{
			"alphaMode":"BLEND",
			"doubleSided":true,
			"name":"CREAM PUFF-01-01 - Copy.001",
			"pbrMetallicRoughness":{
				"baseColorTexture":{
					"index":0
				},
				"metallicFactor":0,
				"roughnessFactor":0.5
			}
		}
	],
	"meshes":[
		{
			"name":"Cube.014",
			"primitives":[
				{
					"attributes":{
						"POSITION":0,
						"NORMAL":1,
						"TEXCOORD_0":2
					},
					"indices":3,
					"material":0
				}
			]
		},
		{
			"name":"Cube.015",
			"primitives":[
				{
					"attributes":{
						"POSITION":4,
						"NORMAL":5,
						"TEXCOORD_0":6
					},
					"indices":7,
					"material":0
				}
			]
		},
		{
			"name":"Cube.016",
			"primitives":[
				{
					"attributes":{
						"POSITION":8,
						"NORMAL":9,
						"TEXCOORD_0":10
					},
					"indices":11,
					"material":1
				},
				{
					"attributes":{
						"POSITION":12,
						"NORMAL":13,
						"TEXCOORD_0":14
					},
					"indices":15,
					"material":2
				}
			]
		},
		{
			"name":"Cube.017",
			"primitives":[
				{
					"attributes":{
						"POSITION":16,
						"NORMAL":17,
						"TEXCOORD_0":18
					},
					"indices":19,
					"material":1
				}
			]
		},
		{
			"name":"Cylinder.027",
			"primitives":[
				{
					"attributes":{
						"POSITION":20,
						"NORMAL":21,
						"TEXCOORD_0":22
					},
					"indices":23
				}
			]
		},
		{
			"name":"Cube.018",
			"primitives":[
				{
					"attributes":{
						"POSITION":24,
						"NORMAL":25,
						"TEXCOORD_0":26
					},
					"indices":27
				}
			]
		},
		{
			"name":"Cube.019",
			"primitives":[
				{
					"attributes":{
						"POSITION":28,
						"NORMAL":29,
						"TEXCOORD_0":30
					},
					"indices":31,
					"material":3
				}
			]
		},
		{
			"name":"Cube.020",
			"primitives":[
				{
					"attributes":{
						"POSITION":32,
						"NORMAL":33,
						"TEXCOORD_0":34
					},
					"indices":35,
					"material":4
				}
			]
		}
	],
	"textures":[
		{
			"sampler":0,
			"source":0
		}
	],
	"images":[
		{
			"mimeType":"image/png",
			"name":"CREAM PUFF-01 - Copy",
			"uri":"textures/CREAM%20PUFF-01%20-%20Copy.png"
		}
	],
	"accessors":[
		{
			"bufferView":0,
			"componentType":5126,
			"count":333,
			"max":[
				1,
				1,
				0.9994274973869324
			],
			"min":[
				-1,
				-0.002736590802669525,
				-1
			],
			"type":"VEC3"
		},
		{
			"bufferView":1,
			"componentType":5126,
			"count":333,
			"type":"VEC3"
		},
		{
			"bufferView":2,
			"componentType":5126,
			"count":333,
			"type":"VEC2"
		},
		{
			"bufferView":3,
			"componentType":5123,
			"count":1092,
			"type":"SCALAR"
		},
		{
			"bufferView":4,
			"componentType":5126,
			"count":1025,
			"max":[
				1,
				0.9996824264526367,
				1
			],
			"min":[
				-1,
				-1,
				-1
			],
			"type":"VEC3"
		},
		{
			"bufferView":5,
			"componentType":5126,
			"count":1025,
			"type":"VEC3"
		},
		{
			"bufferView":6,
			"componentType":5126,
			"count":1025,
			"type":"VEC2"
		},
		{
			"bufferView":7,
			"componentType":5123,
			"count":3126,
			"type":"SCALAR"
		},
		{
			"bufferView":8,
			"componentType":5126,
			"count":6208,
			"max":[
				1,
				1,
				1
			],
			"min":[
				-1,
				-1.3705060482025146,
				-1
			],
			"type":"VEC3"
		},
		{
			"bufferView":9,
			"componentType":5126,
			"count":6208,
			"type":"VEC3"
		},
		{
			"bufferView":10,
			"componentType":5126,
			"count":6208,
			"type":"VEC2"
		},
		{
			"bufferView":11,
			"componentType":5123,
			"count":32070,
			"type":"SCALAR"
		},
		{
			"bufferView":12,
			"componentType":5126,
			"count":102,
			"max":[
				0.8026997447013855,
				0.38829362392425537,
				0.8026997447013855
			],
			"min":[
				-0.8026997447013855,
				0.38829362392425537,
				-0.8026996850967407
			],
			"type":"VEC3"
		},
		{
			"bufferView":13,
			"componentType":5126,
			"count":102,
			"type":"VEC3"
		},
		{
			"bufferView":14,
			"componentType":5126,
			"count":102,
			"type":"VEC2"
		},
		{
			"bufferView":15,
			"componentType":5123,
			"count":300,
			"type":"SCALAR"
		},
		{
			"bufferView":16,
			"componentType":5126,
			"count":2939,
			"max":[
				0.8883516788482666,
				0.8207507133483887,
				0.928554892539978
			],
			"min":[
				-0.8883516788482666,
				-0.6283281445503235,
				-0.888351559638977
			],
			"type":"VEC3"
		},
		{
			"bufferView":17,
			"componentType":5126,
			"count":2939,
			"type":"VEC3"
		},
		{
			"bufferView":18,
			"componentType":5126,
			"count":2939,
			"type":"VEC2"
		},
		{
			"bufferView":19,
			"componentType":5123,
			"count":12672,
			"type":"SCALAR"
		},
		{
			"bufferView":20,
			"componentType":5126,
			"count":402,
			"max":[
				1,
				1,
				1
			],
			"min":[
				-1,
				-1,
				-1
			],
			"type":"VEC3"
		},
		{
			"bufferView":21,
			"componentType":5126,
			"count":402,
			"type":"VEC3"
		},
		{
			"bufferView":22,
			"componentType":5126,
			"count":402,
			"type":"VEC2"
		},
		{
			"bufferView":23,
			"componentType":5123,
			"count":1188,
			"type":"SCALAR"
		},
		{
			"bufferView":24,
			"componentType":5126,
			"count":24,
			"max":[
				1,
				1,
				1
			],
			"min":[
				-1,
				-1,
				-1
			],
			"type":"VEC3"
		},
		{
			"bufferView":25,
			"componentType":5126,
			"count":24,
			"type":"VEC3"
		},
		{
			"bufferView":26,
			"componentType":5126,
			"count":24,
			"type":"VEC2"
		},
		{
			"bufferView":27,
			"componentType":5123,
			"count":36,
			"type":"SCALAR"
		},
		{
			"bufferView":28,
			"componentType":5126,
			"count":60,
			"max":[
				0.9687119722366333,
				-0.9979835748672485,
				0.9687119722366333
			],
			"min":[
				-0.9687119722366333,
				-0.9979835748672485,
				-0.9687119722366333
			],
			"type":"VEC3"
		},
		{
			"bufferView":29,
			"componentType":5126,
			"count":60,
			"type":"VEC3"
		},
		{
			"bufferView":30,
			"componentType":5126,
			"count":60,
			"type":"VEC2"
		},
		{
			"bufferView":31,
			"componentType":5123,
			"count":174,
			"type":"SCALAR"
		},
		{
			"bufferView":32,
			"componentType":5126,
			"count":4,
			"max":[
				0.3471520245075226,
				-1.0100014209747314,
				0.2467147707939148
			],
			"min":[
				-0.3471520245075226,
				-1.0179097652435303,
				-0.3201836347579956
			],
			"type":"VEC3"
		},
		{
			"bufferView":33,
			"componentType":5126,
			"count":4,
			"type":"VEC3"
		},
		{
			"bufferView":34,
			"componentType":5126,
			"count":4,
			"type":"VEC2"
		},
		{
			"bufferView":35,
			"componentType":5123,
			"count":6,
			"type":"SCALAR"
		}
	],
	"bufferViews":[
		{
			"buffer":0,
			"byteLength":3996,
			"byteOffset":0,
			"target":34962
		},
		{
			"buffer":0,
			"byteLength":3996,
			"byteOffset":3996,
			"target":34962
		},
		{
			"buffer":0,
			"byteLength":2664,
			"byteOffset":7992,
			"target":34962
		},
		{
			"buffer":0,
			"byteLength":2184,
			"byteOffset":10656,
			"target":34963
		},
		{
			"buffer":0,
			"byteLength":12300,
			"byteOffset":12840,
			"target":34962
		},
		{
			"buffer":0,
			"byteLength":12300,
			"byteOffset":25140,
			"target":34962
		},
		{
			"buffer":0,
			"byteLength":8200,
			"byteOffset":37440,
			"target":34962
		},
		{
			"buffer":0,
			"byteLength":6252,
			"byteOffset":45640,
			"target":34963
		},
		{
			"buffer":0,
			"byteLength":74496,
			"byteOffset":51892,
			"target":34962
		},
		{
			"buffer":0,
			"byteLength":74496,
			"byteOffset":126388,
			"target":34962
		},
		{
			"buffer":0,
			"byteLength":49664,
			"byteOffset":200884,
			"target":34962
		},
		{
			"buffer":0,
			"byteLength":64140,
			"byteOffset":250548,
			"target":34963
		},
		{
			"buffer":0,
			"byteLength":1224,
			"byteOffset":314688,
			"target":34962
		},
		{
			"buffer":0,
			"byteLength":1224,
			"byteOffset":315912,
			"target":34962
		},
		{
			"buffer":0,
			"byteLength":816,
			"byteOffset":317136,
			"target":34962
		},
		{
			"buffer":0,
			"byteLength":600,
			"byteOffset":317952,
			"target":34963
		},
		{
			"buffer":0,
			"byteLength":35268,
			"byteOffset":318552,
			"target":34962
		},
		{
			"buffer":0,
			"byteLength":35268,
			"byteOffset":353820,
			"target":34962
		},
		{
			"buffer":0,
			"byteLength":23512,
			"byteOffset":389088,
			"target":34962
		},
		{
			"buffer":0,
			"byteLength":25344,
			"byteOffset":412600,
			"target":34963
		},
		{
			"buffer":0,
			"byteLength":4824,
			"byteOffset":437944,
			"target":34962
		},
		{
			"buffer":0,
			"byteLength":4824,
			"byteOffset":442768,
			"target":34962
		},
		{
			"buffer":0,
			"byteLength":3216,
			"byteOffset":447592,
			"target":34962
		},
		{
			"buffer":0,
			"byteLength":2376,
			"byteOffset":450808,
			"target":34963
		},
		{
			"buffer":0,
			"byteLength":288,
			"byteOffset":453184,
			"target":34962
		},
		{
			"buffer":0,
			"byteLength":288,
			"byteOffset":453472,
			"target":34962
		},
		{
			"buffer":0,
			"byteLength":192,
			"byteOffset":453760,
			"target":34962
		},
		{
			"buffer":0,
			"byteLength":72,
			"byteOffset":453952,
			"target":34963
		},
		{
			"buffer":0,
			"byteLength":720,
			"byteOffset":454024,
			"target":34962
		},
		{
			"buffer":0,
			"byteLength":720,
			"byteOffset":454744,
			"target":34962
		},
		{
			"buffer":0,
			"byteLength":480,
			"byteOffset":455464,
			"target":34962
		},
		{
			"buffer":0,
			"byteLength":348,
			"byteOffset":455944,
			"target":34963
		},
		{
			"buffer":0,
			"byteLength":48,
			"byteOffset":456292,
			"target":34962
		},
		{
			"buffer":0,
			"byteLength":48,
			"byteOffset":456340,
			"target":34962
		},
		{
			"buffer":0,
			"byteLength":32,
			"byteOffset":456388,
			"target":34962
		},
		{
			"buffer":0,
			"byteLength":12,
			"byteOffset":456420,
			"target":34963
		}
	],
	"samplers":[
		{
			"magFilter":9729,
			"minFilter":9987,
			"wrapS":33071,
			"wrapT":33071
		}
	],
	"buffers":[
		{
			"byteLength":456432,
			"uri":"Luxury%20compact%20powder1.bin"
		}
	]
}
