{
	"asset":{
		"generator":"Khronos glTF Blender I/O v3.6.27",
		"version":"2.0"
	},
	"scene":0,
	"scenes":[
		{
			"name":"Scene",
			"nodes":[
				0,
				1,
				2,
				3,
				4,
				5,
				6,
				7,
				8
			]
		}
	],
	"nodes":[
		{
			"mesh":0,
			"name":"Text.002",
			"scale":[
				0.18590712547302246,
				0.18590712547302246,
				0.18590712547302246
			],
			"translation":[
				-0.2588104009628296,
				0.2295132726430893,
				0
			]
		},
		{
			"mesh":1,
			"name":"Text.003",
			"scale":[
				0.18590712547302246,
				0.18590712547302246,
				0.18590712547302246
			],
			"translation":[
				-0.2588104009628296,
				0.2295132726430893,
				0
			]
		},
		{
			"mesh":2,
			"name":"BACK STICKER2-01-01",
			"rotation":[
				0,
				0,
				1,
				1.6292069915380125e-07
			],
			"scale":[
				1.8543413877487183,
				1.8543413877487183,
				1.8543413877487183
			],
			"translation":[
				0,
				-0.11367946863174438,
				0
			]
		},
		{
			"mesh":3,
			"name":"Cylinder.003"
		},
		{
			"mesh":4,
			"name":"Cylinder.004",
			"translation":[
				0,
				0.09231148660182953,
				0
			]
		},
		{
			"mesh":5,
			"name":"Cylinder.005",
			"translation":[
				0,
				0.16029389202594757,
				0
			]
		},
		{
			"mesh":6,
			"name":"Cylinder.006",
			"translation":[
				0,
				0.21920035779476166,
				0
			]
		},
		{
			"mesh":7,
			"name":"pan cake-01-01",
			"scale":[
				0.5490139722824097,
				0.5490142703056335,
				0.5490142703056335
			],
			"translation":[
				0,
				0.2114267647266388,
				0.5956000089645386
			]
		},
		{
			"mesh":8,
			"name":"YOUR LOGO-01",
			"scale":[
				0.6030449867248535,
				0.603044867515564,
				0.603044867515564
			],
			"translation":[
				0,
				0.20883630216121674,
				-0.6493016481399536
			]
		}
	],
	"materials":[
		{
			"alphaMode":"BLEND",
			"name":"Glass.001",
			"occlusionTexture":{
				"index":0
			},
			"pbrMetallicRoughness":{
				"baseColorTexture":{
					"index":1
				},
				"metallicRoughnessTexture":{
					"index":0
				}
			}
		},
		{
			"doubleSided":true,
			"name":"Material",
			"pbrMetallicRoughness":{
				"baseColorTexture":{
					"index":2
				},
				"roughnessFactor":0.20000000298023224
			}
		},
		{
			"alphaMode":"BLEND",
			"doubleSided":true,
			"name":"BACK STICKER2-01-01",
			"pbrMetallicRoughness":{
				"baseColorTexture":{
					"index":3
				},
				"metallicFactor":0,
				"roughnessFactor":0.1409090906381607
			}
		},
		{
			"doubleSided":true,
			"name":"Material.001",
			"pbrMetallicRoughness":{
				"baseColorTexture":{
					"index":4
				},
				"metallicFactor":0,
				"roughnessFactor":0.10000000149011612
			}
		},
		{
			"doubleSided":true,
			"name":"Procedural Simple Cloth",
			"pbrMetallicRoughness":{
				"baseColorTexture":{
					"index":5,
					"texCoord":1
				},
				"metallicFactor":0
			}
		},
		{
			"alphaMode":"BLEND",
			"doubleSided":true,
			"name":"pan cake-01-01",
			"pbrMetallicRoughness":{
				"baseColorTexture":{
					"index":6
				},
				"metallicFactor":0,
				"roughnessFactor":0.5
			}
		},
		{
			"alphaMode":"BLEND",
			"doubleSided":true,
			"name":"YOUR LOGO-01",
			"pbrMetallicRoughness":{
				"baseColorTexture":{
					"index":7
				},
				"metallicFactor":0,
				"roughnessFactor":0.5
			}
		}
	],
	"meshes":[
		{
			"name":"Text.002",
			"primitives":[
				{
					"attributes":{
						"POSITION":0,
						"NORMAL":1,
						"TEXCOORD_0":2
					},
					"indices":3,
					"material":0
				}
			]
		},
		{
			"name":"Text.003",
			"primitives":[
				{
					"attributes":{
						"POSITION":4,
						"NORMAL":5,
						"TEXCOORD_0":6
					},
					"indices":7,
					"material":1
				}
			]
		},
		{
			"name":"BACK STICKER2-01-01",
			"primitives":[
				{
					"attributes":{
						"POSITION":8,
						"NORMAL":9,
						"TEXCOORD_0":10
					},
					"indices":11,
					"material":2
				}
			]
		},
		{
			"name":"Cylinder.006",
			"primitives":[
				{
					"attributes":{
						"POSITION":12,
						"NORMAL":13,
						"TEXCOORD_0":14
					},
					"indices":15,
					"material":3
				}
			]
		},
		{
			"name":"Cylinder.007",
			"primitives":[
				{
					"attributes":{
						"POSITION":16,
						"NORMAL":17,
						"TEXCOORD_0":18
					},
					"indices":19,
					"material":3
				}
			]
		},
		{
			"name":"Cylinder.008",
			"primitives":[
				{
					"attributes":{
						"POSITION":20,
						"NORMAL":21,
						"TEXCOORD_0":22,
						"TEXCOORD_1":23
					},
					"indices":24,
					"material":4
				}
			]
		},
		{
			"name":"Cylinder.009",
			"primitives":[
				{
					"attributes":{
						"POSITION":25,
						"NORMAL":26,
						"TEXCOORD_0":27,
						"TEXCOORD_1":28
					},
					"indices":29,
					"material":0
				}
			]
		},
		{
			"name":"pan cake-01-01",
			"primitives":[
				{
					"attributes":{
						"POSITION":30,
						"NORMAL":31,
						"TEXCOORD_0":32
					},
					"indices":33,
					"material":5
				}
			]
		},
		{
			"name":"YOUR LOGO-01",
			"primitives":[
				{
					"attributes":{
						"POSITION":34,
						"NORMAL":35,
						"TEXCOORD_0":36
					},
					"indices":37,
					"material":6
				}
			]
		}
	],
	"textures":[
		{
			"sampler":0,
			"source":0
		},
		{
			"sampler":0,
			"source":1
		},
		{
			"sampler":0,
			"source":2
		},
		{
			"sampler":1,
			"source":3
		},
		{
			"sampler":0,
			"source":4
		},
		{
			"sampler":0,
			"source":5
		},
		{
			"sampler":1,
			"source":6
		},
		{
			"sampler":1,
			"source":7
		}
	],
	"images":[
		{
			"mimeType":"image/png",
			"name":"Image_1",
			"uri":"textures/Image_1.png"
		},
		{
			"mimeType":"image/png",
			"name":"Image_0",
			"uri":"textures/Image_0.png"
		},
		{
			"mimeType":"image/png",
			"name":"silver-02",
			"uri":"textures/silver-02.png"
		},
		{
			"mimeType":"image/png",
			"name":"BACK STICKER2-01-01.png",
			"uri":"textures/BACK%20STICKER2-01-01_png.png"
		},
		{
			"mimeType":"image/png",
			"name":"black 2",
			"uri":"textures/black%202.png"
		},
		{
			"mimeType":"image/png",
			"name":"powder",
			"uri":"textures/powder.png"
		},
		{
			"mimeType":"image/png",
			"name":"pan cake-01-01",
			"uri":"textures/pan%20cake-01-01.png"
		},
		{
			"mimeType":"image/png",
			"name":"your logo white-01",
			"uri":"textures/your%20logo%20white-01.png"
		}
	],
	"accessors":[
		{
			"bufferView":0,
			"componentType":5126,
			"count":1755,
			"max":[
				2.8310000896453857,
				0.04999999701976776,
				1.0089999437332153
			],
			"min":[
				0,
				-0.04999999701976776,
				-0.6910000443458557
			],
			"type":"VEC3"
		},
		{
			"bufferView":1,
			"componentType":5126,
			"count":1755,
			"type":"VEC3"
		},
		{
			"bufferView":2,
			"componentType":5126,
			"count":1755,
			"type":"VEC2"
		},
		{
			"bufferView":3,
			"componentType":5123,
			"count":5169,
			"type":"SCALAR"
		},
		{
			"bufferView":4,
			"componentType":5126,
			"count":577,
			"max":[
				2.8310000896453857,
				0.04999999701976776,
				1.0089999437332153
			],
			"min":[
				0,
				0.04999999701976776,
				-0.6910000443458557
			],
			"type":"VEC3"
		},
		{
			"bufferView":5,
			"componentType":5126,
			"count":577,
			"type":"VEC3"
		},
		{
			"bufferView":6,
			"componentType":5126,
			"count":577,
			"type":"VEC2"
		},
		{
			"bufferView":7,
			"componentType":5123,
			"count":1707,
			"type":"SCALAR"
		},
		{
			"bufferView":8,
			"componentType":5126,
			"count":4,
			"max":[
				0.5,
				0,
				0.5
			],
			"min":[
				-0.5,
				0,
				-0.5
			],
			"type":"VEC3"
		},
		{
			"bufferView":9,
			"componentType":5126,
			"count":4,
			"type":"VEC3"
		},
		{
			"bufferView":10,
			"componentType":5126,
			"count":4,
			"type":"VEC2"
		},
		{
			"bufferView":11,
			"componentType":5123,
			"count":6,
			"type":"SCALAR"
		},
		{
			"bufferView":12,
			"componentType":5126,
			"count":4736,
			"max":[
				1.0265965461730957,
				0.17214912176132202,
				1.0264701843261719
			],
			"min":[
				-1.0265090465545654,
				-0.11929219961166382,
				-1.0266354084014893
			],
			"type":"VEC3"
		},
		{
			"bufferView":13,
			"componentType":5126,
			"count":4736,
			"type":"VEC3"
		},
		{
			"bufferView":14,
			"componentType":5126,
			"count":4736,
			"type":"VEC2"
		},
		{
			"bufferView":15,
			"componentType":5123,
			"count":25722,
			"type":"SCALAR"
		},
		{
			"bufferView":16,
			"componentType":5126,
			"count":4352,
			"max":[
				1.023619532585144,
				0.12063992023468018,
				1.023619532585144
			],
			"min":[
				-1.023619532585144,
				-0.16473311185836792,
				-1.023619532585144
			],
			"type":"VEC3"
		},
		{
			"bufferView":17,
			"componentType":5126,
			"count":4352,
			"type":"VEC3"
		},
		{
			"bufferView":18,
			"componentType":5126,
			"count":4352,
			"type":"VEC2"
		},
		{
			"bufferView":19,
			"componentType":5123,
			"count":23040,
			"type":"SCALAR"
		},
		{
			"bufferView":20,
			"componentType":5126,
			"count":128,
			"max":[
				0.9899221658706665,
				-8.940696716308594e-07,
				0.9899221658706665
			],
			"min":[
				-0.9899221658706665,
				-8.940696716308594e-07,
				-0.9899221658706665
			],
			"type":"VEC3"
		},
		{
			"bufferView":21,
			"componentType":5126,
			"count":128,
			"type":"VEC3"
		},
		{
			"bufferView":22,
			"componentType":5126,
			"count":128,
			"type":"VEC2"
		},
		{
			"bufferView":23,
			"componentType":5126,
			"count":128,
			"type":"VEC2"
		},
		{
			"bufferView":24,
			"componentType":5123,
			"count":378,
			"type":"SCALAR"
		},
		{
			"bufferView":25,
			"componentType":5126,
			"count":804,
			"max":[
				0.41378867626190186,
				0.0037797396071255207,
				0.41378864645957947
			],
			"min":[
				-0.4137886166572571,
				-0.004024088382720947,
				-0.4137885868549347
			],
			"type":"VEC3"
		},
		{
			"bufferView":26,
			"componentType":5126,
			"count":804,
			"type":"VEC3"
		},
		{
			"bufferView":27,
			"componentType":5126,
			"count":804,
			"type":"VEC2"
		},
		{
			"bufferView":28,
			"componentType":5126,
			"count":804,
			"type":"VEC2"
		},
		{
			"bufferView":29,
			"componentType":5123,
			"count":3828,
			"type":"SCALAR"
		},
		{
			"bufferView":30,
			"componentType":5126,
			"count":5633,
			"max":[
				1.4183478355407715,
				0.003311008680611849,
				0.502684473991394
			],
			"min":[
				-1.4183547496795654,
				-0.0300770103931427,
				-0.49731653928756714
			],
			"type":"VEC3"
		},
		{
			"bufferView":31,
			"componentType":5126,
			"count":5633,
			"type":"VEC3"
		},
		{
			"bufferView":32,
			"componentType":5126,
			"count":5633,
			"type":"VEC2"
		},
		{
			"bufferView":33,
			"componentType":5123,
			"count":24576,
			"type":"SCALAR"
		},
		{
			"bufferView":34,
			"componentType":5126,
			"count":6891,
			"max":[
				1.4183518886566162,
				0.007587176747620106,
				0.47566476464271545
			],
			"min":[
				-1.4183499813079834,
				-0.022809404879808426,
				-0.5243362188339233
			],
			"type":"VEC3"
		},
		{
			"bufferView":35,
			"componentType":5126,
			"count":6891,
			"type":"VEC3"
		},
		{
			"bufferView":36,
			"componentType":5126,
			"count":6891,
			"type":"VEC2"
		},
		{
			"bufferView":37,
			"componentType":5123,
			"count":24576,
			"type":"SCALAR"
		}
	],
	"bufferViews":[
		{
			"buffer":0,
			"byteLength":21060,
			"byteOffset":0,
			"target":34962
		},
		{
			"buffer":0,
			"byteLength":21060,
			"byteOffset":21060,
			"target":34962
		},
		{
			"buffer":0,
			"byteLength":14040,
			"byteOffset":42120,
			"target":34962
		},
		{
			"buffer":0,
			"byteLength":10338,
			"byteOffset":56160,
			"target":34963
		},
		{
			"buffer":0,
			"byteLength":6924,
			"byteOffset":66500,
			"target":34962
		},
		{
			"buffer":0,
			"byteLength":6924,
			"byteOffset":73424,
			"target":34962
		},
		{
			"buffer":0,
			"byteLength":4616,
			"byteOffset":80348,
			"target":34962
		},
		{
			"buffer":0,
			"byteLength":3414,
			"byteOffset":84964,
			"target":34963
		},
		{
			"buffer":0,
			"byteLength":48,
			"byteOffset":88380,
			"target":34962
		},
		{
			"buffer":0,
			"byteLength":48,
			"byteOffset":88428,
			"target":34962
		},
		{
			"buffer":0,
			"byteLength":32,
			"byteOffset":88476,
			"target":34962
		},
		{
			"buffer":0,
			"byteLength":12,
			"byteOffset":88508,
			"target":34963
		},
		{
			"buffer":0,
			"byteLength":56832,
			"byteOffset":88520,
			"target":34962
		},
		{
			"buffer":0,
			"byteLength":56832,
			"byteOffset":145352,
			"target":34962
		},
		{
			"buffer":0,
			"byteLength":37888,
			"byteOffset":202184,
			"target":34962
		},
		{
			"buffer":0,
			"byteLength":51444,
			"byteOffset":240072,
			"target":34963
		},
		{
			"buffer":0,
			"byteLength":52224,
			"byteOffset":291516,
			"target":34962
		},
		{
			"buffer":0,
			"byteLength":52224,
			"byteOffset":343740,
			"target":34962
		},
		{
			"buffer":0,
			"byteLength":34816,
			"byteOffset":395964,
			"target":34962
		},
		{
			"buffer":0,
			"byteLength":46080,
			"byteOffset":430780,
			"target":34963
		},
		{
			"buffer":0,
			"byteLength":1536,
			"byteOffset":476860,
			"target":34962
		},
		{
			"buffer":0,
			"byteLength":1536,
			"byteOffset":478396,
			"target":34962
		},
		{
			"buffer":0,
			"byteLength":1024,
			"byteOffset":479932,
			"target":34962
		},
		{
			"buffer":0,
			"byteLength":1024,
			"byteOffset":480956,
			"target":34962
		},
		{
			"buffer":0,
			"byteLength":756,
			"byteOffset":481980,
			"target":34963
		},
		{
			"buffer":0,
			"byteLength":9648,
			"byteOffset":482736,
			"target":34962
		},
		{
			"buffer":0,
			"byteLength":9648,
			"byteOffset":492384,
			"target":34962
		},
		{
			"buffer":0,
			"byteLength":6432,
			"byteOffset":502032,
			"target":34962
		},
		{
			"buffer":0,
			"byteLength":6432,
			"byteOffset":508464,
			"target":34962
		},
		{
			"buffer":0,
			"byteLength":7656,
			"byteOffset":514896,
			"target":34963
		},
		{
			"buffer":0,
			"byteLength":67596,
			"byteOffset":522552,
			"target":34962
		},
		{
			"buffer":0,
			"byteLength":67596,
			"byteOffset":590148,
			"target":34962
		},
		{
			"buffer":0,
			"byteLength":45064,
			"byteOffset":657744,
			"target":34962
		},
		{
			"buffer":0,
			"byteLength":49152,
			"byteOffset":702808,
			"target":34963
		},
		{
			"buffer":0,
			"byteLength":82692,
			"byteOffset":751960,
			"target":34962
		},
		{
			"buffer":0,
			"byteLength":82692,
			"byteOffset":834652,
			"target":34962
		},
		{
			"buffer":0,
			"byteLength":55128,
			"byteOffset":917344,
			"target":34962
		},
		{
			"buffer":0,
			"byteLength":49152,
			"byteOffset":972472,
			"target":34963
		}
	],
	"samplers":[
		{
			"magFilter":9729,
			"minFilter":9987
		},
		{
			"magFilter":9729,
			"minFilter":9987,
			"wrapS":33071,
			"wrapT":33071
		}
	],
	"buffers":[
		{
			"byteLength":1021624,
			"uri":"PanCake.bin"
		}
	]
}
