{
	"asset":{
		"generator":"Khronos glTF Blender I/O v3.6.27",
		"version":"2.0"
	},
	"scene":0,
	"scenes":[
		{
			"name":"Scene",
			"nodes":[
				0,
				1,
				2,
				3
			]
		}
	],
	"nodes":[
		{
			"mesh":0,
			"name":"CREAM PUFF-01-01.002",
			"rotation":[
				0,
				0.9999785423278809,
				0,
				0.006550699006766081
			],
			"scale":[
				0.649757444858551,
				0.6497578024864197,
				0.6497577428817749
			],
			"translation":[
				-0.014610779471695423,
				0.46205857396125793,
				0.008591178804636002
			]
		},
		{
			"mesh":1,
			"name":"Cylinder.003"
		},
		{
			"mesh":2,
			"name":"Cylinder.005",
			"rotation":[
				0,
				0.9999785423278809,
				0,
				0.0065506985411047935
			],
			"scale":[
				0.8888800144195557,
				0.13662749528884888,
				0.8888797760009766
			],
			"translation":[
				0,
				0.31775322556495667,
				-0.00305499997921288
			]
		},
		{
			"mesh":3,
			"name":"Cylinder.001",
			"rotation":[
				0,
				0.9999785423278809,
				0,
				0.0065506985411047935
			],
			"scale":[
				0.8888800144195557,
				0.13662749528884888,
				0.8888797760009766
			],
			"translation":[
				0,
				0.31775322556495667,
				-0.00305499997921288
			]
		}
	],
	"materials":[
		{
			"alphaMode":"BLEND",
			"doubleSided":true,
			"name":"CREAM PUFF-01-01",
			"pbrMetallicRoughness":{
				"baseColorTexture":{
					"index":0
				},
				"metallicFactor":0,
				"roughnessFactor":0.5
			}
		},
		{
			"doubleSided":true,
			"name":"rough002",
			"pbrMetallicRoughness":{
				"baseColorTexture":{
					"index":1,
					"texCoord":1
				},
				"metallicFactor":0,
				"roughnessFactor":0.20000000298023224
			}
		},
		{
			"doubleSided":true,
			"name":"rough002.001",
			"pbrMetallicRoughness":{
				"baseColorTexture":{
					"index":2
				},
				"metallicFactor":0,
				"roughnessFactor":0.20000000298023224
			}
		},
		{
			"doubleSided":true,
			"name":"Material.001",
			"pbrMetallicRoughness":{
				"baseColorTexture":{
					"index":3
				},
				"metallicFactor":0,
				"roughnessFactor":0.10000000149011612
			}
		}
	],
	"meshes":[
		{
			"name":"CREAM PUFF-01-01.006",
			"primitives":[
				{
					"attributes":{
						"POSITION":0,
						"NORMAL":1,
						"TEXCOORD_0":2
					},
					"indices":3,
					"material":0
				}
			]
		},
		{
			"name":"Cylinder.043",
			"primitives":[
				{
					"attributes":{
						"POSITION":4,
						"NORMAL":5,
						"TEXCOORD_0":6,
						"TEXCOORD_1":7
					},
					"indices":8,
					"material":1
				}
			]
		},
		{
			"name":"Cylinder.045",
			"primitives":[
				{
					"attributes":{
						"POSITION":9,
						"NORMAL":10,
						"TEXCOORD_0":11
					},
					"indices":12,
					"material":2
				}
			]
		},
		{
			"name":"Cylinder.001",
			"primitives":[
				{
					"attributes":{
						"POSITION":13,
						"NORMAL":14,
						"TEXCOORD_0":15
					},
					"indices":16,
					"material":3
				}
			]
		}
	],
	"textures":[
		{
			"sampler":0,
			"source":0
		},
		{
			"sampler":1,
			"source":1
		},
		{
			"sampler":1,
			"source":2
		},
		{
			"sampler":1,
			"source":3
		}
	],
	"images":[
		{
			"mimeType":"image/png",
			"name":"CREAM PUFF-01-01",
			"uri":"textures/CREAM%20PUFF-01-01.png"
		},
		{
			"mimeType":"image/png",
			"name":"OFF WITE",
			"uri":"textures/OFF%20WITE.png"
		},
		{
			"mimeType":"image/png",
			"name":"off wite 2",
			"uri":"textures/off%20wite%202.png"
		},
		{
			"mimeType":"image/png",
			"name":"silver-02",
			"uri":"textures/silver-02.png"
		}
	],
	"accessors":[
		{
			"bufferView":0,
			"componentType":5126,
			"count":14355,
			"max":[
				0.5893392562866211,
				-0.00550997257232666,
				0.48874688148498535
			],
			"min":[
				-0.5980914831161499,
				-0.020227760076522827,
				-0.48874688148498535
			],
			"type":"VEC3"
		},
		{
			"bufferView":1,
			"componentType":5126,
			"count":14355,
			"type":"VEC3"
		},
		{
			"bufferView":2,
			"componentType":5126,
			"count":14355,
			"type":"VEC2"
		},
		{
			"bufferView":3,
			"componentType":5123,
			"count":24576,
			"type":"SCALAR"
		},
		{
			"bufferView":4,
			"componentType":5126,
			"count":8232,
			"max":[
				1.0990777015686035,
				0.3541233241558075,
				1.0990777015686035
			],
			"min":[
				-1.0990777015686035,
				-1.0043706893920898,
				-1.0990777015686035
			],
			"type":"VEC3"
		},
		{
			"bufferView":5,
			"componentType":5126,
			"count":8232,
			"type":"VEC3"
		},
		{
			"bufferView":6,
			"componentType":5126,
			"count":8232,
			"type":"VEC2"
		},
		{
			"bufferView":7,
			"componentType":5126,
			"count":8232,
			"type":"VEC2"
		},
		{
			"bufferView":8,
			"componentType":5123,
			"count":39546,
			"type":"SCALAR"
		},
		{
			"bufferView":9,
			"componentType":5126,
			"count":7552,
			"max":[
				1.0124431848526,
				1.0124411582946777,
				1.0124431848526
			],
			"min":[
				-1.0124431848526,
				-1.5413861274719238,
				-1.0124431848526
			],
			"type":"VEC3"
		},
		{
			"bufferView":10,
			"componentType":5126,
			"count":7552,
			"type":"VEC3"
		},
		{
			"bufferView":11,
			"componentType":5126,
			"count":7552,
			"type":"VEC2"
		},
		{
			"bufferView":12,
			"componentType":5123,
			"count":42996,
			"type":"SCALAR"
		},
		{
			"bufferView":13,
			"componentType":5126,
			"count":258,
			"max":[
				1.0124425888061523,
				-0.4861299991607666,
				1.0124425888061523
			],
			"min":[
				-1.0124425888061523,
				-0.8892534375190735,
				-1.0124425888061523
			],
			"type":"VEC3"
		},
		{
			"bufferView":14,
			"componentType":5126,
			"count":258,
			"type":"VEC3"
		},
		{
			"bufferView":15,
			"componentType":5126,
			"count":258,
			"type":"VEC2"
		},
		{
			"bufferView":16,
			"componentType":5123,
			"count":768,
			"type":"SCALAR"
		}
	],
	"bufferViews":[
		{
			"buffer":0,
			"byteLength":172260,
			"byteOffset":0,
			"target":34962
		},
		{
			"buffer":0,
			"byteLength":172260,
			"byteOffset":172260,
			"target":34962
		},
		{
			"buffer":0,
			"byteLength":114840,
			"byteOffset":344520,
			"target":34962
		},
		{
			"buffer":0,
			"byteLength":49152,
			"byteOffset":459360,
			"target":34963
		},
		{
			"buffer":0,
			"byteLength":98784,
			"byteOffset":508512,
			"target":34962
		},
		{
			"buffer":0,
			"byteLength":98784,
			"byteOffset":607296,
			"target":34962
		},
		{
			"buffer":0,
			"byteLength":65856,
			"byteOffset":706080,
			"target":34962
		},
		{
			"buffer":0,
			"byteLength":65856,
			"byteOffset":771936,
			"target":34962
		},
		{
			"buffer":0,
			"byteLength":79092,
			"byteOffset":837792,
			"target":34963
		},
		{
			"buffer":0,
			"byteLength":90624,
			"byteOffset":916884,
			"target":34962
		},
		{
			"buffer":0,
			"byteLength":90624,
			"byteOffset":1007508,
			"target":34962
		},
		{
			"buffer":0,
			"byteLength":60416,
			"byteOffset":1098132,
			"target":34962
		},
		{
			"buffer":0,
			"byteLength":85992,
			"byteOffset":1158548,
			"target":34963
		},
		{
			"buffer":0,
			"byteLength":3096,
			"byteOffset":1244540,
			"target":34962
		},
		{
			"buffer":0,
			"byteLength":3096,
			"byteOffset":1247636,
			"target":34962
		},
		{
			"buffer":0,
			"byteLength":2064,
			"byteOffset":1250732,
			"target":34962
		},
		{
			"buffer":0,
			"byteLength":1536,
			"byteOffset":1252796,
			"target":34963
		}
	],
	"samplers":[
		{
			"magFilter":9729,
			"minFilter":9987,
			"wrapS":33071,
			"wrapT":33071
		},
		{
			"magFilter":9729,
			"minFilter":9987
		}
	],
	"buffers":[
		{
			"byteLength":1254332,
			"uri":"Easy%20base.bin"
		}
	]
}
