{
	"asset":{
		"generator":"Khronos glTF Blender I/O v3.6.27",
		"version":"2.0"
	},
	"scene":0,
	"scenes":[
		{
			"name":"Scene",
			"nodes":[
				0,
				1,
				2,
				3,
				4,
				5
			]
		}
	],
	"nodes":[
		{
			"mesh":0,
			"name":"Cylinder.003",
			"scale":[
				1.150124430656433,
				0.3106306493282318,
				1.150124430656433
			]
		},
		{
			"mesh":1,
			"name":"Cylinder.009",
			"rotation":[
				0.004611557815223932,
				0,
				0,
				0.9999894499778748
			],
			"scale":[
				1.150124430656433,
				0.3106306195259094,
				1.150124430656433
			],
			"translation":[
				0,
				0.006630957126617432,
				0.004318535327911377
			]
		},
		{
			"mesh":2,
			"name":"Cylinder.010",
			"rotation":[
				0.00441774632781744,
				0,
				0,
				0.9999903440475464
			],
			"scale":[
				1.150124430656433,
				0.3106306493282318,
				1.150124430656433
			],
			"translation":[
				0,
				0.00521773099899292,
				0.0025386810302734375
			]
		},
		{
			"mesh":3,
			"name":"Cylinder.011",
			"scale":[
				1.150124430656433,
				0.3106306493282318,
				1.150124430656433
			]
		},
		{
			"mesh":4,
			"name":"Cylinder.001",
			"rotation":[
				0.004611557815223932,
				0,
				0,
				0.9999894499778748
			],
			"scale":[
				1.150124430656433,
				0.3106306195259094,
				1.150124430656433
			],
			"translation":[
				0,
				0.006630957126617432,
				0.004318535327911377
			]
		},
		{
			"mesh":5,
			"name":"Cylinder.002",
			"rotation":[
				0.004611557815223932,
				0,
				0,
				0.9999894499778748
			],
			"scale":[
				1.150124430656433,
				0.3106306195259094,
				1.150124430656433
			],
			"translation":[
				0,
				0.006630957126617432,
				0.004318535327911377
			]
		}
	],
	"materials":[
		{
			"doubleSided":true,
			"name":"Material.001",
			"pbrMetallicRoughness":{
				"baseColorFactor":[
					1,
					0.29177024960517883,
					0.33716362714767456,
					1
				],
				"roughnessFactor":0
			}
		},
		{
			"doubleSided":true,
			"name":"Fine Gold.001",
			"pbrMetallicRoughness":{
				"roughnessFactor":0.040909089148044586
			}
		},
		{
			"doubleSided":true,
			"name":"Material.002",
			"pbrMetallicRoughness":{
				"baseColorFactor":[
					0.5983969569206238,
					0.183189257979393,
					0.45136672258377075,
					1
				],
				"metallicFactor":0,
				"roughnessFactor":0.06774196028709412
			}
		},
		{
			"alphaMode":"BLEND",
			"doubleSided":true,
			"name":"CREAM PUFF-01-01 - Copy",
			"pbrMetallicRoughness":{
				"baseColorTexture":{
					"index":0
				},
				"metallicFactor":0,
				"roughnessFactor":0.5
			}
		}
	],
	"meshes":[
		{
			"name":"Cylinder.014",
			"primitives":[
				{
					"attributes":{
						"POSITION":0,
						"NORMAL":1,
						"TEXCOORD_0":2
					},
					"indices":3,
					"material":0
				}
			]
		},
		{
			"name":"Cylinder.015",
			"primitives":[
				{
					"attributes":{
						"POSITION":4,
						"NORMAL":5,
						"TEXCOORD_0":6
					},
					"indices":7,
					"material":0
				}
			]
		},
		{
			"name":"Cylinder.016",
			"primitives":[
				{
					"attributes":{
						"POSITION":8,
						"NORMAL":9,
						"TEXCOORD_0":10
					},
					"indices":11,
					"material":1
				}
			]
		},
		{
			"name":"Cylinder.017",
			"primitives":[
				{
					"attributes":{
						"POSITION":12,
						"NORMAL":13,
						"TEXCOORD_0":14
					},
					"indices":15,
					"material":0
				}
			]
		},
		{
			"name":"Cylinder.003",
			"primitives":[
				{
					"attributes":{
						"POSITION":16,
						"NORMAL":17,
						"TEXCOORD_0":18
					},
					"indices":19,
					"material":2
				}
			]
		},
		{
			"name":"Cylinder.009",
			"primitives":[
				{
					"attributes":{
						"POSITION":20,
						"NORMAL":21,
						"TEXCOORD_0":22
					},
					"indices":23,
					"material":3
				}
			]
		}
	],
	"textures":[
		{
			"sampler":0,
			"source":0
		}
	],
	"images":[
		{
			"mimeType":"image/png",
			"name":"CREAM PUFF-01-01 - Copy",
			"uri":"textures/CREAM%20PUFF-01-01%20-%20Copy.png"
		}
	],
	"accessors":[
		{
			"bufferView":0,
			"componentType":5126,
			"count":4950,
			"max":[
				1,
				-0.1551917940378189,
				1
			],
			"min":[
				-1,
				-1.1093084812164307,
				-1
			],
			"type":"VEC3"
		},
		{
			"bufferView":1,
			"componentType":5126,
			"count":4950,
			"type":"VEC3"
		},
		{
			"bufferView":2,
			"componentType":5126,
			"count":4950,
			"type":"VEC2"
		},
		{
			"bufferView":3,
			"componentType":5123,
			"count":16992,
			"type":"SCALAR"
		},
		{
			"bufferView":4,
			"componentType":5126,
			"count":4968,
			"max":[
				1,
				1.1110304594039917,
				1
			],
			"min":[
				-1,
				-0.8360300660133362,
				-1
			],
			"type":"VEC3"
		},
		{
			"bufferView":5,
			"componentType":5126,
			"count":4968,
			"type":"VEC3"
		},
		{
			"bufferView":6,
			"componentType":5126,
			"count":4968,
			"type":"VEC2"
		},
		{
			"bufferView":7,
			"componentType":5123,
			"count":19566,
			"type":"SCALAR"
		},
		{
			"bufferView":8,
			"componentType":5126,
			"count":2795,
			"max":[
				0.962626039981842,
				-0.07010086625814438,
				0.9638136029243469
			],
			"min":[
				-0.9650011658668518,
				-0.6055728197097778,
				-0.9638136029243469
			],
			"type":"VEC3"
		},
		{
			"bufferView":9,
			"componentType":5126,
			"count":2795,
			"type":"VEC3"
		},
		{
			"bufferView":10,
			"componentType":5126,
			"count":2795,
			"type":"VEC2"
		},
		{
			"bufferView":11,
			"componentType":5123,
			"count":14694,
			"type":"SCALAR"
		},
		{
			"bufferView":12,
			"componentType":5126,
			"count":816,
			"max":[
				0.3188866376876831,
				-0.16204945743083954,
				-0.9179385304450989
			],
			"min":[
				-0.25149980187416077,
				-0.7779427170753479,
				-1.0096700191497803
			],
			"type":"VEC3"
		},
		{
			"bufferView":13,
			"componentType":5126,
			"count":816,
			"type":"VEC3"
		},
		{
			"bufferView":14,
			"componentType":5126,
			"count":816,
			"type":"VEC2"
		},
		{
			"bufferView":15,
			"componentType":5123,
			"count":2886,
			"type":"SCALAR"
		},
		{
			"bufferView":16,
			"componentType":5126,
			"count":1792,
			"max":[
				0.9539819955825806,
				1.2979743480682373,
				0.9539819955825806
			],
			"min":[
				-0.9539819955825806,
				1.111029863357544,
				-0.9539819955825806
			],
			"type":"VEC3"
		},
		{
			"bufferView":17,
			"componentType":5126,
			"count":1792,
			"type":"VEC3"
		},
		{
			"bufferView":18,
			"componentType":5126,
			"count":1792,
			"type":"VEC2"
		},
		{
			"bufferView":19,
			"componentType":5123,
			"count":9294,
			"type":"SCALAR"
		},
		{
			"bufferView":20,
			"componentType":5126,
			"count":4,
			"max":[
				0.354102224111557,
				1.3086109161376953,
				0.26352939009666443
			],
			"min":[
				-0.2914237678050995,
				1.3036017417907715,
				-0.2635420262813568
			],
			"type":"VEC3"
		},
		{
			"bufferView":21,
			"componentType":5126,
			"count":4,
			"type":"VEC3"
		},
		{
			"bufferView":22,
			"componentType":5126,
			"count":4,
			"type":"VEC2"
		},
		{
			"bufferView":23,
			"componentType":5123,
			"count":6,
			"type":"SCALAR"
		}
	],
	"bufferViews":[
		{
			"buffer":0,
			"byteLength":59400,
			"byteOffset":0,
			"target":34962
		},
		{
			"buffer":0,
			"byteLength":59400,
			"byteOffset":59400,
			"target":34962
		},
		{
			"buffer":0,
			"byteLength":39600,
			"byteOffset":118800,
			"target":34962
		},
		{
			"buffer":0,
			"byteLength":33984,
			"byteOffset":158400,
			"target":34963
		},
		{
			"buffer":0,
			"byteLength":59616,
			"byteOffset":192384,
			"target":34962
		},
		{
			"buffer":0,
			"byteLength":59616,
			"byteOffset":252000,
			"target":34962
		},
		{
			"buffer":0,
			"byteLength":39744,
			"byteOffset":311616,
			"target":34962
		},
		{
			"buffer":0,
			"byteLength":39132,
			"byteOffset":351360,
			"target":34963
		},
		{
			"buffer":0,
			"byteLength":33540,
			"byteOffset":390492,
			"target":34962
		},
		{
			"buffer":0,
			"byteLength":33540,
			"byteOffset":424032,
			"target":34962
		},
		{
			"buffer":0,
			"byteLength":22360,
			"byteOffset":457572,
			"target":34962
		},
		{
			"buffer":0,
			"byteLength":29388,
			"byteOffset":479932,
			"target":34963
		},
		{
			"buffer":0,
			"byteLength":9792,
			"byteOffset":509320,
			"target":34962
		},
		{
			"buffer":0,
			"byteLength":9792,
			"byteOffset":519112,
			"target":34962
		},
		{
			"buffer":0,
			"byteLength":6528,
			"byteOffset":528904,
			"target":34962
		},
		{
			"buffer":0,
			"byteLength":5772,
			"byteOffset":535432,
			"target":34963
		},
		{
			"buffer":0,
			"byteLength":21504,
			"byteOffset":541204,
			"target":34962
		},
		{
			"buffer":0,
			"byteLength":21504,
			"byteOffset":562708,
			"target":34962
		},
		{
			"buffer":0,
			"byteLength":14336,
			"byteOffset":584212,
			"target":34962
		},
		{
			"buffer":0,
			"byteLength":18588,
			"byteOffset":598548,
			"target":34963
		},
		{
			"buffer":0,
			"byteLength":48,
			"byteOffset":617136,
			"target":34962
		},
		{
			"buffer":0,
			"byteLength":48,
			"byteOffset":617184,
			"target":34962
		},
		{
			"buffer":0,
			"byteLength":32,
			"byteOffset":617232,
			"target":34962
		},
		{
			"buffer":0,
			"byteLength":12,
			"byteOffset":617264,
			"target":34963
		}
	],
	"samplers":[
		{
			"magFilter":9729,
			"minFilter":9987,
			"wrapS":33071,
			"wrapT":33071
		}
	],
	"buffers":[
		{
			"byteLength":617276,
			"uri":"Luxury%20compact%20powder.bin"
		}
	]
}
