{
	"asset":{
		"generator":"Khronos glTF Blender I/O v3.6.27",
		"version":"2.0"
	},
	"scene":0,
	"scenes":[
		{
			"name":"Scene",
			"nodes":[
				0,
				1,
				2,
				3,
				4
			]
		}
	],
	"nodes":[
		{
			"mesh":0,
			"name":"CREAM PUFF-01",
			"scale":[
				0.311589777469635,
				0.311589777469635,
				0.311589777469635
			],
			"translation":[
				0,
				0.10994061082601547,
				0
			]
		},
		{
			"mesh":1,
			"name":"Bridal base STICKER-04",
			"rotation":[
				0,
				0,
				1,
				1.6292068494294654e-07
			],
			"scale":[
				0.8275412321090698,
				0.8275412321090698,
				0.8275412321090698
			],
			"translation":[
				0,
				-0.0914682075381279,
				0
			]
		},
		{
			"mesh":2,
			"name":"Cylinder.008",
			"scale":[
				0.4082605838775635,
				0.09102217853069305,
				0.4082605838775635
			]
		},
		{
			"mesh":3,
			"name":"Cylinder.009",
			"scale":[
				0.4082610011100769,
				0.09102217853069305,
				0.4082605838775635
			],
			"translation":[
				0.00012745428830385208,
				-0.0009131331462413073,
				-0.0005963316652923822
			]
		},
		{
			"mesh":4,
			"name":"Cylinder.010",
			"scale":[
				0.4082605838775635,
				0.09102217853069305,
				0.4082605838775635
			]
		}
	],
	"materials":[
		{
			"alphaMode":"BLEND",
			"doubleSided":true,
			"name":"CREAM PUFF-01",
			"pbrMetallicRoughness":{
				"baseColorTexture":{
					"index":0
				},
				"metallicFactor":0,
				"roughnessFactor":0.5
			}
		},
		{
			"alphaMode":"BLEND",
			"doubleSided":true,
			"name":"Bridal base STICKER-04",
			"pbrMetallicRoughness":{
				"baseColorTexture":{
					"index":1
				},
				"metallicFactor":0,
				"roughnessFactor":0.5
			}
		},
		{
			"doubleSided":true,
			"name":"Material",
			"pbrMetallicRoughness":{
				"baseColorFactor":[
					0,
					0,
					0,
					1
				],
				"metallicFactor":0,
				"roughnessFactor":0
			}
		},
		{
			"doubleSided":true,
			"name":"Procedural Simple Cloth",
			"pbrMetallicRoughness":{
				"baseColorTexture":{
					"index":2,
					"texCoord":1
				},
				"metallicFactor":0
			}
		}
	],
	"meshes":[
		{
			"name":"CREAM PUFF-01",
			"primitives":[
				{
					"attributes":{
						"POSITION":0,
						"NORMAL":1,
						"TEXCOORD_0":2
					},
					"indices":3,
					"material":0
				}
			]
		},
		{
			"name":"Bridal base STICKER-04",
			"primitives":[
				{
					"attributes":{
						"POSITION":4,
						"NORMAL":5,
						"TEXCOORD_0":6
					},
					"indices":3,
					"material":1
				}
			]
		},
		{
			"name":"Cylinder.002",
			"primitives":[
				{
					"attributes":{
						"POSITION":7,
						"NORMAL":8,
						"TEXCOORD_0":9
					},
					"indices":10,
					"material":2
				}
			]
		},
		{
			"name":"Cylinder.009",
			"primitives":[
				{
					"attributes":{
						"POSITION":11,
						"NORMAL":12,
						"TEXCOORD_0":13
					},
					"indices":14,
					"material":2
				}
			]
		},
		{
			"name":"Cylinder.010",
			"primitives":[
				{
					"attributes":{
						"POSITION":15,
						"NORMAL":16,
						"TEXCOORD_0":17,
						"TEXCOORD_1":18
					},
					"indices":19,
					"material":3
				}
			]
		}
	],
	"textures":[
		{
			"sampler":0,
			"source":0
		},
		{
			"sampler":0,
			"source":1
		},
		{
			"sampler":1,
			"source":2
		}
	],
	"images":[
		{
			"mimeType":"image/png",
			"name":"CREAM PUFF-01",
			"uri":"textures/CREAM%20PUFF-01.png"
		},
		{
			"mimeType":"image/png",
			"name":"Bridal base STICKER-04.png",
			"uri":"textures/Bridal%20base%20STICKER-04_png.png"
		},
		{
			"mimeType":"image/png",
			"name":"powder",
			"uri":"textures/powder.png"
		}
	],
	"accessors":[
		{
			"bufferView":0,
			"componentType":5126,
			"count":4,
			"max":[
				0.612368643283844,
				0,
				0.5
			],
			"min":[
				-0.612368643283844,
				0,
				-0.5
			],
			"type":"VEC3"
		},
		{
			"bufferView":1,
			"componentType":5126,
			"count":4,
			"type":"VEC3"
		},
		{
			"bufferView":2,
			"componentType":5126,
			"count":4,
			"type":"VEC2"
		},
		{
			"bufferView":3,
			"componentType":5123,
			"count":6,
			"type":"SCALAR"
		},
		{
			"bufferView":4,
			"componentType":5126,
			"count":4,
			"max":[
				0.5106784105300903,
				0,
				0.5
			],
			"min":[
				-0.5106784105300903,
				0,
				-0.5
			],
			"type":"VEC3"
		},
		{
			"bufferView":5,
			"componentType":5126,
			"count":4,
			"type":"VEC3"
		},
		{
			"bufferView":6,
			"componentType":5126,
			"count":4,
			"type":"VEC2"
		},
		{
			"bufferView":7,
			"componentType":5126,
			"count":3265,
			"max":[
				1.0371419191360474,
				0.8880367279052734,
				1.0371419191360474
			],
			"min":[
				-1.0371419191360474,
				-1,
				-1.0371419191360474
			],
			"type":"VEC3"
		},
		{
			"bufferView":8,
			"componentType":5126,
			"count":3265,
			"type":"VEC3"
		},
		{
			"bufferView":9,
			"componentType":5126,
			"count":3265,
			"type":"VEC2"
		},
		{
			"bufferView":10,
			"componentType":5123,
			"count":14970,
			"type":"SCALAR"
		},
		{
			"bufferView":11,
			"componentType":5126,
			"count":1040,
			"max":[
				1.0371419191360474,
				1.2166430950164795,
				1.0371419191360474
			],
			"min":[
				-1.0371419191360474,
				-0.03913155198097229,
				-1.0371419191360474
			],
			"type":"VEC3"
		},
		{
			"bufferView":12,
			"componentType":5126,
			"count":1040,
			"type":"VEC3"
		},
		{
			"bufferView":13,
			"componentType":5126,
			"count":1040,
			"type":"VEC2"
		},
		{
			"bufferView":14,
			"componentType":5123,
			"count":3450,
			"type":"SCALAR"
		},
		{
			"bufferView":15,
			"componentType":5126,
			"count":1304,
			"max":[
				0.9857509136199951,
				0.8880367279052734,
				0.9857509136199951
			],
			"min":[
				-0.9857509136199951,
				-0.928711473941803,
				-0.9857509136199951
			],
			"type":"VEC3"
		},
		{
			"bufferView":16,
			"componentType":5126,
			"count":1304,
			"type":"VEC3"
		},
		{
			"bufferView":17,
			"componentType":5126,
			"count":1304,
			"type":"VEC2"
		},
		{
			"bufferView":18,
			"componentType":5126,
			"count":1304,
			"type":"VEC2"
		},
		{
			"bufferView":19,
			"componentType":5123,
			"count":3828,
			"type":"SCALAR"
		}
	],
	"bufferViews":[
		{
			"buffer":0,
			"byteLength":48,
			"byteOffset":0,
			"target":34962
		},
		{
			"buffer":0,
			"byteLength":48,
			"byteOffset":48,
			"target":34962
		},
		{
			"buffer":0,
			"byteLength":32,
			"byteOffset":96,
			"target":34962
		},
		{
			"buffer":0,
			"byteLength":12,
			"byteOffset":128,
			"target":34963
		},
		{
			"buffer":0,
			"byteLength":48,
			"byteOffset":140,
			"target":34962
		},
		{
			"buffer":0,
			"byteLength":48,
			"byteOffset":188,
			"target":34962
		},
		{
			"buffer":0,
			"byteLength":32,
			"byteOffset":236,
			"target":34962
		},
		{
			"buffer":0,
			"byteLength":39180,
			"byteOffset":268,
			"target":34962
		},
		{
			"buffer":0,
			"byteLength":39180,
			"byteOffset":39448,
			"target":34962
		},
		{
			"buffer":0,
			"byteLength":26120,
			"byteOffset":78628,
			"target":34962
		},
		{
			"buffer":0,
			"byteLength":29940,
			"byteOffset":104748,
			"target":34963
		},
		{
			"buffer":0,
			"byteLength":12480,
			"byteOffset":134688,
			"target":34962
		},
		{
			"buffer":0,
			"byteLength":12480,
			"byteOffset":147168,
			"target":34962
		},
		{
			"buffer":0,
			"byteLength":8320,
			"byteOffset":159648,
			"target":34962
		},
		{
			"buffer":0,
			"byteLength":6900,
			"byteOffset":167968,
			"target":34963
		},
		{
			"buffer":0,
			"byteLength":15648,
			"byteOffset":174868,
			"target":34962
		},
		{
			"buffer":0,
			"byteLength":15648,
			"byteOffset":190516,
			"target":34962
		},
		{
			"buffer":0,
			"byteLength":10432,
			"byteOffset":206164,
			"target":34962
		},
		{
			"buffer":0,
			"byteLength":10432,
			"byteOffset":216596,
			"target":34962
		},
		{
			"buffer":0,
			"byteLength":7656,
			"byteOffset":227028,
			"target":34963
		}
	],
	"samplers":[
		{
			"magFilter":9729,
			"minFilter":9987,
			"wrapS":33071,
			"wrapT":33071
		},
		{
			"magFilter":9729,
			"minFilter":9987
		}
	],
	"buffers":[
		{
			"byteLength":234684,
			"uri":"Bridal%20Base%202.bin"
		}
	]
}
