{
	"asset":{
		"generator":"Khronos glTF Blender I/O v3.6.27",
		"version":"2.0"
	},
	"scene":0,
	"scenes":[
		{
			"name":"Scene",
			"nodes":[
				0,
				1,
				2,
				3
			]
		}
	],
	"nodes":[
		{
			"mesh":0,
			"name":"Compact powder BACK STICKER-05",
			"rotation":[
				0,
				0,
				1,
				1.6292068494294654e-07
			],
			"scale":[
				1.9271355867385864,
				1.9271355867385864,
				1.9271355867385864
			],
			"translation":[
				0,
				0.018245065584778786,
				0
			]
		},
		{
			"mesh":1,
			"name":"CREAM PUFF-01.001",
			"scale":[
				0.6011050343513489,
				0.6011050939559937,
				0.6011050939559937
			],
			"translation":[
				0,
				0.29964664578437805,
				0
			]
		},
		{
			"mesh":2,
			"name":"Cylinder.007",
			"translation":[
				0,
				0.998872697353363,
				0
			]
		},
		{
			"mesh":3,
			"name":"Cylinder.008",
			"translation":[
				0,
				0.06690169870853424,
				0
			]
		}
	],
	"materials":[
		{
			"alphaMode":"BLEND",
			"doubleSided":true,
			"name":"Compact powder BACK STICKER-05",
			"pbrMetallicRoughness":{
				"baseColorTexture":{
					"index":0
				},
				"metallicFactor":0,
				"roughnessFactor":0.30000001192092896
			}
		},
		{
			"alphaMode":"BLEND",
			"doubleSided":true,
			"name":"CREAM PUFF-01",
			"pbrMetallicRoughness":{
				"baseColorTexture":{
					"index":1
				},
				"metallicFactor":0,
				"roughnessFactor":0.5
			}
		},
		{
			"doubleSided":true,
			"name":"Material.005",
			"pbrMetallicRoughness":{
				"baseColorTexture":{
					"index":2
				},
				"metallicFactor":0,
				"roughnessFactor":0.07636217772960663
			}
		},
		{
			"doubleSided":true,
			"name":"Material.001",
			"pbrMetallicRoughness":{
				"baseColorTexture":{
					"index":3
				},
				"metallicFactor":0,
				"roughnessFactor":0.07636217772960663
			}
		}
	],
	"meshes":[
		{
			"name":"Compact powder BACK STICKER-05",
			"primitives":[
				{
					"attributes":{
						"POSITION":0,
						"NORMAL":1,
						"TEXCOORD_0":2
					},
					"indices":3,
					"material":0
				}
			]
		},
		{
			"name":"CREAM PUFF-01.001",
			"primitives":[
				{
					"attributes":{
						"POSITION":4,
						"NORMAL":5,
						"TEXCOORD_0":6
					},
					"indices":3,
					"material":1
				}
			]
		},
		{
			"name":"Cylinder.010",
			"primitives":[
				{
					"attributes":{
						"POSITION":7,
						"NORMAL":8,
						"TEXCOORD_0":9
					},
					"indices":10,
					"material":2
				}
			]
		},
		{
			"name":"Cylinder.011",
			"primitives":[
				{
					"attributes":{
						"POSITION":11,
						"NORMAL":12,
						"TEXCOORD_0":13
					},
					"indices":14,
					"material":3
				}
			]
		}
	],
	"textures":[
		{
			"sampler":0,
			"source":0
		},
		{
			"sampler":0,
			"source":1
		},
		{
			"sampler":1,
			"source":2
		},
		{
			"sampler":1,
			"source":3
		}
	],
	"images":[
		{
			"mimeType":"image/png",
			"name":"Compact powder BACK STICKER-05",
			"uri":"textures/Compact%20powder%20BACK%20STICKER-05.png"
		},
		{
			"mimeType":"image/png",
			"name":"CREAM PUFF-01 - Copy",
			"uri":"textures/CREAM%20PUFF-01%20-%20Copy.png"
		},
		{
			"mimeType":"image/png",
			"name":"black 2",
			"uri":"textures/black%202.png"
		},
		{
			"mimeType":"image/png",
			"name":"black 1",
			"uri":"textures/black%201.png"
		}
	],
	"accessors":[
		{
			"bufferView":0,
			"componentType":5126,
			"count":4,
			"max":[
				0.49988144636154175,
				0,
				0.5
			],
			"min":[
				-0.49988144636154175,
				0,
				-0.5
			],
			"type":"VEC3"
		},
		{
			"bufferView":1,
			"componentType":5126,
			"count":4,
			"type":"VEC3"
		},
		{
			"bufferView":2,
			"componentType":5126,
			"count":4,
			"type":"VEC2"
		},
		{
			"bufferView":3,
			"componentType":5123,
			"count":6,
			"type":"SCALAR"
		},
		{
			"bufferView":4,
			"componentType":5126,
			"count":4,
			"max":[
				0.612368643283844,
				0,
				0.5
			],
			"min":[
				-0.612368643283844,
				0,
				-0.5
			],
			"type":"VEC3"
		},
		{
			"bufferView":5,
			"componentType":5126,
			"count":4,
			"type":"VEC3"
		},
		{
			"bufferView":6,
			"componentType":5126,
			"count":4,
			"type":"VEC2"
		},
		{
			"bufferView":7,
			"componentType":5126,
			"count":2988,
			"max":[
				1.0113424062728882,
				-0.7251694798469543,
				1.0113424062728882
			],
			"min":[
				-1.0113424062728882,
				-1,
				-1.0113424062728882
			],
			"type":"VEC3"
		},
		{
			"bufferView":8,
			"componentType":5126,
			"count":2988,
			"type":"VEC3"
		},
		{
			"bufferView":9,
			"componentType":5126,
			"count":2988,
			"type":"VEC2"
		},
		{
			"bufferView":10,
			"componentType":5123,
			"count":12666,
			"type":"SCALAR"
		},
		{
			"bufferView":11,
			"componentType":5126,
			"count":384,
			"max":[
				1,
				0.2326708436012268,
				1
			],
			"min":[
				-1,
				-0.03443878889083862,
				-1
			],
			"type":"VEC3"
		},
		{
			"bufferView":12,
			"componentType":5126,
			"count":384,
			"type":"VEC3"
		},
		{
			"bufferView":13,
			"componentType":5126,
			"count":384,
			"type":"VEC2"
		},
		{
			"bufferView":14,
			"componentType":5123,
			"count":1146,
			"type":"SCALAR"
		}
	],
	"bufferViews":[
		{
			"buffer":0,
			"byteLength":48,
			"byteOffset":0,
			"target":34962
		},
		{
			"buffer":0,
			"byteLength":48,
			"byteOffset":48,
			"target":34962
		},
		{
			"buffer":0,
			"byteLength":32,
			"byteOffset":96,
			"target":34962
		},
		{
			"buffer":0,
			"byteLength":12,
			"byteOffset":128,
			"target":34963
		},
		{
			"buffer":0,
			"byteLength":48,
			"byteOffset":140,
			"target":34962
		},
		{
			"buffer":0,
			"byteLength":48,
			"byteOffset":188,
			"target":34962
		},
		{
			"buffer":0,
			"byteLength":32,
			"byteOffset":236,
			"target":34962
		},
		{
			"buffer":0,
			"byteLength":35856,
			"byteOffset":268,
			"target":34962
		},
		{
			"buffer":0,
			"byteLength":35856,
			"byteOffset":36124,
			"target":34962
		},
		{
			"buffer":0,
			"byteLength":23904,
			"byteOffset":71980,
			"target":34962
		},
		{
			"buffer":0,
			"byteLength":25332,
			"byteOffset":95884,
			"target":34963
		},
		{
			"buffer":0,
			"byteLength":4608,
			"byteOffset":121216,
			"target":34962
		},
		{
			"buffer":0,
			"byteLength":4608,
			"byteOffset":125824,
			"target":34962
		},
		{
			"buffer":0,
			"byteLength":3072,
			"byteOffset":130432,
			"target":34962
		},
		{
			"buffer":0,
			"byteLength":2292,
			"byteOffset":133504,
			"target":34963
		}
	],
	"samplers":[
		{
			"magFilter":9729,
			"minFilter":9987,
			"wrapS":33071,
			"wrapT":33071
		},
		{
			"magFilter":9729,
			"minFilter":9987
		}
	],
	"buffers":[
		{
			"byteLength":135796,
			"uri":"Compact%20powder%20.bin"
		}
	]
}
