{
	"asset":{
		"generator":"Khronos glTF Blender I/O v3.6.27",
		"version":"2.0"
	},
	"extensionsUsed":[
		"KHR_materials_clearcoat",
		"KHR_materials_transmission",
		"KHR_materials_specular",
		"KHR_materials_ior",
		"KHR_texture_transform"
	],
	"extensionsRequired":[
		"KHR_texture_transform"
	],
	"scene":0,
	"scenes":[
		{
			"name":"Scene",
			"nodes":[
				0,
				1,
				2,
				3,
				4
			]
		}
	],
	"nodes":[
		{
			"mesh":0,
			"name":"Cylinder",
			"scale":[
				0.8887237906455994,
				0.8887237906455994,
				0.8887237906455994
			],
			"translation":[
				0,
				-0.09541833400726318,
				0.3701525628566742
			]
		},
		{
			"mesh":1,
			"name":"Cylinder.002",
			"scale":[
				0.8887237906455994,
				0.8887237906455994,
				0.8887237906455994
			],
			"translation":[
				0,
				-0.09541833400726318,
				0.3701525628566742
			]
		},
		{
			"mesh":2,
			"name":"Cylinder.003",
			"scale":[
				0.925159752368927,
				0.925159752368927,
				0.925159752368927
			],
			"translation":[
				0,
				-0.09541833400726318,
				0.3701525628566742
			]
		},
		{
			"mesh":3,
			"name":"CREAM PUFF-01-01 - Copy",
			"rotation":[
				0.5,
				0.5,
				-0.5,
				0.5
			],
			"scale":[
				0.7557151317596436,
				0.7557151317596436,
				0.7557151317596436
			],
			"translation":[
				0.889065146446228,
				0.9279550313949585,
				0.3859039843082428
			]
		},
		{
			"mesh":4,
			"name":"Nail Polish-01",
			"rotation":[
				0.5,
				0.5,
				-0.5,
				0.5
			],
			"scale":[
				0.2819911241531372,
				0.2819911241531372,
				0.2819911241531372
			],
			"translation":[
				0.8909264206886292,
				-0.023818880319595337,
				0.3937796354293823
			]
		}
	],
	"materials":[
		{
			"alphaMode":"BLEND",
			"extensions":{
				"KHR_materials_clearcoat":{
					"clearcoatFactor":1,
					"clearcoatRoughnessFactor":0.029999999329447746
				},
				"KHR_materials_transmission":{
					"transmissionFactor":1
				},
				"KHR_materials_specular":{
					"specularColorFactor":[
						1,
						1,
						1
					]
				},
				"KHR_materials_ior":{
					"ior":200
				}
			},
			"name":"AR/VR Glass for GLTF extension",
			"pbrMetallicRoughness":{
				"baseColorFactor":[
					1,
					1,
					1,
					0.5
				],
				"baseColorTexture":{
					"extensions":{
						"KHR_texture_transform":{
							"offset":[
								-10.606601949612863,
								-9.606601485983557
							],
							"rotation":0.7853981852531433,
							"scale":[
								15,
								15
							]
						}
					},
					"index":0
				},
				"metallicFactor":0.23636363446712494,
				"roughnessFactor":0
			}
		},
		{
			"doubleSided":true,
			"name":"Material.002",
			"pbrMetallicRoughness":{
				"baseColorFactor":[
					0,
					0,
					0,
					1
				],
				"metallicFactor":0,
				"roughnessFactor":0.5629920959472656
			}
		},
		{
			"doubleSided":true,
			"extensions":{
				"KHR_materials_specular":{
					"specularColorFactor":[
						0,
						0,
						0
					]
				},
				"KHR_materials_ior":{
					"ior":1.4500000476837158
				}
			},
			"name":"Material.009",
			"pbrMetallicRoughness":{
				"baseColorFactor":[
					0.8000000715255737,
					0.15123894810676575,
					0.23125293850898743,
					1
				],
				"metallicFactor":0.36220473051071167,
				"roughnessFactor":0
			}
		},
		{
			"alphaMode":"BLEND",
			"doubleSided":true,
			"name":"CREAM PUFF-01-01 - Copy",
			"pbrMetallicRoughness":{
				"baseColorTexture":{
					"index":1
				},
				"metallicFactor":0,
				"roughnessFactor":0.5
			}
		},
		{
			"alphaMode":"BLEND",
			"doubleSided":true,
			"name":"Nail Polish-01",
			"pbrMetallicRoughness":{
				"baseColorTexture":{
					"index":2
				},
				"metallicFactor":0,
				"roughnessFactor":0.5
			}
		}
	],
	"meshes":[
		{
			"name":"Cylinder.004",
			"primitives":[
				{
					"attributes":{
						"POSITION":0,
						"NORMAL":1,
						"TEXCOORD_0":2
					},
					"indices":3,
					"material":0
				}
			]
		},
		{
			"name":"Cylinder.005",
			"primitives":[
				{
					"attributes":{
						"POSITION":4,
						"NORMAL":5,
						"TEXCOORD_0":6
					},
					"indices":7,
					"material":1
				}
			]
		},
		{
			"name":"Cylinder.006",
			"primitives":[
				{
					"attributes":{
						"POSITION":8,
						"NORMAL":9,
						"TEXCOORD_0":10
					},
					"indices":11,
					"material":2
				}
			]
		},
		{
			"name":"CREAM PUFF-01-01 - Copy",
			"primitives":[
				{
					"attributes":{
						"POSITION":12,
						"NORMAL":13,
						"TEXCOORD_0":14
					},
					"indices":15,
					"material":3
				}
			]
		},
		{
			"name":"Nail Polish-01",
			"primitives":[
				{
					"attributes":{
						"POSITION":16,
						"NORMAL":17,
						"TEXCOORD_0":18
					},
					"indices":15,
					"material":4
				}
			]
		}
	],
	"textures":[
		{
			"sampler":0,
			"source":0
		},
		{
			"sampler":1,
			"source":1
		},
		{
			"sampler":1,
			"source":2
		}
	],
	"images":[
		{
			"mimeType":"image/jpeg",
			"name":"r",
			"uri":"textures/r.jpg"
		},
		{
			"mimeType":"image/png",
			"name":"CREAM PUFF-01 - Copy",
			"uri":"textures/CREAM%20PUFF-01%20-%20Copy.png"
		},
		{
			"mimeType":"image/png",
			"name":"Nail Polish2-01",
			"uri":"textures/Nail%20Polish2-01.png"
		}
	],
	"accessors":[
		{
			"bufferView":0,
			"componentType":5126,
			"count":10330,
			"max":[
				1,
				2.1068153381347656,
				1
			],
			"min":[
				-1,
				-1,
				-1
			],
			"type":"VEC3"
		},
		{
			"bufferView":1,
			"componentType":5126,
			"count":10330,
			"type":"VEC3"
		},
		{
			"bufferView":2,
			"componentType":5126,
			"count":10330,
			"type":"VEC2"
		},
		{
			"bufferView":3,
			"componentType":5123,
			"count":46482,
			"type":"SCALAR"
		},
		{
			"bufferView":4,
			"componentType":5126,
			"count":3846,
			"max":[
				1,
				3.990817070007324,
				1
			],
			"min":[
				-1,
				1.982169508934021,
				-1
			],
			"type":"VEC3"
		},
		{
			"bufferView":5,
			"componentType":5126,
			"count":3846,
			"type":"VEC3"
		},
		{
			"bufferView":6,
			"componentType":5126,
			"count":3846,
			"type":"VEC2"
		},
		{
			"bufferView":7,
			"componentType":5123,
			"count":14694,
			"type":"SCALAR"
		},
		{
			"bufferView":8,
			"componentType":5126,
			"count":2550,
			"max":[
				0.8731355667114258,
				1.8999606370925903,
				0.8731353878974915
			],
			"min":[
				-0.8731353878974915,
				-0.4298856556415558,
				-0.8731353878974915
			],
			"type":"VEC3"
		},
		{
			"bufferView":9,
			"componentType":5126,
			"count":2550,
			"type":"VEC3"
		},
		{
			"bufferView":10,
			"componentType":5126,
			"count":2550,
			"type":"VEC2"
		},
		{
			"bufferView":11,
			"componentType":5123,
			"count":14694,
			"type":"SCALAR"
		},
		{
			"bufferView":12,
			"componentType":5126,
			"count":544,
			"max":[
				0.5535362362861633,
				0.010648727416992188,
				0.5000358819961548
			],
			"min":[
				-0.5449429154396057,
				-0.13233065605163574,
				-0.5000041723251343
			],
			"type":"VEC3"
		},
		{
			"bufferView":13,
			"componentType":5126,
			"count":544,
			"type":"VEC3"
		},
		{
			"bufferView":14,
			"componentType":5126,
			"count":544,
			"type":"VEC2"
		},
		{
			"bufferView":15,
			"componentType":5123,
			"count":1536,
			"type":"SCALAR"
		},
		{
			"bufferView":16,
			"componentType":5126,
			"count":544,
			"max":[
				1.8193658590316772,
				0.021066904067993164,
				0.500000536441803
			],
			"min":[
				-1.7664233446121216,
				-0.570075273513794,
				-0.5001545548439026
			],
			"type":"VEC3"
		},
		{
			"bufferView":17,
			"componentType":5126,
			"count":544,
			"type":"VEC3"
		},
		{
			"bufferView":18,
			"componentType":5126,
			"count":544,
			"type":"VEC2"
		}
	],
	"bufferViews":[
		{
			"buffer":0,
			"byteLength":123960,
			"byteOffset":0,
			"target":34962
		},
		{
			"buffer":0,
			"byteLength":123960,
			"byteOffset":123960,
			"target":34962
		},
		{
			"buffer":0,
			"byteLength":82640,
			"byteOffset":247920,
			"target":34962
		},
		{
			"buffer":0,
			"byteLength":92964,
			"byteOffset":330560,
			"target":34963
		},
		{
			"buffer":0,
			"byteLength":46152,
			"byteOffset":423524,
			"target":34962
		},
		{
			"buffer":0,
			"byteLength":46152,
			"byteOffset":469676,
			"target":34962
		},
		{
			"buffer":0,
			"byteLength":30768,
			"byteOffset":515828,
			"target":34962
		},
		{
			"buffer":0,
			"byteLength":29388,
			"byteOffset":546596,
			"target":34963
		},
		{
			"buffer":0,
			"byteLength":30600,
			"byteOffset":575984,
			"target":34962
		},
		{
			"buffer":0,
			"byteLength":30600,
			"byteOffset":606584,
			"target":34962
		},
		{
			"buffer":0,
			"byteLength":20400,
			"byteOffset":637184,
			"target":34962
		},
		{
			"buffer":0,
			"byteLength":29388,
			"byteOffset":657584,
			"target":34963
		},
		{
			"buffer":0,
			"byteLength":6528,
			"byteOffset":686972,
			"target":34962
		},
		{
			"buffer":0,
			"byteLength":6528,
			"byteOffset":693500,
			"target":34962
		},
		{
			"buffer":0,
			"byteLength":4352,
			"byteOffset":700028,
			"target":34962
		},
		{
			"buffer":0,
			"byteLength":3072,
			"byteOffset":704380,
			"target":34963
		},
		{
			"buffer":0,
			"byteLength":6528,
			"byteOffset":707452,
			"target":34962
		},
		{
			"buffer":0,
			"byteLength":6528,
			"byteOffset":713980,
			"target":34962
		},
		{
			"buffer":0,
			"byteLength":4352,
			"byteOffset":720508,
			"target":34962
		}
	],
	"samplers":[
		{
			"magFilter":9729,
			"minFilter":9987
		},
		{
			"magFilter":9729,
			"minFilter":9987,
			"wrapS":33071,
			"wrapT":33071
		}
	],
	"buffers":[
		{
			"byteLength":724860,
			"uri":"Nail%20paints%202.bin"
		}
	]
}
